<svg width="210" height="242" viewBox="0 0 210 242" fill="none" xmlns="http://www.w3.org/2000/svg">
<g id="vetor desktop 1" clip-path="url(#clip0_861_54209)">
<g id="Camada 2">
<g id="Layer 1">
<path id="Vector" d="M141.158 240.327C141.158 240.327 172.184 225.259 177.518 217.401C182.852 209.543 175.018 209.098 175.018 209.098C175.018 209.098 188.853 195.836 186.913 190.252C184.972 184.668 177.795 189.789 177.795 189.789C177.795 189.789 186.696 170.27 182.499 168.308C174.681 164.653 163.713 185.654 163.713 185.654C163.713 185.654 166.06 176.532 160.683 176.836C152.566 177.282 152.901 197.92 152.901 197.92C152.901 197.92 151.984 190.007 147.09 192.578C138.304 197.181 141.158 240.327 141.158 240.327Z" fill="#B53566"/>
<path id="Vector_2" d="M145.318 189.376C149.139 187.288 152.944 193.392 152.944 193.392C152.944 193.392 152.559 177.274 160.683 176.835C166.067 176.54 163.71 185.662 163.71 185.662C163.71 185.662 174.678 164.66 182.496 168.315L141.121 239.992C140.83 234.986 137.748 193.516 145.318 189.376Z" fill="#E0457B"/>
<path id="Vector_3" d="M141.959 240.514C141.959 240.514 167.33 243.617 173.901 240.852C180.472 238.087 175.761 234.669 175.761 234.669C175.761 234.669 189.868 231.937 190.956 227.676C192.045 223.415 185.537 223.753 185.537 223.753C185.537 223.753 199.062 215.125 197.254 212.22C193.887 206.812 178.382 215.522 178.382 215.522C178.382 215.522 183.615 210.776 180.135 208.805C174.888 205.835 166.584 218.841 166.584 218.841C166.584 218.841 167.099 215.636 162.987 215.279C155.608 214.642 141.959 240.514 141.959 240.514Z" fill="#B53566"/>
<path id="Vector_4" d="M162.82 212.958C166.932 213.314 166.584 218.849 166.584 218.849C166.584 218.849 175.038 203.431 180.285 206.401C183.765 208.372 179.648 214.841 179.648 214.841C179.648 214.841 193.886 206.82 197.253 212.229L141.883 240.378C143.765 237.137 155.928 212.355 162.82 212.958Z" fill="#E0457B"/>
<path id="Vector_5" d="M75.6394 239.539C75.6394 239.539 44.6162 224.473 39.2824 216.614C33.9485 208.756 41.7826 208.31 41.7826 208.31C41.7826 208.31 27.9395 195.048 29.8864 189.464C31.8333 183.879 39.1023 189.216 39.1023 189.216C39.1023 189.216 30.1014 169.483 34.3018 167.521C42.1193 163.866 53.0854 184.866 53.0854 184.866C53.0854 184.866 50.7285 175.744 56.1124 176.039C64.2316 176.487 63.8949 197.125 63.8949 197.125C63.8949 197.125 64.8117 189.212 69.7055 191.782C78.4914 196.394 75.6394 239.539 75.6394 239.539Z" fill="#B53566"/>
<path id="Vector_6" d="M71.4791 188.59C67.6587 186.501 63.8517 192.606 63.8517 192.606C63.8517 192.606 64.2384 176.487 56.1192 176.039C50.7353 175.744 53.0922 184.866 53.0922 184.866C53.0922 184.866 42.1261 163.864 34.3086 167.521L75.6745 239.204C75.9662 234.198 79.0482 192.728 71.4791 188.59Z" fill="#E0457B"/>
<path id="Vector_7" d="M74.841 239.721C74.841 239.721 49.4684 242.826 42.8993 240.059C36.3303 237.293 41.0375 233.876 41.0375 233.876C41.0375 233.876 26.9327 231.145 25.8443 226.883C24.7558 222.621 31.4898 223.039 31.4898 223.039C31.4898 223.039 17.7367 214.337 19.5453 211.429C22.9139 206.021 38.4172 214.729 38.4172 214.729C38.4172 214.729 33.1833 209.983 36.6637 208.012C41.9126 205.042 50.2168 218.048 50.2168 218.048C50.2168 218.048 49.7 214.843 53.8121 214.486C61.1879 213.854 74.841 239.721 74.841 239.721Z" fill="#B53566"/>
<path id="Vector_8" d="M53.3772 210.15C49.2651 210.505 49.3284 214.44 49.3284 214.44C49.3284 214.44 41.7593 202.635 36.5104 205.607C33.0301 207.577 37.1471 214.046 37.1471 214.046C37.1471 214.046 22.9107 206.025 19.542 211.434L74.9144 239.588C73.0309 236.349 60.2695 209.554 53.3772 210.15Z" fill="#E0457B"/>
<path id="Vector_9" d="M155.313 59.2817C155.123 60.1635 154.949 61.0764 154.479 61.8152C153.679 62.7697 152.92 63.7549 152.202 64.7707C152.702 64.7346 153.202 64.7132 153.702 64.7132C158.646 64.7132 163.248 66.4274 166.657 69.5421C169.706 72.3252 171.384 75.8931 171.384 79.5891C171.384 83.2851 169.706 86.8513 166.657 89.6344C163.248 92.754 158.646 94.4649 153.702 94.4649C148.759 94.4649 144.182 92.7508 140.773 89.6492L140.029 91.8132C138.363 92.6457 137.196 94.6045 137.196 96.8917C137.196 99.9325 139.268 102.399 141.825 102.399C143.825 102.399 145.54 100.872 146.178 98.7405C148.606 99.5357 151.148 99.9398 153.706 99.9375C166.015 99.9375 175.996 90.8231 175.996 79.5776C175.991 68.8328 166.871 60.037 155.313 59.2817Z" fill="#7734CE"/>
<path id="Vector_10" d="M55.3491 59.2817C55.5391 60.1635 55.7124 61.0764 56.1825 61.8152C56.9837 62.7697 57.7426 63.7549 58.4594 64.7707C57.9593 64.7346 57.4676 64.7132 56.9592 64.7132C52.0154 64.7132 47.4132 66.4274 44.0045 69.5421C40.9559 72.3252 39.2774 75.8931 39.2774 79.5891C39.2774 83.285 40.9559 86.8513 44.0045 89.6344C47.4132 92.754 52.0154 94.4649 56.9592 94.4649C61.9031 94.4649 66.4802 92.7573 69.8872 89.659C70.1356 90.3814 70.3873 91.1006 70.6306 91.8231C72.2975 92.6555 73.4643 94.6143 73.4643 96.9015C73.4643 99.9424 71.3924 102.409 68.8371 102.409C66.8269 102.409 65.1201 100.882 64.4817 98.7503C62.0542 99.5455 59.5124 99.9497 56.9542 99.9473C44.6446 99.9473 34.6636 90.833 34.6636 79.5874C34.6702 68.8328 43.7912 60.037 55.3491 59.2817Z" fill="#7734CE"/>
<path id="Vector_11" d="M158.516 56.9634V62.5837C158.516 87.9859 137.606 108.584 111.818 108.584C99.9402 108.43 91.791 109.638 80.5132 104.72C64.2682 97.6946 52.5703 81.6185 52.5703 62.5837V56.9634H158.516Z" fill="#9B4DEE"/>
<path id="Vector_12" d="M80.5168 104.72L80.5518 104.735L97.3436 56.9634H79.8651L66.4087 95.2613C70.4824 99.2403 75.2648 102.447 80.5168 104.72Z" fill="#B48BEA"/>
<path id="Vector_13" d="M91.438 107.944L109.151 56.9634H100.372L83.3838 105.866C85.9927 106.818 88.6905 107.514 91.438 107.944Z" fill="#B48BEA"/>
<path id="Vector_14" d="M64.7068 93.511L77.9531 56.9634H73.786L61.7998 90.0318C62.7099 91.238 63.6789 92.3978 64.7068 93.511Z" fill="#B48BEA"/>
<path id="Vector_15" d="M153.894 53.7764H57.4608C53.9421 53.7764 51.0735 55.7056 50.8701 58.1373H160.485C160.283 55.7056 157.413 53.7764 153.894 53.7764Z" fill="#7734CE"/>
<path id="Vector_16" d="M87.6406 107.239L93.0962 134.828H116.955L123.716 107.239H87.6406Z" fill="#9B4DEE"/>
<path id="Vector_17" d="M123.716 107.241L122.191 113.467H88.8741L87.6406 107.241H123.716Z" fill="#7734CE"/>
<path id="Vector_18" d="M123.716 168.963H87.6406L90.3459 155.267L93.0945 141.37H116.957L120.364 155.267L123.716 168.963Z" fill="#9B4DEE"/>
<path id="Vector_19" d="M123.716 168.962H87.6406L90.3459 155.267H120.364L123.716 168.962Z" fill="#7734CE"/>
<path id="Vector_20" d="M88.9109 134.83H121.141C121.479 134.83 121.814 134.896 122.126 135.023C122.438 135.15 122.722 135.337 122.961 135.573C123.2 135.808 123.389 136.087 123.519 136.395C123.648 136.703 123.714 137.032 123.714 137.365V138.833C123.714 139.506 123.443 140.151 122.961 140.626C122.478 141.102 121.824 141.369 121.141 141.37H88.9109C88.229 141.368 87.5757 141.1 87.0942 140.625C86.6127 140.149 86.3423 139.505 86.3423 138.833V137.364C86.3427 136.692 86.6134 136.049 87.0949 135.574C87.5764 135.099 88.2295 134.831 88.9109 134.83Z" fill="#7734CE"/>
<path id="Vector_21" d="M85.2572 158.084H124.883C125.281 158.084 125.662 158.24 125.944 158.517C126.225 158.794 126.383 159.17 126.383 159.562V167.102H83.7637V159.556C83.7654 159.166 83.9233 158.793 84.203 158.517C84.4827 158.242 84.8616 158.086 85.2572 158.084Z" fill="#9B4DEE"/>
<path id="Vector_22" d="M140.458 172.481V175.221H69.6821V172.481C69.6821 169.322 71.639 166.759 74.0509 166.759H136.089C138.501 166.759 140.458 169.322 140.458 172.481Z" fill="#9B4DEE"/>
<path id="Vector_23" d="M86.3457 166.759L84.1055 175.221H81.1519L83.3921 166.759H86.3457Z" fill="#B48BEA"/>
<path id="Vector_24" d="M82.1166 166.759L79.8764 175.221H76.9194L79.163 166.759H82.1166Z" fill="#B48BEA"/>
<path id="Vector_25" d="M90.1059 166.759L87.8657 175.221H84.9087L87.1523 166.759H90.1059Z" fill="#B48BEA"/>
<path id="Vector_26" d="M166.809 237.836V240.577H48.2114V237.836C48.2114 234.677 51.4901 232.114 55.5305 232.114H159.488C163.53 232.114 166.809 234.677 166.809 237.836Z" fill="#F7EB48"/>
<path id="Vector_27" d="M76.133 232.114L72.3826 240.577H67.4321L71.1842 232.114H76.133Z" fill="#F9EE8C"/>
<path id="Vector_28" d="M69.0469 232.114L65.2949 240.577H60.3394L64.0981 232.114H69.0469Z" fill="#F9EE8C"/>
<path id="Vector_29" d="M82.4337 232.114L78.6833 240.577H73.7261L77.4848 232.114H82.4337Z" fill="#F9EE8C"/>
<path id="Vector_30" d="M135.889 102.026V104.098C135.89 104.949 135.72 105.792 135.39 106.578C135.059 107.365 134.575 108.079 133.965 108.681C133.354 109.284 132.629 109.761 131.831 110.087C131.033 110.413 130.177 110.581 129.314 110.582H81.8086C80.944 110.583 80.0876 110.415 79.2886 110.09C78.4896 109.764 77.7636 109.287 77.1521 108.684C76.5407 108.082 76.0557 107.367 75.7249 106.58C75.3942 105.793 75.2242 104.95 75.2246 104.098V102.026H135.889Z" fill="#9B4DEE"/>
<path id="Vector_31" d="M150.354 232.114H61.1064L62.1949 175.223H149.157L150.354 232.114Z" fill="#D8C939"/>
<path id="Vector_32" d="M129.13 232.114H82.3301L82.9001 175.223H128.502L129.13 232.114Z" fill="#F7EB48"/>
<path id="Vector_33" d="M156.971 20.1301C156.723 21.1382 156.273 22.7276 156.273 22.7276C156.309 23.166 156.439 24.9869 156.596 27.2166L153.262 25.9031C153.262 25.9031 153.302 22.2679 153.154 22.0462C153.027 21.8574 152.82 22.0922 151.795 20.6539C151.502 20.2385 151.447 19.5045 151.447 19.5045C151.447 19.5045 151.385 18.5916 151.594 18.5062C151.692 18.4742 151.798 18.4778 151.894 18.5163C151.99 18.5549 152.068 18.6258 152.115 18.7164C152.192 18.8806 152.172 19.2418 152.247 19.3994C152.322 19.5571 152.804 19.7475 153.007 19.7377C153.211 19.7278 152.982 17.0367 152.982 17.0367C152.982 17.0367 152.869 16.2732 152.815 16.0236C152.767 15.8102 152.57 15.1863 152.57 15.1863C152.57 15.1863 152.34 14.2799 152.625 14.211C152.792 14.1699 153.222 14.9071 153.516 15.6887C153.832 16.5293 154.016 17.4226 154.102 17.4094C154.316 17.3815 154.202 15.9071 154.202 15.9071C154.098 15.5836 154.028 15.25 153.996 14.9121C153.796 14.5213 153.662 13.7955 154.016 13.7364C154.081 13.7249 154.544 14.6461 154.544 14.6461C154.544 14.6461 154.727 15.2946 154.834 15.5967C155.021 16.132 155.049 16.976 155.147 17.347C155.229 17.6574 155.302 17.5309 155.336 17.5424C155.369 17.5539 155.316 17.1254 155.264 16.5392C155.267 16.2132 155.242 15.8875 155.189 15.5655C155.116 15.2267 155.069 14.8832 155.046 14.5377C154.989 13.7742 155.477 13.853 155.646 14.5508C155.711 14.8168 155.777 15.1074 155.844 15.4013C156.108 16.5507 156.099 17.6475 156.224 17.6557C156.391 17.6672 156.281 15.6608 156.281 15.6608C156.281 15.6608 156.529 14.5508 156.781 15.582C156.959 16.3065 157.044 17.05 157.034 17.7953C157.004 18.0793 157.219 19.1236 156.971 20.1301Z" fill="#F8A492"/>
<path id="Vector_34" d="M156.754 24.5272C156.754 24.5272 153.002 23.6439 152.967 23.9394C152.179 30.4398 151.826 32.791 151.692 32.8583C151.237 33.0882 145.212 27.66 144.136 27.2922C143.623 27.1165 143.063 27.1461 142.528 27.1609C141.25 27.1986 140.998 27.2035 140.998 27.2035H140.951V28.3874C142.39 29.6632 145.687 48.9952 145.965 48.982C146.275 48.9673 152.799 50.5829 152.676 50.0427C152.657 49.9541 148.259 46.4091 147.008 41.2913C146.59 39.5738 146.383 37.7234 146.157 36.1044C147.604 36.8203 153.259 39.5607 154.158 39.1995C156.951 38.0747 156.754 24.5272 156.754 24.5272Z" fill="#767676"/>
<path id="Vector_35" d="M167.976 58.8501C167.976 58.8501 174.038 63.5279 174.24 64.3571C174.531 65.5524 180.082 63.9811 178.74 63.7381C178.432 63.6823 177.447 63.436 177.365 63.3933C176.931 63.1651 171.531 56.7632 171.531 56.7632L167.976 58.8501Z" fill="#F7A491"/>
<path id="Vector_36" d="M181.352 63.7381L177.482 63.4277C177.482 63.4277 176.375 64.3308 174.248 64.3718C174.038 65.043 173.977 65.7509 174.069 66.4472C174.098 66.641 174.131 67.2239 174.328 67.2107C175.043 67.1631 176.948 66.6952 179.12 66.2683C179.12 66.2683 182.037 65.6591 183.722 64.6657C185.407 63.6724 181.352 63.7381 181.352 63.7381Z" fill="#767676"/>
<path id="Vector_37" d="M140.813 47.1236C143.929 47.5393 147.094 47.4053 150.162 46.7279C155.843 45.4144 162.125 44.2076 163.965 45.2617C165.447 46.1106 174.698 59.8748 174.698 59.8748L171.126 62.4428L160.938 51.2054C160.938 51.2054 147.937 55.9293 145.023 55.4071C138.376 54.2135 138.281 48.9839 140.813 47.1236Z" fill="#13375B"/>
<path id="Vector_38" d="M145.665 44.3389L150.107 49.5388L141.868 52.0116L140.813 47.117L145.665 44.3389Z" fill="#13375B"/>
<path id="Vector_39" d="M154.692 68.0894C154.692 68.0894 154.422 75.3138 154.256 76.5354C154.089 77.757 157.366 81.4201 156.948 80.1476C156.851 79.8554 156.603 78.8834 156.603 78.7931C156.603 78.3087 157.818 70.0695 157.818 70.0695L154.692 68.0894Z" fill="#F7A491"/>
<path id="Vector_40" d="M159.045 82.776L156.623 78.8994C156.623 78.8994 155.29 78.3691 154.244 76.5449C153.545 76.682 152.884 76.966 152.306 77.3774C152.139 77.4923 151.062 78.2739 151.139 78.4545C151.418 79.1113 152.894 80.5381 154.508 82.0897C154.508 82.0897 156.796 83.9073 158.485 84.8958C160.173 85.8842 159.045 82.776 159.045 82.776Z" fill="#767676"/>
<path id="Vector_41" d="M161.888 53.8556C160.335 51.8163 147.807 49.8805 147.807 49.8805L144.307 43.2651L136.583 47.9578C136.583 47.9578 137.354 54.0132 137.934 55.6305C138.706 57.7863 143.898 57.8963 147.069 57.8651C149.986 57.8356 155.314 58.4217 155.314 58.4217L153.516 74.0791C153.516 74.0791 157.06 74.8738 158.055 74.7441C158.17 74.7293 163.819 56.3874 161.888 53.8556Z" fill="#355389"/>
<path id="Vector_42" d="M140.993 27.2168L136.636 27.4565C136.636 27.4565 136.536 27.4877 136.504 27.4926C136.149 27.5583 136.472 40.0681 136.789 44.7411C137.106 49.414 137.748 51.3777 137.748 51.3777C137.748 51.3777 143.658 50.3433 145.473 49.6504C146.225 49.3614 148.047 47.1186 148.047 47.1186C148.047 47.1186 146.182 44.6606 145.248 40.6477C144.525 37.5609 143.633 32.0851 143.123 30.9423C141.951 28.3185 140.993 27.2168 140.993 27.2168Z" fill="#F7EB48"/>
<path id="Vector_43" d="M136.759 23.6668L136.636 27.4564C136.636 27.4564 139.456 32.2459 140.905 31.5776C142.12 31.0177 141.041 27.3759 141.041 27.3759C141.041 27.3759 140.831 26.5402 140.541 25.5813C140.336 24.9098 140.168 24.184 140.179 23.652C140.209 22.3566 136.759 23.6668 136.759 23.6668Z" fill="#F7A491"/>
<path id="Vector_44" d="M140.181 23.652C140.213 22.3566 136.763 23.6668 136.763 23.6668L136.751 24.0362C136.856 24.1987 136.986 24.3444 137.136 24.4681C138.092 25.195 139.293 25.5356 140.495 25.4204C140.308 24.848 140.203 24.2529 140.181 23.652Z" fill="#F47458"/>
<path id="Vector_45" d="M140.129 15.0205C140.129 15.0205 141.568 17.155 141.674 18.9611C141.749 19.9769 141.655 20.9979 141.396 21.9839L136.782 16.5508L140.129 15.0205Z" fill="#184655"/>
<path id="Vector_46" d="M142.153 18.585C142.218 19.2139 141.969 19.7541 141.598 19.7918C141.226 19.8296 140.873 19.3485 140.808 18.7196C140.743 18.0908 140.991 17.5506 141.363 17.5128C141.734 17.4751 142.088 17.9561 142.153 18.585Z" fill="#F48C7F"/>
<path id="Vector_47" d="M135.289 17.4128C135.184 17.3914 135.194 22.621 136.732 23.8508C138.271 25.0806 140.949 25.1906 141.733 23.9509C142.6 22.5799 141.776 17.068 139.488 15.9055C137.199 14.743 135.289 17.4128 135.289 17.4128Z" fill="#F7A491"/>
<path id="Vector_48" d="M134.899 14.1702C133.732 15.1849 133.155 15.9254 132.36 17.7299C131.384 19.9481 133.322 22.2468 134.949 23.1597C136.576 24.0726 136.709 25.176 136.709 25.176L136.778 24.4962C136.809 24.2882 136.802 24.0761 136.756 23.8707C136.698 23.6788 136.621 23.4933 136.524 23.3173C136.386 23.0267 135.942 22.0268 135.769 21.7641C135.311 21.0695 135.221 20.9185 135.446 20.2584C135.612 19.7494 135.419 18.628 135.687 17.7955L137.876 17.3292C137.876 17.3292 139.246 17.0008 139.938 16.2193C141.923 13.9567 137.998 11.4413 134.899 14.1702Z" fill="#184655"/>
<path id="Vector_49" d="M135.967 20.8297C136.235 21.4044 136.18 21.9939 135.842 22.1433C135.504 22.2927 135.009 21.9577 134.74 21.3847C134.472 20.8117 134.527 20.2206 134.865 20.0712C135.204 19.9218 135.697 20.2567 135.967 20.8297Z" fill="#F7A491"/>
<path id="Vector_50" d="M121.052 6.40371C121.302 7.41021 121.751 9.00123 121.751 9.00123C121.714 9.43798 121.584 11.2589 121.427 13.4903L124.761 12.1767C124.761 12.1767 124.721 8.54149 124.869 8.31983C124.996 8.13101 125.203 8.36581 126.228 6.92748C126.521 6.51207 126.576 5.77813 126.576 5.77813C126.576 5.77813 126.638 4.86522 126.429 4.77984C126.332 4.74736 126.225 4.75054 126.129 4.7888C126.034 4.82706 125.955 4.89787 125.908 4.98837C125.831 5.15256 125.851 5.51378 125.776 5.67141C125.701 5.82903 125.219 6.0195 125.016 6.00964C124.813 5.99979 125.041 3.30868 125.041 3.30868C125.041 3.30868 125.154 2.54518 125.208 2.29561C125.256 2.0838 125.453 1.45823 125.453 1.45823C125.453 1.45823 125.684 0.553527 125.398 0.484566C125.231 0.443518 124.801 1.1791 124.508 1.9623C124.191 2.80296 124.008 3.69453 123.921 3.68304C123.708 3.65512 123.821 2.17903 123.821 2.17903C123.926 1.85557 123.995 1.522 124.028 1.18403C124.228 0.793248 124.361 0.0691587 124.008 0.00840745C123.943 -0.00308602 123.479 0.918034 123.479 0.918034C123.479 0.918034 123.296 1.5748 123.189 1.87035C123.002 2.40398 122.974 3.24793 122.876 3.62064C122.794 3.92932 122.721 3.8029 122.687 3.81603C122.654 3.82917 122.707 3.39898 122.759 2.81117C122.757 2.48568 122.782 2.16054 122.834 1.83915C122.908 1.50049 122.955 1.15694 122.977 0.811309C123.034 0.0478137 122.546 0.126626 122.377 0.822802C122.314 1.08879 122.246 1.37941 122.179 1.67332C121.916 2.82267 121.924 3.91947 121.799 3.92932C121.632 3.94082 121.742 1.93439 121.742 1.93439C121.742 1.93439 121.494 0.822802 121.242 1.85393C121.066 2.57917 120.981 3.32311 120.989 4.06889C121.012 4.35294 120.804 5.39721 121.052 6.40371Z" fill="#F8A492"/>
<path id="Vector_51" d="M136.636 27.4566C136.636 27.4566 132.313 27.2563 131.2 26.7637C130.523 26.4633 124.971 22.0563 124.971 22.0563L125.034 10.2558L121.129 9.96191C121.129 9.96191 119.104 23.0037 119.806 24.4322C120.529 25.9099 128.656 31.9752 130.282 34.6121C131.218 36.1293 133.17 56.765 133.467 56.9423C135.569 58.0194 142.063 59.0965 141.909 58.443C137.681 40.3753 136.636 27.4566 136.636 27.4566Z" fill="#767676"/>
<path id="Vector_52" d="M59.103 80.5004C59.3513 81.5069 59.8014 83.0979 59.8014 83.0979C59.7647 83.5347 59.6347 85.3556 59.478 87.5869L62.8117 86.2734C62.8117 86.2734 62.7717 82.6382 62.92 82.4165C63.0467 82.2277 63.2534 82.4625 64.2768 81.0242C64.5718 80.6088 64.6269 79.8748 64.6269 79.8748C64.6269 79.8748 64.6885 78.9603 64.4802 78.8765C64.382 78.8439 64.2753 78.8471 64.1793 78.8853C64.0833 78.9236 64.0043 78.9944 63.9568 79.085C63.8818 79.2492 63.9018 79.6105 63.8268 79.7681C63.7518 79.9257 63.2701 80.1162 63.0667 80.1063C62.8633 80.0965 63.0917 77.4054 63.0917 77.4054C63.0917 77.4054 63.2051 76.6419 63.2584 76.3923C63.3084 76.1788 63.5051 75.5549 63.5051 75.5549C63.5051 75.5549 63.7351 74.6502 63.4501 74.5812C63.2834 74.5402 62.8534 75.2758 62.56 76.059C62.2433 76.8996 62.0599 77.7912 61.9733 77.7797C61.7599 77.7502 61.8733 76.2757 61.8733 76.2757C61.978 75.9522 62.0473 75.6187 62.0799 75.2807C62.28 74.8899 62.4133 74.1658 62.0599 74.1051C61.9949 74.0936 61.5299 75.0147 61.5299 75.0147C61.5299 75.0147 61.3482 75.6633 61.2415 75.967C61.0548 76.5007 61.0265 77.3446 60.9282 77.7173C60.8465 78.026 60.7731 77.8996 60.7398 77.9127C60.7065 77.9258 60.7598 77.4957 60.8115 76.9079C60.809 76.5818 60.8341 76.2561 60.8865 75.9342C60.9595 75.5961 61.0069 75.2531 61.0282 74.908C61.0865 74.1445 60.5981 74.2217 60.4298 74.9195C60.3648 75.1855 60.2981 75.4761 60.2298 75.77C59.9681 76.9193 59.9764 78.0162 59.8514 78.026C59.6847 78.0375 59.7947 76.0311 59.7947 76.0311C59.7947 76.0311 59.5464 74.9195 59.2947 75.9506C59.1175 76.6724 59.0329 77.4132 59.043 78.1557C59.068 78.4496 58.8546 79.4939 59.103 80.5004Z" fill="#F8A492"/>
<path id="Vector_53" d="M94.4363 77.8489C94.188 78.8554 93.7396 80.4465 93.7396 80.4465C93.7746 80.8832 93.9063 82.7041 94.0613 84.9338L90.7276 83.6203C90.7276 83.6203 90.7676 79.9851 90.6192 79.7634C90.4942 79.5746 90.2859 79.8094 89.2624 78.3711C88.9674 77.9557 88.9124 77.2135 88.9124 77.2135C88.9124 77.2135 88.8524 76.3006 89.0591 76.2169C89.1572 76.1843 89.264 76.1874 89.36 76.2256C89.456 76.2639 89.5349 76.3348 89.5825 76.4254C89.6575 76.5896 89.6375 76.9508 89.7141 77.1084C89.7908 77.266 90.2709 77.4565 90.4726 77.4467C90.6743 77.4368 90.4476 74.7457 90.4476 74.7457C90.4476 74.7457 90.3342 73.9822 90.2809 73.7326C90.2309 73.5192 90.0342 72.8952 90.0342 72.8952C90.0342 72.8952 89.8042 71.9905 90.0892 71.9199C90.2559 71.8805 90.6859 72.6161 90.981 73.3977C91.2977 74.24 91.481 75.1315 91.5677 75.1184C91.7794 75.0905 91.6677 73.616 91.6677 73.616C91.5621 73.2928 91.4928 72.9591 91.461 72.621C91.261 72.2303 91.1276 71.5045 91.4793 71.4454C91.5443 71.4339 92.0094 72.355 92.0094 72.355C92.0094 72.355 92.1911 73.0036 92.2977 73.3057C92.4861 73.841 92.5144 74.6849 92.6111 75.0577C92.6928 75.3663 92.7661 75.2399 92.7995 75.253C92.8328 75.2662 92.7811 74.836 92.7278 74.2482C92.7311 73.9221 92.706 73.5964 92.6528 73.2745C92.5799 72.9352 92.532 72.5912 92.5094 72.245C92.4511 71.4832 92.9395 71.5604 93.1078 72.2582C93.1728 72.5242 93.2395 72.8148 93.3079 73.1087C93.5695 74.258 93.5612 75.3548 93.6879 75.3631C93.8546 75.3762 93.7429 73.3681 93.7429 73.3681C93.7429 73.3681 93.9929 72.2582 94.243 73.2893C94.4217 74.0142 94.5068 74.7584 94.4963 75.5043C94.4713 75.7965 94.6847 76.8424 94.4363 77.8489Z" fill="#F8A492"/>
<path id="Vector_54" d="M73.6641 89.6623C73.6641 89.6623 75.3576 87.9038 76.7211 90.0432C77.0221 89.8822 77.3738 89.8397 77.7054 89.9241C78.037 90.0085 78.3238 90.2136 78.5079 90.498C78.5079 90.498 80.4048 89.9348 80.8665 92.7294C80.8665 92.7294 81.8416 92.5471 81.9699 93.6899C82.0523 94.3585 81.8892 95.0341 81.5099 95.5945C81.5099 95.5945 82.0583 96.0001 81.8099 97.0509C81.7658 97.2952 81.6516 97.5219 81.4809 97.7043C81.3102 97.8867 81.0901 98.0172 80.8465 98.0804C80.8465 98.0804 80.6448 99.5861 79.9814 100.039C79.318 100.492 78.4163 100.276 78.4163 100.276C78.4163 100.276 78.1762 101.097 77.4028 101.019C76.6294 100.942 75.6726 100.221 74.8075 100.548C73.9425 100.875 71.6939 100.529 71.6939 100.529C71.6939 100.529 69.172 99.4235 69.927 96.8834C69.927 96.8834 68.5936 95.7045 69.7604 94.2892C69.7604 94.2892 68.9136 92.0759 70.5938 90.7689C72.274 89.4619 73.6641 89.6623 73.6641 89.6623Z" fill="#07345A"/>
<path id="Vector_55" d="M85.3303 163.381C85.3303 163.381 87.1755 165.636 87.6355 165.913C88.0956 166.191 87.4305 169.465 86.1787 169.68C85.472 169.801 85.0803 169.036 85.0803 169.036L85.282 168.092L82.645 165.416L85.3303 163.381Z" fill="#F7A491"/>
<path id="Vector_56" d="M75.821 163.938C75.821 163.938 77.3595 166.401 77.7795 166.739C78.1996 167.077 77.1128 170.236 75.846 170.292C75.1292 170.323 74.8459 169.516 74.8459 169.516L75.1692 168.604L72.9023 165.618L75.821 163.938Z" fill="#F7A491"/>
<path id="Vector_57" d="M77.688 166.643C77.2612 167.184 76.8049 167.702 76.3211 168.194C75.87 168.596 75.3964 168.972 74.9027 169.322C74.9027 169.322 73.9992 170.936 73.7526 171.499C73.2042 172.752 72.5858 174.149 72.6758 174.852C72.7041 175.077 73.2175 175.315 73.6459 175.181C75.4294 174.642 79.9882 170.534 80.5632 169.434C81.2283 168.163 77.688 166.643 77.688 166.643Z" fill="#383838"/>
<path id="Vector_58" d="M64.6734 129.056C64.84 128.599 64.9984 128.177 65.1517 127.78C67.0469 128.187 69.1905 128.635 71.3924 129.093L71.6608 137.048C71.6608 136.434 70.0056 149.737 70.0056 149.737C70.0056 149.737 74.286 159.075 77.2147 164.515C76.0129 165.992 75.4495 166.468 73.7143 167.47C69.1672 162.103 63.2132 152.279 62.9715 150.647C62.8265 149.714 62.6982 134.528 64.6734 129.056Z" fill="#767676"/>
<path id="Vector_59" d="M81.6001 131.354C81.0217 137.554 79.7332 149.404 79.8416 150.358C80.1649 151.547 85.8955 162.508 86.9256 164.109C86.1072 165.324 84.8388 166.638 83.4753 167.001C83.2069 167.071 73.7493 153.814 73.2342 152.763C72.6508 151.573 71.6807 145.086 71.6624 137.052L71.394 129.097C75.0661 129.865 78.4414 130.62 81.6001 131.354Z" fill="#767676"/>
<path id="Vector_60" d="M69.5456 103.095L73.8661 103.68C73.8661 103.68 77.3315 103.762 77.7598 103.762C78.1882 103.762 80.9018 119.29 81.6886 125.133C82.4753 130.977 81.8653 132.013 81.8653 132.013C81.8653 132.013 76.3864 133.226 72.3326 132.873C68.1172 132.504 63.375 130.262 63.375 130.262C63.375 130.262 66.9787 119.033 67.6921 115.526C68.4055 112.019 69.5456 103.095 69.5456 103.095Z" fill="#B48BEA"/>
<path id="Vector_61" d="M59.0679 84.2837C59.0679 84.2837 58.7895 95.8609 59.2346 96.7475C59.8797 98.0348 67.1354 107.169 67.1354 107.169C67.1354 107.169 63.6684 121.454 62.2116 126.392C62.0649 126.885 61.4148 130.1 61.4148 130.412C61.4148 131.106 64.4818 131.987 64.8452 131.936C65.1785 131.888 67.8455 118.296 69.5557 111.645C70.1341 109.391 71.1273 107.26 72.486 105.359L73.6744 103.698L64.5585 94.6968C64.5585 94.6968 63.435 84.681 63.435 83.8486C63.4317 83.6318 59.5063 83.4676 59.0679 84.2837Z" fill="#383838"/>
<path id="Vector_62" d="M77.6032 103.742L88.9711 92.3321C88.9711 92.3321 90.5546 81.543 90.6662 81.1358C90.7779 80.7286 93.5999 80.5201 94.7383 80.4117C95.1033 80.3772 94.5466 91.9052 94.0032 93.8361C93.3598 96.1184 84.7673 106.518 84.7673 106.518C84.7673 106.518 83.2271 112.152 83.6005 116.283C84.2172 123.146 85.8774 132.586 85.579 132.881C83.7322 134.03 76.6415 134.15 76.1931 133.438C71.2359 125.576 77.6032 103.742 77.6032 103.742Z" fill="#383838"/>
<path id="Vector_63" d="M73.9493 101.609L73.6426 103.85C73.6426 103.85 72.9559 107.08 73.841 107.71C74.7261 108.341 77.5997 103.77 77.5997 103.77L77.2963 98.0903L73.9493 101.609Z" fill="#F7A491"/>
<path id="Vector_64" d="M77.3932 99.9197C76.6631 101.857 74.9246 103.048 73.6895 103.511L73.9495 101.609L77.2948 98.0791L77.3932 99.9197Z" fill="#F47458"/>
<path id="Vector_65" d="M81.9983 94.2187C81.9983 95.084 81.4982 95.7851 80.8832 95.7851C80.2681 95.7851 79.7681 95.084 79.7681 94.2187C79.7681 93.3535 80.2681 92.6523 80.8832 92.6523C81.4982 92.6523 81.9983 93.3551 81.9983 94.2187Z" fill="#07345A"/>
<path id="Vector_66" d="M77.2963 91.7526C78.0456 91.7526 78.6531 91.3498 78.6531 90.8529C78.6531 90.356 78.0456 89.9531 77.2963 89.9531C76.5469 89.9531 75.9395 90.356 75.9395 90.8529C75.9395 91.3498 76.5469 91.7526 77.2963 91.7526Z" fill="#07345A"/>
<path id="Vector_67" d="M75.2528 92.112C74.8319 91.9724 74.3852 91.9251 73.9439 91.9735C73.5025 92.022 73.0773 92.1649 72.698 92.3924C72.3188 92.6199 71.9946 92.9264 71.7483 93.2904C71.502 93.6543 71.3396 94.067 71.2723 94.4994C71.1284 95.4516 71.046 96.4119 71.0256 97.3744C70.9773 100.001 72.3591 102.541 73.5609 102.541C74.7627 102.541 78.1031 100.845 78.2281 97.1232C78.2981 94.8343 77.1346 92.7507 75.2528 92.112Z" fill="#F7A491"/>
<path id="Vector_68" d="M77.3413 97.424C77.3413 98.0019 77.7297 98.4699 78.2081 98.4699C78.6864 98.4699 79.0765 98.0019 79.0765 97.424C79.0765 96.846 78.6748 96.3813 78.2014 96.3813C77.728 96.3813 77.3413 96.846 77.3413 97.424Z" fill="#F7A491"/>
<path id="Vector_69" d="M70.0239 90.8099C68.7771 91.782 68.3404 93.2613 69.0488 94.1102C69.7572 94.9591 71.3407 94.8622 72.5875 93.8902C73.8343 92.9182 74.271 91.4388 73.5626 90.5883C72.8542 89.7377 71.2707 89.8363 70.0239 90.8099Z" fill="#07345A"/>
<path id="Vector_70" d="M74.441 92.3731C75.0798 92.3731 75.5978 92.0305 75.5978 91.6079C75.5978 91.1853 75.0798 90.8428 74.441 90.8428C73.8021 90.8428 73.2842 91.1853 73.2842 91.6079C73.2842 92.0305 73.8021 92.3731 74.441 92.3731Z" fill="#07345A"/>
<path id="Vector_71" d="M69.8403 94.8606C69.8426 95.0527 69.9026 95.2398 70.0126 95.3984C70.1226 95.557 70.2777 95.68 70.4585 95.7519C70.6393 95.8239 70.8377 95.8415 71.0287 95.8027C71.2196 95.7638 71.3947 95.6702 71.5317 95.5336C71.6688 95.3969 71.7618 95.2235 71.799 95.0349C71.8362 94.8464 71.816 94.6512 71.7408 94.4739C71.6657 94.2967 71.539 94.1453 71.3767 94.0388C71.2144 93.9323 71.0238 93.8755 70.8288 93.8755C70.5656 93.8785 70.3142 93.9836 70.1291 94.1681C69.9441 94.3525 69.8403 94.6013 69.8403 94.8606Z" fill="#07345A"/>
<path id="Vector_72" d="M87.5323 165.834C87.1787 166.424 86.7937 166.996 86.3788 167.545C85.9836 168.001 85.5623 168.434 85.117 168.842C85.117 168.842 84.4302 170.557 84.2586 171.141C83.8768 172.455 83.4451 174.038 83.6251 174.722C83.6818 174.942 84.1735 175.363 84.5786 175.103C86.1421 174.1 90.3192 169.402 90.7459 168.237C91.2393 166.892 87.5323 165.834 87.5323 165.834Z" fill="#383838"/>
<path id="Vector_73" d="M168.902 117.996C168.902 117.996 163.917 118.754 160.235 122.371C156.553 125.988 154.349 131.798 154.349 131.798L161.888 133.963C161.888 133.963 158.88 127.038 168.902 117.996Z" fill="#F7EB48"/>
<path id="Vector_74" d="M170.284 121.559L169.744 117.375L165.939 115.442C165.841 115.393 165.76 115.317 165.703 115.225C165.647 115.132 165.618 115.025 165.62 114.917C165.622 114.809 165.655 114.704 165.714 114.613C165.774 114.522 165.858 114.449 165.957 114.403L169.829 112.597L170.521 108.435C170.54 108.33 170.588 108.232 170.66 108.152C170.731 108.072 170.824 108.014 170.927 107.982C171.03 107.951 171.141 107.948 171.245 107.974C171.35 108.001 171.446 108.055 171.521 108.131L174.455 111.203L178.687 110.564C178.796 110.548 178.907 110.562 179.008 110.604C179.109 110.647 179.196 110.716 179.259 110.805C179.322 110.894 179.358 110.998 179.364 111.106C179.37 111.214 179.345 111.322 179.292 111.416L177.232 115.114L179.157 118.881C179.207 118.977 179.228 119.086 179.218 119.193C179.208 119.301 179.168 119.404 179.102 119.491C179.036 119.577 178.946 119.644 178.844 119.683C178.741 119.722 178.63 119.732 178.522 119.711L174.315 118.923L171.273 121.892C171.195 121.965 171.098 122.016 170.993 122.039C170.887 122.062 170.778 122.056 170.676 122.021C170.574 121.987 170.483 121.926 170.414 121.844C170.345 121.762 170.3 121.664 170.284 121.559Z" fill="#F7EB48"/>
<path id="Vector_75" d="M37.729 140.268C37.729 140.268 42.7145 141.025 46.3966 144.642C50.0786 148.259 52.2788 154.07 52.2788 154.07L44.7381 156.236C44.7381 156.236 47.7517 149.308 37.729 140.268Z" fill="#F7EB48"/>
<path id="Vector_76" d="M36.3473 143.833L36.889 139.649L40.6928 137.715C40.7904 137.665 40.8721 137.59 40.9285 137.497C40.985 137.405 41.0139 137.298 41.012 137.19C41.0101 137.082 40.9774 136.977 40.9177 136.886C40.8581 136.795 40.7738 136.723 40.6744 136.677L36.8024 134.871L36.1123 130.709C36.0947 130.602 36.0471 130.502 35.9748 130.42C35.9025 130.339 35.8084 130.279 35.7033 130.247C35.5981 130.215 35.486 130.213 35.3798 130.241C35.2736 130.269 35.1774 130.326 35.1022 130.405L32.1702 133.488L27.9381 132.85C27.8298 132.833 27.7189 132.847 27.6182 132.89C27.5174 132.932 27.4307 133.002 27.3678 133.09C27.3049 133.179 27.2683 133.282 27.2622 133.39C27.256 133.498 27.2806 133.605 27.3331 133.7L29.3933 137.398L27.4681 141.174C27.4212 141.271 27.4023 141.378 27.4133 141.484C27.4243 141.59 27.4649 141.691 27.5306 141.776C27.5963 141.861 27.6845 141.926 27.7856 141.965C27.8866 142.004 27.9965 142.014 28.1031 141.995L32.3086 141.205L35.3506 144.172C35.4284 144.249 35.5265 144.302 35.6337 144.327C35.7409 144.351 35.8528 144.345 35.9568 144.309C36.0607 144.274 36.1524 144.21 36.2214 144.126C36.2905 144.042 36.3341 143.94 36.3473 143.833Z" fill="#F7EB48"/>
<path id="Vector_77" d="M202.628 121.65L203.795 119.711L202.833 117.665C202.808 117.613 202.799 117.555 202.807 117.497C202.814 117.44 202.838 117.386 202.874 117.341C202.911 117.296 202.96 117.262 203.016 117.243C203.071 117.224 203.131 117.221 203.188 117.233L205.421 117.726L207.1 116.194C207.143 116.154 207.196 116.128 207.254 116.116C207.311 116.105 207.371 116.11 207.426 116.13C207.481 116.151 207.529 116.186 207.564 116.232C207.6 116.279 207.621 116.334 207.627 116.391L207.84 118.636L209.84 119.736C209.892 119.764 209.934 119.805 209.963 119.856C209.992 119.906 210.006 119.964 210.003 120.022C210 120.08 209.98 120.136 209.946 120.183C209.913 120.231 209.866 120.268 209.812 120.291L207.712 121.184L207.268 123.397C207.257 123.454 207.229 123.506 207.189 123.548C207.149 123.591 207.098 123.621 207.041 123.636C206.984 123.651 206.925 123.65 206.869 123.633C206.812 123.617 206.762 123.585 206.723 123.542L205.211 121.849L202.938 122.118C202.879 122.126 202.819 122.117 202.766 122.092C202.712 122.068 202.666 122.029 202.634 121.98C202.601 121.931 202.584 121.874 202.583 121.816C202.582 121.758 202.597 121.7 202.628 121.65Z" fill="#E0457B"/>
<path id="Vector_78" d="M90.1076 33.8795L91.5777 31.4314L90.3643 28.8503C90.3331 28.784 90.3214 28.7104 90.3306 28.6379C90.3397 28.5654 90.3693 28.4969 90.416 28.4401C90.4627 28.3833 90.5246 28.3406 90.5948 28.3167C90.6649 28.2929 90.7403 28.2889 90.8126 28.3051L93.6296 28.9258L95.7482 26.9916C95.8025 26.9414 95.87 26.9072 95.9431 26.8931C96.0162 26.8789 96.0918 26.8853 96.1614 26.9115C96.2309 26.9377 96.2916 26.9827 96.3365 27.0413C96.3813 27.0999 96.4085 27.1697 96.4149 27.2428L96.6766 30.0751L99.1985 31.4609C99.263 31.4964 99.3162 31.549 99.3521 31.6127C99.3879 31.6763 99.405 31.7486 99.4013 31.8214C99.3977 31.8941 99.3735 31.9644 99.3315 32.0243C99.2894 32.0842 99.2313 32.1313 99.1635 32.1604L96.5116 33.29L95.9532 36.0813C95.9384 36.1528 95.9038 36.2187 95.8531 36.2719C95.8024 36.325 95.7377 36.3632 95.6662 36.3821C95.5947 36.401 95.5193 36.4 95.4484 36.379C95.3775 36.3581 95.3139 36.3181 95.2648 36.2636L93.3562 34.1291L90.4893 34.4673C90.4162 34.4746 90.3425 34.4619 90.2764 34.4304C90.2103 34.399 90.1543 34.35 90.1148 34.2891C90.0752 34.2282 90.0536 34.1576 90.0523 34.0853C90.051 34.013 90.0702 33.9417 90.1076 33.8795Z" fill="#F7EB48"/>
<path id="Vector_79" d="M198.092 39.96L194.207 42.5148L196.38 46.2305L192.665 48.9117L194.297 52.7144L191.852 55.1691L193.112 56.3891L196.384 53.1069L194.839 49.5028L198.702 46.7116L196.565 43.0583L200.086 40.7432L198.092 39.96Z" fill="#E0457B"/>
<path id="Vector_80" d="M204.06 101.512L201.311 97.7934L197.631 100.082L194.759 96.5357L190.968 98.2958L188.38 95.9873L187.193 97.2795L190.657 100.366L194.249 98.6981L197.236 102.388L200.856 100.136L203.346 103.507L204.06 101.512Z" fill="#9B4DEE"/>
<path id="Vector_81" d="M75.2612 24.4649L76.1946 19.9579L71.9959 18.8266L72.716 14.3458L68.8389 12.7777L68.8206 9.33789L67.0537 9.3461L67.077 13.9468L70.7508 15.4344L70.0023 20.0941L74.1311 21.2074L73.286 25.2925L75.2612 24.4649Z" fill="#E0457B"/>
<path id="Vector_82" d="M38.9455 30.4614L40.7224 33.7321L44.5578 33.5203L46.2863 37.3247L50.3 35.8601L52.4486 40.0782L56.314 39.1768L59.0559 42.9023L57.6241 43.9236L55.5739 41.1389L51.4952 42.0895L49.43 38.034L45.3495 39.5248L43.441 35.3264L39.6956 35.5333L38.0488 32.5007L35.6185 33.1427L35.1602 31.4614L38.9455 30.4614Z" fill="#F7EB48"/>
<path id="Vector_83" d="M22.4042 56.2838L19.5739 56.5679L18.6088 52.1314L14.4183 52.0427L13.1449 48.8394L11.498 49.4748L13.2016 53.7586L17.172 53.8423L18.1771 58.4578L22.4358 58.0309L22.4042 56.2838Z" fill="#E0457B"/>
<path id="Vector_84" d="M17.3119 104.376L16.2535 106.977L11.8164 105.76L9.79115 109.376L6.32079 109L6.12744 110.73L10.7696 111.233L12.6898 107.808L17.3053 109.073L18.8988 105.159L17.3119 104.376Z" fill="#E0457B"/>
<path id="Vector_85" d="M195.119 78.4661L196.495 80.7205C196.529 80.7754 196.578 80.82 196.636 80.8491C196.694 80.8782 196.76 80.8908 196.825 80.8853C196.89 80.8798 196.952 80.8566 197.004 80.8182C197.056 80.7798 197.097 80.7277 197.12 80.668L198.097 78.2198L200.699 77.6271C200.763 77.6124 200.821 77.5806 200.867 77.5352C200.913 77.4899 200.945 77.4328 200.96 77.3704C200.975 77.3079 200.972 77.2426 200.951 77.1818C200.93 77.121 200.893 77.0671 200.843 77.0262L198.782 75.353L199.012 72.726C199.019 72.6615 199.008 72.5964 198.979 72.5381C198.95 72.4798 198.905 72.4307 198.849 72.3964C198.794 72.3621 198.729 72.344 198.663 72.3442C198.597 72.3445 198.533 72.3629 198.477 72.3976L196.225 73.8113L193.765 72.7851C193.705 72.7605 193.639 72.7529 193.575 72.7631C193.511 72.7733 193.451 72.8009 193.402 72.8429C193.353 72.8848 193.316 72.9394 193.297 73.0005C193.277 73.0617 193.276 73.1269 193.292 73.189L193.958 75.7356L192.208 77.7223C192.165 77.7708 192.137 77.8301 192.127 77.8935C192.117 77.957 192.125 78.022 192.15 78.0812C192.175 78.1404 192.217 78.1914 192.27 78.2284C192.324 78.2654 192.387 78.2869 192.452 78.2905L195.119 78.4661Z" fill="#FED333"/>
<path id="Vector_86" d="M190.283 130.096C190.283 130.408 190.189 130.712 190.014 130.97C189.838 131.229 189.589 131.431 189.297 131.55C189.005 131.669 188.684 131.7 188.374 131.639C188.064 131.578 187.78 131.428 187.556 131.208C187.333 130.988 187.181 130.707 187.12 130.402C187.058 130.097 187.09 129.781 187.211 129.493C187.332 129.206 187.537 128.96 187.8 128.788C188.063 128.615 188.372 128.523 188.688 128.523C188.898 128.523 189.105 128.564 189.299 128.643C189.493 128.722 189.669 128.838 189.817 128.984C189.965 129.13 190.083 129.303 190.163 129.494C190.243 129.685 190.283 129.89 190.283 130.096Z" fill="#9B4DEE"/>
<path id="Vector_87" d="M3.45869 82.4248C3.45869 83.2934 2.68361 83.9978 1.73018 83.9978C0.776747 83.9978 0 83.2984 0 82.4248C0 81.5513 0.77508 80.8535 1.73018 80.8535C2.68528 80.8535 3.45869 81.5628 3.45869 82.4248Z" fill="#F7EB48"/>
<path id="Vector_88" d="M93.8862 7.2113L95.9814 7.6185C95.9814 7.6185 99.045 6.20973 99.2784 5.52997C99.5118 4.85021 99.4034 3.28546 99.8518 3.18695C100.028 3.1423 100.212 3.13238 100.393 3.15774C100.573 3.1831 100.747 3.24325 100.903 3.33475C101.06 3.42624 101.197 3.54729 101.306 3.69097C101.416 3.83465 101.495 3.99814 101.54 4.1721C101.79 4.92574 100.924 7.29997 101.132 7.51506C101.264 7.6497 102.465 7.91897 103.339 8.09958C103.624 8.15978 103.886 8.29616 104.097 8.49372C104.308 8.69128 104.46 8.94237 104.536 9.21938C104.589 9.40673 104.576 9.60632 104.498 9.78535C104.421 9.96439 104.284 10.1122 104.111 10.2045L103.559 10.4968L103.819 11.0633C103.912 11.2664 103.921 11.4972 103.843 11.7067C103.766 11.9161 103.609 12.0876 103.405 12.1847L102.977 12.3866L103.165 12.7282C103.223 12.8326 103.257 12.9475 103.267 13.0657C103.277 13.1838 103.262 13.3028 103.222 13.4149C103.183 13.527 103.121 13.63 103.039 13.7172C102.958 13.8045 102.859 13.8741 102.749 13.9218L102.372 14.086L102.402 14.1878C102.46 14.3905 102.44 14.6072 102.347 14.7965C102.253 14.9858 102.092 15.1344 101.894 15.214L101.517 15.3618L95.9364 14.2765C95.4128 14.1745 94.9166 13.9659 94.4796 13.6641L92.5827 12.9564C92.483 12.919 92.4002 12.8475 92.3497 12.7549C92.2992 12.6623 92.2843 12.5549 92.3077 12.4523L93.3678 7.55282C93.3915 7.44034 93.4591 7.34153 93.5561 7.27766C93.653 7.21379 93.7716 7.18996 93.8862 7.2113Z" fill="#9B4DEE"/>
</g>
</g>
</g>
<defs>
<clipPath id="clip0_861_54209">
<rect width="210" height="242" fill="white"/>
</clipPath>
</defs>
</svg>
