<svg width="106" height="90" viewBox="0 0 106 90" fill="none" xmlns="http://www.w3.org/2000/svg">
<g id="vetor qd_2 1" clip-path="url(#clip0_1050_92918)">
<g id="Camada 2">
<g id="Layer 1">
<path id="Vector" d="M78.3957 30.449C78.2998 30.9019 78.2123 31.3708 77.975 31.7503C77.5712 32.2405 77.1881 32.7465 76.8257 33.2683C77.0781 33.2497 77.3305 33.2388 77.5829 33.2388C80.0784 33.2388 82.4014 34.1192 84.122 35.719C85.6608 37.1485 86.508 38.9811 86.508 40.8795C86.508 42.7778 85.6608 44.6096 84.122 46.039C82.4014 47.6414 80.0784 48.5202 77.5829 48.5202C75.0875 48.5202 72.7771 47.6397 71.0565 46.0466L70.6813 47.1581C69.8399 47.5857 69.251 48.5918 69.251 49.7666C69.251 51.3285 70.2968 52.5952 71.5874 52.5952C72.597 52.5952 73.4628 51.8109 73.785 50.7162C75.0103 51.1246 76.2933 51.3322 77.5846 51.331C83.798 51.331 88.8361 46.6496 88.8361 40.8736C88.8335 35.3547 84.2296 30.8369 78.3957 30.449Z" fill="#7734CE"/>
<path id="Vector_2" d="M27.9383 30.449C28.0342 30.9019 28.1217 31.3708 28.359 31.7503C28.7634 32.2405 29.1465 32.7465 29.5083 33.2683C29.2559 33.2497 29.0077 33.2388 28.7511 33.2388C26.2556 33.2388 23.9326 34.1192 22.212 35.719C20.6732 37.1485 19.8259 38.9811 19.8259 40.8795C19.8259 42.7778 20.6732 44.6096 22.212 46.039C23.9326 47.6414 26.2556 48.5202 28.7511 48.5202C31.2465 48.5202 33.5569 47.6431 35.2766 46.0517C35.402 46.4228 35.529 46.7921 35.6519 47.1632C36.4932 47.5908 37.0822 48.5969 37.0822 49.7717C37.0822 51.3335 36.0364 52.6003 34.7466 52.6003C33.7319 52.6003 32.8703 51.8159 32.5481 50.7213C31.3228 51.1297 30.0398 51.3373 28.7485 51.3361C22.5351 51.3361 17.4971 46.6547 17.4971 40.8786C17.5004 35.3547 22.1043 30.8369 27.9383 30.449Z" fill="#7734CE"/>
<path id="Vector_3" d="M80.0126 29.2581V32.1448C80.0126 45.1922 69.4578 55.7719 56.4412 55.7719C50.4457 55.6927 46.3323 56.3134 40.6397 53.7876C32.4398 50.1789 26.5352 41.9217 26.5352 32.1448V29.2581H80.0126Z" fill="#9B4DEE"/>
<path id="Vector_4" d="M40.6418 53.7876L40.6594 53.7951L49.1353 29.2581H40.3128L33.5205 48.9291C35.5768 50.9728 37.9907 52.6197 40.6418 53.7876Z" fill="#B48BEA"/>
<path id="Vector_5" d="M46.1543 55.4431L55.0954 29.2581H50.664L42.0889 54.3762C43.4058 54.8649 44.7675 55.2222 46.1543 55.4431Z" fill="#B48BEA"/>
<path id="Vector_6" d="M32.6617 48.03L39.3479 29.2581H37.2445L31.1943 46.243C31.6537 46.8626 32.1428 47.4583 32.6617 48.03Z" fill="#B48BEA"/>
<path id="Vector_7" d="M77.6803 27.6211H29.0045C27.2284 27.6211 25.7804 28.612 25.6777 29.861H81.007C80.9052 28.612 79.4564 27.6211 77.6803 27.6211Z" fill="#7734CE"/>
<path id="Vector_8" d="M44.2373 55.0813L46.9911 69.252H59.0342L62.4468 55.0813H44.2373Z" fill="#9B4DEE"/>
<path id="Vector_9" d="M62.4468 55.0823L61.6769 58.2802H44.8599L44.2373 55.0823H62.4468Z" fill="#7734CE"/>
<path id="Vector_10" d="M62.4468 86.7842H44.2373L45.6028 79.7499L46.9902 72.6118H59.0351L60.7548 79.7499L62.4468 86.7842Z" fill="#9B4DEE"/>
<path id="Vector_11" d="M62.4468 86.7843H44.2373L45.6028 79.75H60.7548L62.4468 86.7843Z" fill="#7734CE"/>
<path id="Vector_12" d="M44.8786 69.2529H61.147C61.3176 69.2529 61.4866 69.2866 61.6442 69.352C61.8018 69.4175 61.945 69.5134 62.0656 69.6343C62.1862 69.7552 62.2819 69.8988 62.3472 70.0568C62.4125 70.2147 62.4461 70.3841 62.4461 70.5551V71.309C62.4461 71.6544 62.3092 71.9857 62.0657 72.23C61.8221 72.4744 61.4916 72.6118 61.147 72.612H44.8786C44.5344 72.6111 44.2046 72.4734 43.9616 72.2292C43.7185 71.9849 43.582 71.654 43.582 71.309V70.5542C43.5823 70.2095 43.7189 69.8789 43.9619 69.6349C44.205 69.391 44.5346 69.2536 44.8786 69.2529Z" fill="#7734CE"/>
<path id="Vector_13" d="M43.0341 81.1973H63.0357C63.2365 81.1973 63.4291 81.2772 63.5711 81.4196C63.7131 81.5619 63.7929 81.755 63.7929 81.9563V85.8289H42.2803V81.9529C42.2812 81.7528 42.3609 81.5611 42.5021 81.4196C42.6432 81.2781 42.8345 81.1982 43.0341 81.1973Z" fill="#9B4DEE"/>
<path id="Vector_14" d="M70.8977 88.5916V89.9992H35.1729V88.5916C35.1729 86.969 36.1606 85.6526 37.378 85.6526H68.6925C69.9099 85.6526 70.8977 86.969 70.8977 88.5916Z" fill="#9B4DEE"/>
<path id="Vector_15" d="M43.5836 85.6526L42.4528 89.9992H40.9619L42.0927 85.6526H43.5836Z" fill="#B48BEA"/>
<path id="Vector_16" d="M41.4495 85.6526L40.3187 89.9992H38.8262L39.9586 85.6526H41.4495Z" fill="#B48BEA"/>
<path id="Vector_17" d="M45.4818 85.6526L44.351 89.9992H42.8584L43.9909 85.6526H45.4818Z" fill="#B48BEA"/>
<path id="Vector_18" d="M68.5919 52.4038V53.4681C68.5921 53.9052 68.5064 54.3381 68.3397 54.7421C68.1731 55.146 67.9286 55.5131 67.6204 55.8223C67.3122 56.1316 66.9462 56.377 66.5434 56.5444C66.1406 56.7119 65.7088 56.7983 65.2727 56.7985H41.2941C40.8576 56.7988 40.4254 56.7129 40.0221 56.5457C39.6188 56.3784 39.2523 56.1331 38.9437 55.8238C38.635 55.5145 38.3902 55.1473 38.2232 54.743C38.0563 54.3388 37.9705 53.9056 37.9707 53.4681V52.4038H68.5919Z" fill="#9B4DEE"/>
<path id="Vector_19" d="M79.233 10.3395C79.1076 10.8573 78.8805 11.6736 78.8805 11.6736C78.899 11.8988 78.9646 12.8341 79.0437 13.9793L77.361 13.3047C77.361 13.3047 77.3812 11.4375 77.3063 11.3236C77.2423 11.2267 77.138 11.3473 76.6206 10.6085C76.4725 10.3951 76.4447 10.0181 76.4447 10.0181C76.4447 10.0181 76.4136 9.54924 76.5188 9.50539C76.5683 9.48895 76.6221 9.49079 76.6703 9.51059C76.7186 9.53038 76.7583 9.56682 76.7821 9.61334C76.8208 9.69767 76.8107 9.88321 76.8486 9.96417C76.8864 10.0451 77.1296 10.143 77.2322 10.1379C77.3349 10.1328 77.2196 8.7506 77.2196 8.7506C77.2196 8.7506 77.1624 8.35844 77.1355 8.23025C77.1111 8.12062 77.0118 7.80015 77.0118 7.80015C77.0118 7.80015 76.8957 7.33462 77.0396 7.2992C77.1237 7.27812 77.3408 7.65678 77.4889 8.05821C77.6487 8.49 77.7413 8.94878 77.785 8.94203C77.8927 8.9277 77.8355 8.17037 77.8355 8.17037C77.7826 8.00423 77.7477 7.83291 77.7312 7.65931C77.6302 7.45859 77.5629 7.08584 77.7413 7.05547C77.7741 7.04957 78.008 7.52269 78.008 7.52269C78.008 7.52269 78.1005 7.85581 78.1544 8.01098C78.2486 8.28591 78.2629 8.71939 78.3125 8.90999C78.3538 9.06938 78.3908 9.00444 78.4076 9.01035C78.4244 9.01625 78.3975 8.79614 78.3714 8.49506C78.3727 8.3276 78.36 8.16032 78.3336 7.99496C78.2969 7.82094 78.2727 7.64451 78.2612 7.46703C78.2326 7.07487 78.4791 7.11535 78.5641 7.47377C78.5969 7.61039 78.6306 7.75967 78.6642 7.91063C78.7972 8.50097 78.793 9.06432 78.8561 9.06854C78.9402 9.07444 78.8847 8.04387 78.8847 8.04387C78.8847 8.04387 79.01 7.47377 79.1371 8.00339C79.2267 8.37552 79.2697 8.75742 79.265 9.14022C79.2498 9.28612 79.3584 9.82249 79.233 10.3395Z" fill="#F8A492"/>
<path id="Vector_20" d="M79.1234 12.5979C79.1234 12.5979 77.2295 12.1442 77.2118 12.296C76.8139 15.6348 76.6355 16.8424 76.5682 16.877C76.3385 16.9951 73.297 14.207 72.7543 14.0181C72.4952 13.9278 72.2125 13.943 71.9424 13.9506C71.2971 13.97 71.17 13.9725 71.17 13.9725H71.1465V14.5806C71.8726 15.2359 73.5368 25.1654 73.6773 25.1586C73.8338 25.1511 77.1269 25.9809 77.0646 25.7034C77.0553 25.6579 74.835 23.8371 74.204 21.2084C73.9928 20.3263 73.8885 19.3758 73.774 18.5443C74.5043 18.912 77.3591 20.3195 77.8126 20.134C79.2227 19.5563 79.1234 12.5979 79.1234 12.5979Z" fill="#767676"/>
<path id="Vector_21" d="M84.7881 30.2272C84.7881 30.2272 87.8481 32.6299 87.9499 33.0557C88.0971 33.6697 90.8988 32.8626 90.2216 32.7378C90.0659 32.7091 89.5687 32.5826 89.5274 32.5607C89.3087 32.4435 86.5827 29.1553 86.5827 29.1553L84.7881 30.2272Z" fill="#F7A491"/>
<path id="Vector_22" d="M91.5399 32.7378L89.5863 32.5784C89.5863 32.5784 89.0276 33.0422 87.9541 33.0633C87.8479 33.408 87.8172 33.7716 87.864 34.1293C87.8783 34.2288 87.8952 34.5282 87.9944 34.5214C88.3554 34.497 89.3171 34.2566 90.4134 34.0374C90.4134 34.0374 91.8857 33.7245 92.7363 33.2143C93.587 32.704 91.5399 32.7378 91.5399 32.7378Z" fill="#767676"/>
<path id="Vector_23" d="M71.0766 24.204C72.6493 24.4175 74.2472 24.3487 75.7958 24.0007C78.6631 23.3261 81.8342 22.7062 82.7631 23.2476C83.511 23.6837 88.1806 30.7534 88.1806 30.7534L86.3775 32.0724L81.2352 26.3005C81.2352 26.3005 74.6726 28.7268 73.2019 28.4587C69.8466 27.8456 69.7986 25.1595 71.0766 24.204Z" fill="#13375B"/>
<path id="Vector_24" d="M73.5263 22.7737L75.7686 25.4446L71.6097 26.7146L71.0771 24.2006L73.5263 22.7737Z" fill="#13375B"/>
<path id="Vector_25" d="M78.0829 34.9727C78.0829 34.9727 77.9466 38.6834 77.8625 39.3108C77.7783 39.9383 79.4324 41.8198 79.2213 41.1662C79.1725 41.0161 79.0471 40.5168 79.0471 40.4704C79.0471 40.2216 79.6604 35.9897 79.6604 35.9897L78.0829 34.9727Z" fill="#F7A491"/>
<path id="Vector_26" d="M80.2796 42.5164L79.0571 40.5253C79.0571 40.5253 78.3841 40.2529 77.8565 39.3159C77.5035 39.3863 77.1698 39.5322 76.878 39.7435C76.7939 39.8025 76.2504 40.204 76.2891 40.2967C76.4296 40.6341 77.175 41.3669 77.9895 42.1639C77.9895 42.1639 79.1446 43.0975 79.9969 43.6052C80.8492 44.1129 80.2796 42.5164 80.2796 42.5164Z" fill="#767676"/>
<path id="Vector_27" d="M81.7149 27.6617C80.9307 26.6143 74.6071 25.62 74.6071 25.62L72.8403 22.2222L68.9414 24.6324C68.9414 24.6324 69.331 27.7427 69.6237 28.5734C70.0133 29.6807 72.6341 29.7372 74.2344 29.7212C75.7068 29.706 78.3966 30.0071 78.3966 30.0071L77.4887 38.0492C77.4887 38.0492 79.2775 38.4574 79.7798 38.3908C79.8378 38.3832 82.6892 28.9622 81.7149 27.6617Z" fill="#355389"/>
<path id="Vector_28" d="M71.1682 13.9792L68.9689 14.1024C68.9689 14.1024 68.9184 14.1184 68.9025 14.1209C68.7233 14.1547 68.8865 20.5801 69.0463 22.9803C69.2062 25.3804 69.5301 26.3891 69.5301 26.3891C69.5301 26.3891 72.5136 25.8577 73.4298 25.5019C73.8093 25.3534 74.7289 24.2014 74.7289 24.2014C74.7289 24.2014 73.7874 22.9389 73.3162 20.8778C72.9511 19.2923 72.5009 16.4798 72.2435 15.8928C71.652 14.5451 71.1682 13.9792 71.1682 13.9792Z" fill="#F7EB48"/>
<path id="Vector_29" d="M69.031 12.1559L68.9688 14.1023C68.9688 14.1023 70.3923 16.5623 71.1235 16.2191C71.7368 15.9315 71.1925 14.061 71.1925 14.061C71.1925 14.061 71.0865 13.6317 70.9401 13.1392C70.8366 12.7943 70.7516 12.4215 70.7575 12.1483C70.7726 11.4829 69.031 12.1559 69.031 12.1559Z" fill="#F7A491"/>
<path id="Vector_30" d="M70.7579 12.1483C70.7739 11.4829 69.0323 12.1559 69.0323 12.1559L69.0264 12.3456C69.0794 12.4291 69.145 12.5039 69.2207 12.5674C69.7031 12.9408 70.3094 13.1157 70.9161 13.0566C70.8219 12.7625 70.7686 12.4569 70.7579 12.1483Z" fill="#F47458"/>
<path id="Vector_31" d="M70.7324 7.71484C70.7324 7.71484 71.4585 8.81119 71.5123 9.73887C71.5501 10.2606 71.5026 10.785 71.3718 11.2915L69.043 8.50084L70.7324 7.71484Z" fill="#184655"/>
<path id="Vector_32" d="M71.7535 9.54591C71.7863 9.86891 71.661 10.1464 71.4734 10.1658C71.2857 10.1852 71.1074 9.93807 71.0746 9.61507C71.0417 9.29207 71.1671 9.01461 71.3547 8.99521C71.5423 8.97581 71.7207 9.22291 71.7535 9.54591Z" fill="#F48C7F"/>
<path id="Vector_33" d="M68.2887 8.94357C68.2357 8.93261 68.2407 11.6187 69.0173 12.2503C69.7939 12.882 71.1459 12.9385 71.5414 12.3018C71.9789 11.5976 71.5632 8.76647 70.408 8.16938C69.2529 7.5723 68.2887 8.94357 68.2887 8.94357Z" fill="#F7A491"/>
<path id="Vector_34" d="M68.092 7.27806C67.503 7.79924 67.2119 8.17959 66.8106 9.10643C66.3176 10.2458 67.2961 11.4265 68.1172 11.8954C68.9384 12.3643 69.0057 12.931 69.0057 12.931L69.0402 12.5818C69.0563 12.475 69.0526 12.3661 69.0293 12.2605C69.0003 12.162 68.9611 12.0667 68.9123 11.9763C68.8425 11.8271 68.6187 11.3135 68.5312 11.1785C68.2998 10.8218 68.2544 10.7442 68.368 10.4052C68.4521 10.1437 68.3545 9.56774 68.49 9.14016L69.5947 8.90065C69.5947 8.90065 70.2863 8.73198 70.6354 8.33055C71.6375 7.16842 69.6561 5.87642 68.092 7.27806Z" fill="#184655"/>
<path id="Vector_35" d="M68.6308 10.6986C68.7663 10.9938 68.7385 11.2966 68.5677 11.3733C68.3969 11.4501 68.1471 11.278 68.0116 10.9837C67.8761 10.6894 67.9039 10.3858 68.0747 10.309C68.2455 10.2323 68.4945 10.4043 68.6308 10.6986Z" fill="#F7A491"/>
<path id="Vector_36" d="M61.1031 3.28903C61.2293 3.806 61.4557 4.6232 61.4557 4.6232C61.4371 4.84753 61.3715 5.7828 61.2924 6.92891L62.9752 6.25423C62.9752 6.25423 62.955 4.38706 63.0298 4.27321C63.0938 4.17623 63.1981 4.29683 63.7155 3.55806C63.8636 3.34469 63.8914 2.96772 63.8914 2.96772C63.8914 2.96772 63.9225 2.49882 63.8174 2.45496C63.7679 2.43828 63.7142 2.43991 63.6659 2.45956C63.6175 2.47922 63.5779 2.51559 63.554 2.56207C63.5153 2.6464 63.5254 2.83194 63.4875 2.9129C63.4497 2.99386 63.2065 3.09169 63.1039 3.08663C63.0012 3.08157 63.1165 1.69933 63.1165 1.69933C63.1165 1.69933 63.1737 1.30717 63.2006 1.17898C63.225 1.07019 63.3243 0.748878 63.3243 0.748878C63.3243 0.748878 63.4413 0.284195 63.2965 0.248775C63.2124 0.227691 62.9953 0.60551 62.8473 1.00778C62.6874 1.43958 62.5949 1.89751 62.5511 1.89161C62.4434 1.87727 62.5006 1.11911 62.5006 1.11911C62.5535 0.952966 62.5885 0.781636 62.605 0.60804C62.7059 0.407324 62.7732 0.0354089 62.5949 0.00420518C62.562 -0.00169823 62.3281 0.471418 62.3281 0.471418C62.3281 0.471418 62.2356 0.808756 62.1818 0.960558C62.0875 1.23464 62.0732 1.66812 62.0236 1.85956C61.9823 2.01811 61.9453 1.95317 61.9285 1.95992C61.9117 1.96667 61.9386 1.74571 61.9647 1.44379C61.9634 1.27661 61.9761 1.10961 62.0025 0.944534C62.0396 0.770586 62.0638 0.594127 62.0749 0.416601C62.1035 0.0244454 61.857 0.064926 61.772 0.422504C61.74 0.559126 61.7055 0.708398 61.6719 0.859356C61.539 1.4497 61.5432 2.01305 61.4801 2.01811C61.3959 2.02401 61.4515 0.993448 61.4515 0.993448C61.4515 0.993448 61.3261 0.422504 61.199 0.952124C61.1099 1.32463 61.0669 1.70674 61.0712 2.0898C61.0829 2.23569 60.9778 2.77206 61.1031 3.28903Z" fill="#F8A492"/>
<path id="Vector_37" d="M68.9682 14.1023C68.9682 14.1023 66.7866 13.9994 66.2246 13.7464C65.883 13.5921 63.0804 11.3285 63.0804 11.3285L63.1124 5.26741L61.1411 5.11646C61.1411 5.11646 60.1188 11.8151 60.473 12.5488C60.8382 13.3079 64.9406 16.4232 65.761 17.7776C66.2338 18.5568 67.219 29.156 67.3688 29.2471C68.4297 29.8003 71.7077 30.3535 71.6303 30.0179C69.4958 20.7377 68.9682 14.1023 68.9682 14.1023Z" fill="#767676"/>
<path id="Vector_38" d="M29.8328 41.3474C29.9582 41.8644 30.1854 42.6816 30.1854 42.6816C30.1668 42.9059 30.1012 43.8412 30.0221 44.9873L31.7048 44.3126C31.7048 44.3126 31.6847 42.4454 31.7595 42.3316C31.8235 42.2346 31.9278 42.3552 32.4444 41.6164C32.5933 41.403 32.6211 41.0261 32.6211 41.0261C32.6211 41.0261 32.6522 40.5563 32.547 40.5133C32.4975 40.4966 32.4436 40.4982 32.3952 40.5178C32.3467 40.5375 32.3069 40.5739 32.2829 40.6204C32.245 40.7048 32.2551 40.8903 32.2172 40.9713C32.1794 41.0522 31.9362 41.15 31.8336 41.145C31.7309 41.1399 31.8462 39.7577 31.8462 39.7577C31.8462 39.7577 31.9034 39.3655 31.9303 39.2373C31.9556 39.1277 32.0549 38.8072 32.0549 38.8072C32.0549 38.8072 32.171 38.3425 32.0271 38.3071C31.943 38.286 31.7259 38.6639 31.5778 39.0661C31.4179 39.4979 31.3254 39.9559 31.2816 39.95C31.174 39.9348 31.2312 39.1775 31.2312 39.1775C31.284 39.0113 31.319 38.84 31.3355 38.6664C31.4365 38.4657 31.5038 38.0938 31.3254 38.0626C31.2926 38.0567 31.0578 38.5298 31.0578 38.5298C31.0578 38.5298 30.9661 38.8629 30.9123 39.0189C30.8181 39.293 30.8038 39.7265 30.7541 39.9179C30.7129 40.0765 30.6759 40.0115 30.659 40.0183C30.6422 40.025 30.6691 39.8041 30.6952 39.5021C30.694 39.3347 30.7067 39.1674 30.7331 39.002C30.77 38.8284 30.7939 38.6522 30.8046 38.475C30.834 38.0828 30.5875 38.1224 30.5026 38.4809C30.4697 38.6175 30.4361 38.7667 30.4016 38.9177C30.2695 39.508 30.2737 40.0714 30.2106 40.0765C30.1265 40.0824 30.182 39.0518 30.182 39.0518C30.182 39.0518 30.0566 38.4809 29.9296 39.0105C29.8401 39.3812 29.7975 39.7617 29.8025 40.1431C29.8152 40.294 29.7075 40.8304 29.8328 41.3474Z" fill="#F8A492"/>
<path id="Vector_39" d="M47.6683 39.9854C47.543 40.5024 47.3166 41.3196 47.3166 41.3196C47.3343 41.5439 47.4008 42.4792 47.479 43.6244L45.7963 42.9498C45.7963 42.9498 45.8165 41.0826 45.7416 40.9687C45.6785 40.8718 45.5733 40.9923 45.0568 40.2536C44.9078 40.0402 44.8801 39.659 44.8801 39.659C44.8801 39.659 44.8498 39.1901 44.9541 39.1471C45.0036 39.1304 45.0575 39.132 45.106 39.1516C45.1544 39.1713 45.1943 39.2077 45.2183 39.2542C45.2562 39.3385 45.2461 39.5241 45.2848 39.605C45.3235 39.686 45.5658 39.7838 45.6676 39.7788C45.7694 39.7737 45.655 38.3915 45.655 38.3915C45.655 38.3915 45.5977 37.9993 45.5708 37.8711C45.5456 37.7615 45.4463 37.441 45.4463 37.441C45.4463 37.441 45.3302 36.9763 45.4741 36.9401C45.5582 36.9198 45.7753 37.2976 45.9242 37.6991C46.084 38.1317 46.1766 38.5897 46.2203 38.5829C46.3272 38.5686 46.2708 37.8112 46.2708 37.8112C46.2175 37.6452 46.1826 37.4738 46.1665 37.3002C46.0655 37.0995 45.9982 36.7267 46.1758 36.6963C46.2086 36.6904 46.4433 37.1636 46.4433 37.1636C46.4433 37.1636 46.535 37.4967 46.5889 37.6519C46.6839 37.9268 46.6982 38.3603 46.747 38.5517C46.7883 38.7103 46.8253 38.6453 46.8421 38.6521C46.8589 38.6588 46.8329 38.4379 46.8059 38.1359C46.8076 37.9685 46.7949 37.8011 46.7681 37.6358C46.7313 37.4615 46.7071 37.2848 46.6957 37.1071C46.6663 36.7157 46.9128 36.7554 46.9978 37.1138C47.0306 37.2504 47.0642 37.3997 47.0987 37.5507C47.2308 38.141 47.2266 38.7044 47.2906 38.7086C47.3747 38.7153 47.3183 37.6839 47.3183 37.6839C47.3183 37.6839 47.4445 37.1138 47.5707 37.6434C47.6609 38.0157 47.7039 38.398 47.6986 38.7811C47.686 38.9312 47.7937 39.4684 47.6683 39.9854Z" fill="#F8A492"/>
<path id="Vector_40" d="M37.1828 46.0533C37.1828 46.0533 38.0376 45.1501 38.7258 46.2489C38.8777 46.1663 39.0553 46.1444 39.2226 46.1878C39.39 46.2311 39.5348 46.3365 39.6277 46.4825C39.6277 46.4825 40.5852 46.1933 40.8182 47.6287C40.8182 47.6287 41.3104 47.535 41.3752 48.122C41.4168 48.4654 41.3345 48.8124 41.143 49.1003C41.143 49.1003 41.4198 49.3086 41.2945 49.8483C41.2722 49.9738 41.2145 50.0902 41.1284 50.1839C41.0422 50.2776 40.9311 50.3447 40.8082 50.3771C40.8082 50.3771 40.7063 51.1505 40.3715 51.3832C40.0366 51.616 39.5815 51.5047 39.5815 51.5047C39.5815 51.5047 39.4603 51.9263 39.0699 51.8867C38.6795 51.8471 38.1966 51.4768 37.7599 51.6447C37.3233 51.8125 36.1883 51.6345 36.1883 51.6345C36.1883 51.6345 34.9153 51.067 35.2964 49.7623C35.2964 49.7623 34.6233 49.1568 35.2123 48.4298C35.2123 48.4298 34.7849 47.293 35.633 46.6217C36.4811 45.9504 37.1828 46.0533 37.1828 46.0533Z" fill="#07345A"/>
<path id="Vector_41" d="M43.0712 83.9177C43.0712 83.9177 44.0026 85.0756 44.2348 85.2182C44.4671 85.3607 44.1314 87.0423 43.4995 87.1528C43.1428 87.2152 42.945 86.8222 42.945 86.8222L43.0468 86.3373L41.7158 84.9626L43.0712 83.9177Z" fill="#F7A491"/>
<path id="Vector_42" d="M38.272 84.2036C38.272 84.2036 39.0486 85.4686 39.2606 85.6424C39.4727 85.8161 38.9241 87.4387 38.2847 87.4674C37.9229 87.4834 37.7798 87.0685 37.7798 87.0685L37.9431 86.6004L36.7988 85.0664L38.272 84.2036Z" fill="#F7A491"/>
<path id="Vector_43" d="M39.2141 85.5928C38.9987 85.8707 38.7683 86.1368 38.5242 86.3897C38.2964 86.596 38.0574 86.7895 37.8082 86.9691C37.8082 86.9691 37.3522 87.7981 37.2276 88.0874C36.9508 88.7308 36.6387 89.4485 36.6841 89.8095C36.6984 89.925 36.9576 90.0473 37.1738 89.9782C38.074 89.7015 40.3752 87.5915 40.6654 87.0265C41.0011 86.3737 39.2141 85.5928 39.2141 85.5928Z" fill="#383838"/>
<path id="Vector_44" d="M32.6449 66.2869C32.7291 66.0524 32.809 65.8357 32.8864 65.6316C33.843 65.8407 34.925 66.071 36.0364 66.3063L36.1719 70.3923C36.1719 70.0769 35.3364 76.9096 35.3364 76.9096C35.3364 76.9096 37.497 81.7057 38.9753 84.4997C38.3687 85.2587 38.0843 85.5033 37.2085 86.0177C34.9132 83.2609 31.9079 78.2151 31.7859 77.3768C31.7127 76.8978 31.6479 69.0977 32.6449 66.2869Z" fill="#767676"/>
<path id="Vector_45" d="M41.1887 67.4675C40.8968 70.6519 40.2464 76.7383 40.3011 77.2283C40.4643 77.8389 43.3569 83.4691 43.8769 84.2913C43.4638 84.9154 42.8235 85.5901 42.1353 85.7765C41.9998 85.8127 37.2259 79.0036 36.966 78.4638C36.6715 77.8524 36.1818 74.5204 36.1726 70.3939L36.0371 66.3079C37.8906 66.7025 39.5944 67.0905 41.1887 67.4675Z" fill="#767676"/>
<path id="Vector_46" d="M35.104 52.9526L37.2848 53.2529C37.2848 53.2529 39.0339 53.295 39.2502 53.295C39.4664 53.295 40.8361 61.2705 41.2332 64.272C41.6304 67.2735 41.3224 67.8056 41.3224 67.8056C41.3224 67.8056 38.5569 68.4289 36.5107 68.2475C34.3829 68.0578 31.9893 66.9066 31.9893 66.9066C31.9893 66.9066 33.8083 61.139 34.1684 59.3376C34.5285 57.5362 35.104 52.9526 35.104 52.9526Z" fill="#B48BEA"/>
<path id="Vector_47" d="M29.8149 43.2906C29.8149 43.2906 29.6744 49.237 29.899 49.6924C30.2246 50.3536 33.887 55.0451 33.887 55.0451C33.887 55.0451 32.137 62.3822 31.4017 64.919C31.3276 65.172 30.9995 66.8232 30.9995 66.9835C30.9995 67.3402 32.5476 67.7922 32.731 67.7661C32.8993 67.7416 34.2455 60.7604 35.1087 57.344C35.4007 56.1863 35.902 55.0921 36.5878 54.1157L37.1877 53.2623L32.5863 48.639C32.5863 48.639 32.0192 43.4946 32.0192 43.0671C32.0176 42.9557 30.0362 42.8714 29.8149 43.2906Z" fill="#383838"/>
<path id="Vector_48" d="M39.1711 53.2849L44.9091 47.4245C44.9091 47.4245 45.7084 41.8829 45.7648 41.6737C45.8212 41.4646 47.2456 41.3575 47.8202 41.3018C48.0045 41.2841 47.7235 47.2052 47.4492 48.197C47.1244 49.3692 42.7872 54.711 42.7872 54.711C42.7872 54.711 42.0098 57.6045 42.1983 59.7263C42.5096 63.2515 43.3476 68.0999 43.197 68.2517C42.2647 68.842 38.6856 68.9036 38.4593 68.5376C35.9571 64.4997 39.1711 53.2849 39.1711 53.2849Z" fill="#383838"/>
<path id="Vector_49" d="M37.3269 52.1894L37.1721 53.3405C37.1721 53.3405 36.8255 54.9994 37.2723 55.3232C37.719 55.6471 39.1695 53.2992 39.1695 53.2992L39.0164 50.3821L37.3269 52.1894Z" fill="#F7A491"/>
<path id="Vector_50" d="M39.0648 51.3216C38.6963 52.3168 37.8188 52.9282 37.1953 53.166L37.3266 52.1894L39.0152 50.3762L39.0648 51.3216Z" fill="#F47458"/>
<path id="Vector_51" d="M41.3894 48.3937C41.3894 48.8381 41.137 49.1982 40.8265 49.1982C40.5161 49.1982 40.2637 48.8381 40.2637 48.3937C40.2637 47.9492 40.5161 47.5891 40.8265 47.5891C41.137 47.5891 41.3894 47.9501 41.3894 48.3937Z" fill="#07345A"/>
<path id="Vector_52" d="M39.0159 47.1269C39.3942 47.1269 39.7008 46.92 39.7008 46.6648C39.7008 46.4096 39.3942 46.2026 39.0159 46.2026C38.6377 46.2026 38.3311 46.4096 38.3311 46.6648C38.3311 46.92 38.6377 47.1269 39.0159 47.1269Z" fill="#07345A"/>
<path id="Vector_53" d="M37.9849 47.3116C37.7725 47.2398 37.547 47.2155 37.3242 47.2404C37.1014 47.2653 36.8868 47.3387 36.6954 47.4556C36.5039 47.5724 36.3403 47.7299 36.216 47.9168C36.0917 48.1038 36.0097 48.3157 35.9757 48.5378C35.9031 49.0269 35.8615 49.5201 35.8512 50.0145C35.8268 51.3638 36.5243 52.6685 37.1309 52.6685C37.7375 52.6685 39.4236 51.7973 39.4867 49.8855C39.5221 48.7098 38.9348 47.6396 37.9849 47.3116Z" fill="#F7A491"/>
<path id="Vector_54" d="M39.0391 50.0399C39.0391 50.3368 39.2351 50.5772 39.4766 50.5772C39.718 50.5772 39.9149 50.3368 39.9149 50.0399C39.9149 49.7431 39.7121 49.5044 39.4732 49.5044C39.2343 49.5044 39.0391 49.7431 39.0391 50.0399Z" fill="#F7A491"/>
<path id="Vector_55" d="M35.3451 46.6429C34.7158 47.1422 34.4953 47.902 34.8529 48.338C35.2105 48.7741 36.0098 48.7243 36.6391 48.225C37.2685 47.7258 37.4889 46.9659 37.1313 46.5291C36.7737 46.0922 35.9745 46.1428 35.3451 46.6429Z" fill="#07345A"/>
<path id="Vector_56" d="M37.5751 47.4457C37.8976 47.4457 38.159 47.2697 38.159 47.0527C38.159 46.8356 37.8976 46.6597 37.5751 46.6597C37.2526 46.6597 36.9912 46.8356 36.9912 47.0527C36.9912 47.2697 37.2526 47.4457 37.5751 47.4457Z" fill="#07345A"/>
<path id="Vector_57" d="M35.2529 48.7233C35.2541 48.8219 35.2843 48.918 35.3399 48.9995C35.3954 49.081 35.4737 49.1441 35.565 49.1811C35.6562 49.218 35.7564 49.2271 35.8528 49.2071C35.9491 49.1872 36.0375 49.1391 36.1067 49.0689C36.1759 48.9988 36.2228 48.9096 36.2416 48.8128C36.2604 48.716 36.2501 48.6157 36.2122 48.5247C36.1743 48.4336 36.1103 48.3559 36.0284 48.3012C35.9465 48.2465 35.8503 48.2173 35.7519 48.2173C35.619 48.2188 35.4921 48.2728 35.3987 48.3676C35.3053 48.4623 35.2529 48.5901 35.2529 48.7233Z" fill="#07345A"/>
<path id="Vector_58" d="M44.1829 85.1777C44.0044 85.4808 43.8101 85.7741 43.6006 86.0565C43.4012 86.2905 43.1885 86.513 42.9637 86.7227C42.9637 86.7227 42.6171 87.6032 42.5304 87.9034C42.3378 88.5781 42.1199 89.3911 42.2107 89.7428C42.2393 89.8558 42.4875 90.0717 42.692 89.9384C43.4812 89.4231 45.5896 87.0103 45.805 86.4115C46.054 85.7208 44.1829 85.1777 44.1829 85.1777Z" fill="#383838"/>
<path id="Vector_59" d="M85.2551 60.606C85.2551 60.606 82.7386 60.9956 80.88 62.8535C79.0215 64.7114 77.9092 67.6951 77.9092 67.6951L81.7146 68.8075C81.7146 68.8075 80.196 65.2503 85.2551 60.606Z" fill="#F7EB48"/>
<path id="Vector_60" d="M85.953 62.4362L85.6804 60.2873L83.7596 59.2947C83.7103 59.2693 83.6691 59.2305 83.6407 59.1828C83.6123 59.1352 83.5977 59.0805 83.5987 59.0249C83.5996 58.9694 83.6161 58.9152 83.6462 58.8686C83.6762 58.8219 83.7187 58.7846 83.7688 58.7609L85.7233 57.8332L86.0725 55.6953C86.082 55.6415 86.1062 55.5913 86.1423 55.5503C86.1785 55.5093 86.2252 55.479 86.2774 55.4629C86.3295 55.4468 86.3851 55.4454 86.438 55.4589C86.4909 55.4724 86.5391 55.5002 86.5773 55.5393L88.0581 57.1172L90.1943 56.7892C90.2491 56.7807 90.3052 56.7878 90.3562 56.8096C90.4072 56.8315 90.451 56.8672 90.4828 56.9128C90.5146 56.9583 90.533 57.0119 90.536 57.0674C90.539 57.1229 90.5264 57.1781 90.4997 57.2268L89.4598 59.1261L90.4315 61.0607C90.4566 61.1103 90.4672 61.166 90.4623 61.2213C90.4574 61.2767 90.4371 61.3296 90.4037 61.374C90.3704 61.4184 90.3253 61.4526 90.2735 61.4726C90.2218 61.4927 90.1655 61.4978 90.111 61.4874L87.9874 61.0826L86.4519 62.6074C86.4126 62.6451 86.3637 62.6712 86.3105 62.6829C86.2574 62.6946 86.202 62.6915 86.1505 62.6738C86.0991 62.6561 86.0534 62.6246 86.0186 62.5827C85.9837 62.5408 85.961 62.4901 85.953 62.4362Z" fill="#F7EB48"/>
<path id="Vector_61" d="M19.0439 72.0461C19.0439 72.0461 21.5604 72.4349 23.419 74.2928C25.2776 76.1507 26.3882 79.1353 26.3882 79.1353L22.5819 80.2477C22.5819 80.2477 24.103 76.6896 19.0439 72.0461Z" fill="#F7EB48"/>
<path id="Vector_62" d="M18.3471 73.877L18.6205 71.7281L20.5405 70.7347C20.5898 70.7094 20.631 70.6707 20.6595 70.6231C20.688 70.5755 20.7026 70.5208 20.7016 70.4653C20.7006 70.4098 20.6841 70.3556 20.654 70.309C20.6239 70.2624 20.5814 70.2252 20.5312 70.2017L18.5767 69.274L18.2284 67.1361C18.2196 67.0812 18.1955 67.0299 18.159 66.9879C18.1225 66.946 18.075 66.9152 18.022 66.899C17.9689 66.8827 17.9123 66.8817 17.8587 66.896C17.8051 66.9104 17.7565 66.9395 17.7186 66.9801L16.2386 68.5639L14.1024 68.2358C14.0477 68.2275 13.9918 68.2346 13.9409 68.2564C13.89 68.2783 13.8463 68.3139 13.8145 68.3593C13.7828 68.4047 13.7643 68.4581 13.7612 68.5135C13.7581 68.5689 13.7705 68.624 13.797 68.6727L14.8369 70.5719L13.8651 72.5116C13.8415 72.561 13.8319 72.6161 13.8375 72.6706C13.8431 72.7252 13.8636 72.7771 13.8967 72.8207C13.9299 72.8644 13.9744 72.8979 14.0254 72.9178C14.0764 72.9377 14.1319 72.943 14.1857 72.9333L16.3084 72.5276L17.8439 74.0516C17.8832 74.0908 17.9328 74.1183 17.9869 74.1307C18.041 74.1431 18.0975 74.1401 18.1499 74.1219C18.2024 74.1037 18.2487 74.0711 18.2835 74.0278C18.3184 73.9845 18.3404 73.9322 18.3471 73.877Z" fill="#F7EB48"/>
<path id="Vector_63" d="M102.279 62.4834L102.868 61.4874L102.382 60.4366C102.37 60.4096 102.365 60.3798 102.369 60.3503C102.373 60.3209 102.385 60.2931 102.403 60.2701C102.422 60.247 102.447 60.2296 102.474 60.2199C102.502 60.2101 102.532 60.2084 102.561 60.2148L103.689 60.4678L104.536 59.681C104.558 59.6606 104.585 59.6468 104.614 59.641C104.643 59.6352 104.673 59.6377 104.701 59.6483C104.728 59.6588 104.752 59.677 104.77 59.7006C104.788 59.7243 104.799 59.7526 104.802 59.7822L104.91 60.935L105.919 61.5001C105.945 61.5144 105.967 61.5358 105.981 61.5618C105.996 61.5878 106.003 61.6173 106.001 61.6471C106 61.6768 105.99 61.7056 105.973 61.73C105.956 61.7544 105.932 61.7735 105.905 61.7851L104.845 62.2439L104.621 63.3807C104.615 63.4098 104.601 63.4367 104.581 63.4584C104.561 63.4801 104.535 63.4956 104.506 63.5033C104.478 63.5111 104.448 63.5106 104.419 63.5021C104.391 63.4935 104.365 63.4772 104.346 63.4549L103.583 62.5854L102.435 62.7238C102.406 62.7276 102.375 62.7229 102.348 62.7104C102.321 62.6978 102.298 62.6779 102.282 62.6528C102.265 62.6277 102.256 62.5985 102.256 62.5685C102.255 62.5386 102.263 62.5091 102.279 62.4834Z" fill="#E0457B"/>
<path id="Vector_64" d="M45.483 17.4015L46.2251 16.1441L45.6126 14.8184C45.5968 14.7843 45.591 14.7465 45.5956 14.7093C45.6002 14.672 45.6151 14.6368 45.6387 14.6077C45.6623 14.5785 45.6935 14.5566 45.7289 14.5443C45.7643 14.5321 45.8024 14.53 45.8389 14.5384L47.2608 14.8572L48.3302 13.8637C48.3576 13.8379 48.3917 13.8204 48.4286 13.8131C48.4654 13.8058 48.5036 13.8091 48.5387 13.8226C48.5739 13.836 48.6045 13.8591 48.6271 13.8892C48.6497 13.9193 48.6635 13.9552 48.6667 13.9927L48.7988 15.4475L50.0718 16.1593C50.1043 16.1775 50.1312 16.2045 50.1493 16.2372C50.1674 16.2699 50.176 16.3071 50.1741 16.3444C50.1723 16.3818 50.1601 16.4179 50.1389 16.4486C50.1177 16.4794 50.0883 16.5036 50.0541 16.5185L48.7155 17.0988L48.4336 18.5324C48.4262 18.5691 48.4087 18.603 48.3831 18.6303C48.3575 18.6576 48.3249 18.6772 48.2888 18.687C48.2527 18.6967 48.2146 18.6961 48.1788 18.6854C48.143 18.6746 48.111 18.6541 48.0862 18.6261L47.1228 17.5297L45.6757 17.7034C45.6388 17.7072 45.6016 17.7007 45.5682 17.6845C45.5349 17.6683 45.5066 17.6432 45.4866 17.6119C45.4667 17.5806 45.4557 17.5444 45.4551 17.5072C45.4545 17.4701 45.4641 17.4335 45.483 17.4015Z" fill="#F7EB48"/>
<path id="Vector_65" d="M99.9889 20.5244L98.0277 21.8367L99.1248 23.7451L97.2494 25.1223L98.0731 27.0755L96.8389 28.3363L97.4749 28.9629L99.1265 27.2771L98.3466 25.4259L100.297 23.9922L99.2182 22.1158L100.995 20.9267L99.9889 20.5244Z" fill="#E0457B"/>
<path id="Vector_66" d="M103.001 52.1396L101.614 50.2294L99.7559 51.4051L98.3062 49.5834L96.393 50.4875L95.0863 49.3018L94.4873 49.9655L96.2356 51.551L98.0488 50.6941L99.5565 52.5891L101.384 51.4329L102.641 53.1643L103.001 52.1396Z" fill="#9B4DEE"/>
<path id="Vector_67" d="M37.9885 12.5659L38.4597 10.2509L36.3403 9.66983L36.7038 7.36834L34.7468 6.56295L34.7375 4.79614L33.8457 4.80036L33.8575 7.16341L35.7118 7.92748L35.3341 10.3209L37.4181 10.8927L36.9915 12.9909L37.9885 12.5659Z" fill="#E0457B"/>
<path id="Vector_68" d="M19.6588 15.6458L20.5557 17.3257L22.4916 17.2169L23.3641 19.1709L25.3901 18.4187L26.4746 20.5852L28.4257 20.1222L29.8097 22.0358L29.087 22.5603L28.0521 21.13L25.9933 21.6183L24.9509 19.5353L22.8913 20.301L21.9279 18.1446L20.0374 18.2508L19.2061 16.6932L17.9794 17.0229L17.748 16.1593L19.6588 15.6458Z" fill="#F7EB48"/>
<path id="Vector_69" d="M11.3087 28.9089L9.88008 29.0548L9.39294 26.7761L7.27777 26.7306L6.63497 25.0852L5.80371 25.4116L6.66358 27.6119L8.66769 27.6549L9.17503 30.0255L11.3247 29.8062L11.3087 28.9089Z" fill="#E0457B"/>
<path id="Vector_70" d="M8.73828 53.6106L8.20402 54.9465L5.96432 54.3215L4.94208 56.1786L3.19037 55.9854L3.09277 56.8743L5.43595 57.1324L6.4052 55.3732L8.73491 56.0234L9.53925 54.0129L8.73828 53.6106Z" fill="#E0457B"/>
<path id="Vector_71" d="M98.4889 40.3026L99.1838 41.4605C99.2009 41.4887 99.2255 41.5116 99.2548 41.5266C99.2842 41.5415 99.3171 41.548 99.3499 41.5452C99.3827 41.5424 99.4141 41.5304 99.4405 41.5107C99.4669 41.491 99.4873 41.4642 99.4993 41.4335L99.9924 40.1761L101.306 39.8717C101.338 39.8641 101.367 39.8478 101.39 39.8245C101.413 39.8012 101.43 39.7718 101.437 39.7398C101.445 39.7077 101.443 39.6742 101.433 39.6429C101.422 39.6117 101.403 39.584 101.378 39.563L100.338 38.7036L100.454 37.3543C100.458 37.3212 100.452 37.2877 100.437 37.2578C100.423 37.2278 100.4 37.2026 100.372 37.185C100.344 37.1674 100.311 37.1581 100.278 37.1582C100.245 37.1583 100.212 37.1678 100.184 37.1856L99.0475 37.9117L97.8057 37.3846C97.7754 37.372 97.7421 37.3681 97.7097 37.3733C97.6773 37.3786 97.647 37.3928 97.6222 37.4143C97.5974 37.4359 97.5791 37.4639 97.5693 37.4953C97.5595 37.5267 97.5586 37.5602 97.5667 37.5921L97.9033 38.9001L97.0198 39.9206C96.9982 39.9454 96.984 39.9759 96.9788 40.0085C96.9736 40.0411 96.9776 40.0745 96.9904 40.1049C97.0032 40.1353 97.0243 40.1615 97.0512 40.1805C97.0781 40.1995 97.1098 40.2105 97.1427 40.2124L98.4889 40.3026Z" fill="#FED333"/>
<path id="Vector_72" d="M96.0476 66.8216C96.0476 66.9814 96.0003 67.1377 95.9117 67.2705C95.8231 67.4034 95.6971 67.507 95.5498 67.5681C95.4025 67.6292 95.2404 67.6452 95.084 67.6139C94.9276 67.5827 94.784 67.5057 94.6713 67.3926C94.5586 67.2795 94.4819 67.1355 94.4509 66.9787C94.4199 66.8219 94.436 66.6594 94.4971 66.5118C94.5583 66.3642 94.6617 66.2381 94.7944 66.1494C94.927 66.0607 95.083 66.0135 95.2424 66.0137C95.3482 66.0136 95.4531 66.0344 95.5509 66.075C95.6486 66.1155 95.7375 66.1751 95.8123 66.2501C95.8871 66.3252 95.9464 66.4143 95.9868 66.5123C96.0271 66.6104 96.0478 66.7155 96.0476 66.8216Z" fill="#9B4DEE"/>
<path id="Vector_73" d="M1.74582 42.3359C1.74582 42.782 1.35458 43.1438 0.873328 43.1438C0.392072 43.1438 0 42.7845 0 42.3359C0 41.8872 0.391231 41.5288 0.873328 41.5288C1.35543 41.5288 1.74582 41.8931 1.74582 42.3359Z" fill="#F7EB48"/>
<path id="Vector_74" d="M47.3901 3.70406L48.4477 3.91321C48.4477 3.91321 49.9941 3.18962 50.1119 2.84048C50.2297 2.49133 50.175 1.68763 50.4013 1.63703C50.4904 1.6141 50.5832 1.609 50.6743 1.62203C50.7653 1.63505 50.853 1.66595 50.9321 1.71294C51.0113 1.75994 51.0804 1.82211 51.1356 1.89591C51.1907 1.96971 51.2309 2.05368 51.2536 2.14303C51.3798 2.53013 50.9423 3.7496 51.0475 3.86008C51.114 3.92924 51.7206 4.06754 52.1614 4.16031C52.3052 4.19123 52.4376 4.26128 52.5442 4.36275C52.6507 4.46423 52.7273 4.59319 52.7655 4.73547C52.7924 4.8317 52.7858 4.93422 52.7468 5.02618C52.7078 5.11813 52.6387 5.19406 52.551 5.24148L52.2725 5.39159L52.4038 5.68255C52.4507 5.78689 52.4551 5.90546 52.4161 6.01303C52.3772 6.1206 52.2979 6.20869 52.1951 6.25855L51.9789 6.36228L52.0739 6.5377C52.1028 6.59131 52.1202 6.65033 52.1252 6.71104C52.1301 6.77175 52.1225 6.83283 52.1027 6.89042C52.083 6.94802 52.0515 7.0009 52.0104 7.04571C51.9692 7.09053 51.9192 7.12631 51.8636 7.15081L51.6735 7.23514L51.6886 7.28743C51.7179 7.39154 51.7079 7.50283 51.6606 7.60005C51.6133 7.69727 51.5319 7.77362 51.432 7.81452L51.2418 7.89042L48.425 7.33297C48.1607 7.28057 47.9102 7.17343 47.6896 7.0184L46.7322 6.65492C46.6818 6.63574 46.6401 6.59899 46.6146 6.55143C46.5891 6.50388 46.5815 6.44869 46.5933 6.39602L47.1284 3.87948C47.1404 3.8217 47.1746 3.77095 47.2235 3.73815C47.2724 3.70534 47.3323 3.6931 47.3901 3.70406Z" fill="#9B4DEE"/>
</g>
</g>
</g>
<defs>
<clipPath id="clip0_1050_92918">
<rect width="106" height="90" fill="white"/>
</clipPath>
</defs>
</svg>
