<svg width="48" height="30" viewBox="0 0 48 30" fill="none" xmlns="http://www.w3.org/2000/svg">
<path d="M43 0H5C2.23858 0 0 2.23858 0 5V25C0 27.7614 2.23858 30 5 30H43C45.7614 30 48 27.7614 48 25V5C48 2.23858 45.7614 0 43 0Z" fill="#26A6D1"/>
<path d="M9.81341 10.434L5.69141 19.555H10.6254L11.2374 18.101H12.6374L13.2494 19.555H18.6804V18.445L19.1644 19.555H21.9734L22.4564 18.422V19.555H33.7564L35.1294 18.139L36.4154 19.556L42.2154 19.568L38.0804 15.021L42.2154 10.435H36.5004L35.1634 11.825L33.9174 10.435H21.6304L20.5754 12.789L19.4954 10.435H14.5714V11.507L14.0234 10.435L9.81341 10.434ZM10.7684 11.734H13.1734L15.9074 17.919V11.734H18.5424L20.6564 16.168L22.6024 11.733H25.2244V18.278H23.6244L23.6114 13.149L21.2854 18.278H19.8564L17.5174 13.149V18.278H14.2394L13.6174 16.811H10.2564L9.63541 18.277H7.87741L10.7684 11.734ZM26.6804 11.734H33.1664L35.1504 13.877L37.1984 11.734H39.1824L36.1684 15.023L39.1824 18.275H37.1084L35.1244 16.107L33.0664 18.268H26.6804V11.727V11.734ZM11.9384 12.841L10.8314 15.455H13.0444L11.9384 12.841ZM28.2824 13.089V14.284H31.8214V15.616H28.2814V16.916H32.2504L34.0944 14.995L32.3284 13.084H28.2814L28.2824 13.089Z" fill="white"/>
</svg>
