<svg width="36" height="36" viewBox="0 0 36 36" fill="none" xmlns="http://www.w3.org/2000/svg">
<circle cx="18" cy="18" r="18" fill="#9B4DEE"/>
<path d="M7 10.5C7 8.84297 8.34297 7.5 10 7.5H25C26.6547 7.5 28 8.84297 28 10.5V25.5C28 27.1547 26.6547 28.5 25 28.5H10C8.34297 28.5 7 27.1547 7 25.5V10.5ZM13 18C13 17.1703 12.3297 16.5 11.5 16.5C10.6717 16.5 10 17.1703 10 18C10 18.8297 10.6717 19.5 11.5 19.5C12.3297 19.5 13 18.8297 13 18ZM13 13.5C13 12.6703 12.3297 12 11.5 12C10.6717 12 10 12.6703 10 13.5C10 14.3297 10.6717 15 11.5 15C12.3297 15 13 14.3297 13 13.5ZM13 22.5C13 21.6703 12.3297 21 11.5 21C10.6717 21 10 21.6703 10 22.5C10 23.3297 10.6717 24 11.5 24C12.3297 24 13 23.3297 13 22.5ZM16 12.375C15.3766 12.375 14.875 12.8766 14.875 13.5C14.875 14.1234 15.3766 14.625 16 14.625H23.5C24.1234 14.625 24.625 14.1234 24.625 13.5C24.625 12.8766 24.1234 12.375 23.5 12.375H16ZM16 16.875C15.3766 16.875 14.875 17.3766 14.875 18C14.875 18.6234 15.3766 19.125 16 19.125H23.5C24.1234 19.125 24.625 18.6234 24.625 18C24.625 17.3766 24.1234 16.875 23.5 16.875H16ZM16 21.375C15.3766 21.375 14.875 21.8766 14.875 22.5C14.875 23.1234 15.3766 23.625 16 23.625H23.5C24.1234 23.625 24.625 23.1234 24.625 22.5C24.625 21.8766 24.1234 21.375 23.5 21.375H16Z" fill="white"/>
<circle cx="26" cy="13" r="7" fill="#9B4DEE"/>
<path d="M20 13C20 9.68594 22.6859 7 26 7C29.3141 7 32 9.68594 32 13C32 16.3141 29.3141 19 26 19C22.6859 19 20 16.3141 20 13ZM28.7141 11.9641C28.9695 11.7086 28.9695 11.2914 28.7141 11.0359C28.4586 10.7805 28.0414 10.7805 27.7859 11.0359L25.25 13.5719L24.2141 12.5359C23.9586 12.2805 23.5414 12.2805 23.2859 12.5359C23.0305 12.7914 23.0305 13.2086 23.2859 13.4641L24.7859 14.9641C25.0414 15.2195 25.4586 15.2195 25.7141 14.9641L28.7141 11.9641Z" fill="white"/>
</svg>
