<svg width="14" height="14" viewBox="0 0 14 14" fill="none" xmlns="http://www.w3.org/2000/svg">
<g id="arrow-right-from-bracket-solid" clip-path="url(#clip0_1287_93578)">
<path id="Vector" d="M13.7436 7.70625C14.0855 7.31563 14.0855 6.68125 13.7436 6.29063L10.2435 2.29063C9.90166 1.9 9.34655 1.9 9.00474 2.29063C8.66292 2.68125 8.66292 3.31563 9.00474 3.70625L11.0119 6H5.25026C4.76625 6 4.37521 6.44688 4.37521 7C4.37521 7.55312 4.76625 8 5.25026 8H11.0119L9.00474 10.2937C8.66292 10.6844 8.66292 11.3188 9.00474 11.7094C9.34655 12.1 9.90166 12.1 10.2435 11.7094L13.7436 7.70938V7.70625ZM4.37521 2C4.85922 2 5.25026 1.55313 5.25026 1C5.25026 0.446875 4.85922 0 4.37521 0H2.62513C1.17584 0 0 1.34375 0 3V11C0 12.6562 1.17584 14 2.62513 14H4.37521C4.85922 14 5.25026 13.5531 5.25026 13C5.25026 12.4469 4.85922 12 4.37521 12H2.62513C2.14112 12 1.75009 11.5531 1.75009 11V3C1.75009 2.44688 2.14112 2 2.62513 2H4.37521Z" fill="#707070"/>
</g>
<defs>
<clipPath id="clip0_1287_93578">
<rect width="14" height="14" fill="white"/>
</clipPath>
</defs>
</svg>
