<svg width="14" height="14" viewBox="0 0 14 14" fill="none" xmlns="http://www.w3.org/2000/svg">
<g id="arrows-rotate-solid">
<path id="Vector" d="M12.25 0C11.7668 0 11.375 0.391289 11.375 0.875V2.9009C10.284 1.38141 8.51484 0.4375 6.5625 0.4375C3.97852 0.4375 1.71145 2.08742 0.918203 4.54453C0.769508 5.00418 1.02203 5.49828 1.48176 5.64594C1.94359 5.79633 2.43551 5.5417 2.58371 5.08293C3.1418 3.34961 4.74141 2.1875 6.5625 2.1875C7.94336 2.1875 9.19461 2.85879 9.96406 3.9375H8.75C8.26684 3.9375 7.875 4.32879 7.875 4.8125C7.875 5.29621 8.26684 5.6875 8.75 5.6875H12.25C12.7332 5.6875 13.125 5.29621 13.125 4.8125V0.875C13.125 0.391289 12.734 0 12.25 0ZM11.643 7.48125C11.1803 7.33255 10.6892 7.58548 10.541 8.04426C9.9832 9.77539 8.38359 10.9375 6.5625 10.9375C5.18164 10.9375 3.93066 10.2662 3.16094 9.1875H4.375C4.85816 9.1875 5.25 8.79621 5.25 8.3125C5.25 7.82879 4.85816 7.4375 4.375 7.4375H0.875C0.391836 7.4375 0 7.82879 0 8.3125V12.25C0 12.7337 0.391836 13.125 0.875 13.125C1.35816 13.125 1.75 12.7337 1.75 12.25V10.2241C2.84102 11.7441 4.61016 12.6875 6.53789 12.6875C9.12051 12.6875 11.3887 11.0376 12.1816 8.58047C12.3566 8.12109 12.1023 7.6043 11.643 7.48125Z" fill="#9B4DEE"/>
</g>
</svg>
