<svg width="18" height="18" viewBox="0 0 18 18" fill="none" xmlns="http://www.w3.org/2000/svg">
<g id="arrow-right-from-bracket-solid" clip-path="url(#clip0_2174_39017)">
<path id="Vector" d="M17.6704 9.90804C18.1099 9.4058 18.1099 8.59018 17.6704 8.08795L13.1702 2.94509C12.7307 2.44286 12.017 2.44286 11.5775 2.94509C11.138 3.44732 11.138 4.26295 11.5775 4.76518L14.1581 7.71429H6.75033C6.12803 7.71429 5.62527 8.28884 5.62527 9C5.62527 9.71116 6.12803 10.2857 6.75033 10.2857H14.1581L11.5775 13.2348C11.138 13.7371 11.138 14.5527 11.5775 15.0549C12.017 15.5571 12.7307 15.5571 13.1702 15.0549L17.6704 9.91205V9.90804ZM5.62527 2.57143C6.24757 2.57143 6.75033 1.99688 6.75033 1.28571C6.75033 0.574554 6.24757 0 5.62527 0H3.37516C1.51179 0 0 1.72768 0 3.85714V14.1429C0 16.2723 1.51179 18 3.37516 18H5.62527C6.24757 18 6.75033 17.4254 6.75033 16.7143C6.75033 16.0031 6.24757 15.4286 5.62527 15.4286H3.37516C2.75287 15.4286 2.25011 14.854 2.25011 14.1429V3.85714C2.25011 3.14598 2.75287 2.57143 3.37516 2.57143H5.62527Z" fill="#9B4DEE"/>
</g>
<defs>
<clipPath id="clip0_2174_39017">
<rect width="18" height="18" fill="white"/>
</clipPath>
</defs>
</svg>
