<svg width="23" height="23" viewBox="0 0 23 23" fill="none" xmlns="http://www.w3.org/2000/svg">
<path d="M22.0993 12C22.0993 17.7844 17.3884 22.4953 11.604 22.4953C9.31371 22.4953 7.14199 21.765 5.3134 20.3925C4.65058 19.8961 4.51652 18.9553 5.01382 18.292C5.51116 17.6316 6.45241 17.4966 7.11382 17.9932C8.41882 18.9734 9.97319 19.4904 11.6087 19.4904C15.7384 19.4906 19.0993 16.1297 19.0993 12C19.0993 7.87031 15.7398 4.50937 11.6087 4.50937C9.2509 4.51031 7.03371 5.63906 5.62746 7.5H8.59933C9.42762 7.5 10.0993 8.17078 10.0993 9C10.0993 9.82922 9.42902 10.5 8.59933 10.5H1.84933C1.02105 10.5 0.349335 9.82922 0.349335 9V2.25C0.349335 1.42078 1.02105 0.75 1.84933 0.75C2.67762 0.75 3.34933 1.42078 3.34933 2.25V5.54203C5.32277 3.02719 8.32277 1.50516 11.604 1.50516C17.3884 1.50516 22.0993 6.21562 22.0993 12Z" fill="#9B4DEE"/>
</svg>
