<svg width="36" height="36" viewBox="0 0 36 36" fill="none" xmlns="http://www.w3.org/2000/svg">
<circle cx="18" cy="18" r="18" fill="#4BA047"/>
<path d="M8 10.5C8 8.84297 9.34297 7.5 11 7.5H26C27.6547 7.5 29 8.84297 29 10.5V25.5C29 27.1547 27.6547 28.5 26 28.5H11C9.34297 28.5 8 27.1547 8 25.5V10.5ZM14 18C14 17.1703 13.3297 16.5 12.5 16.5C11.6717 16.5 11 17.1703 11 18C11 18.8297 11.6717 19.5 12.5 19.5C13.3297 19.5 14 18.8297 14 18ZM14 13.5C14 12.6703 13.3297 12 12.5 12C11.6717 12 11 12.6703 11 13.5C11 14.3297 11.6717 15 12.5 15C13.3297 15 14 14.3297 14 13.5ZM14 22.5C14 21.6703 13.3297 21 12.5 21C11.6717 21 11 21.6703 11 22.5C11 23.3297 11.6717 24 12.5 24C13.3297 24 14 23.3297 14 22.5ZM17 12.375C16.3766 12.375 15.875 12.8766 15.875 13.5C15.875 14.1234 16.3766 14.625 17 14.625H24.5C25.1234 14.625 25.625 14.1234 25.625 13.5C25.625 12.8766 25.1234 12.375 24.5 12.375H17ZM17 16.875C16.3766 16.875 15.875 17.3766 15.875 18C15.875 18.6234 16.3766 19.125 17 19.125H24.5C25.1234 19.125 25.625 18.6234 25.625 18C25.625 17.3766 25.1234 16.875 24.5 16.875H17ZM17 21.375C16.3766 21.375 15.875 21.8766 15.875 22.5C15.875 23.1234 16.3766 23.625 17 23.625H24.5C25.1234 23.625 25.625 23.1234 25.625 22.5C25.625 21.8766 25.1234 21.375 24.5 21.375H17Z" fill="white"/>
<g clip-path="url(#clip0_957_64585)">
<circle cx="19.2917" cy="17.7084" r="7.125" fill="#4BA047"/>
<path d="M9 18.5C9 13.2527 13.2527 9 18.5 9C23.7473 9 28 13.2527 28 18.5C28 23.7473 23.7473 28 18.5 28C13.2527 28 9 23.7473 9 18.5ZM22.7973 16.8598C23.2018 16.4553 23.2018 15.7947 22.7973 15.3902C22.3928 14.9857 21.7322 14.9857 21.3277 15.3902L17.3125 19.4055L15.6723 17.7652C15.2678 17.3607 14.6072 17.3607 14.2027 17.7652C13.7982 18.1697 13.7982 18.8303 14.2027 19.2348L16.5777 21.6098C16.9822 22.0143 17.6428 22.0143 18.0473 21.6098L22.7973 16.8598Z" fill="white"/>
</g>
<defs>
<clipPath id="clip0_957_64585">
<rect width="19" height="19" fill="white" transform="translate(9 9)"/>
</clipPath>
</defs>
</svg>
