<svg width="16" height="14" viewBox="0 0 16 14" fill="none" xmlns="http://www.w3.org/2000/svg">
<g id="bars-solid " clip-path="url(#clip0_2169_121075)">
<path id="bars-solid _2" d="M0 2.625C0 2.14102 0.495761 1.75 1.1094 1.75H14.4221C15.0358 1.75 15.5315 2.14102 15.5315 2.625C15.5315 3.10898 15.0358 3.5 14.4221 3.5H1.1094C0.495761 3.5 0 3.10898 0 2.625ZM0 7C0 6.51602 0.495761 6.125 1.1094 6.125H14.4221C15.0358 6.125 15.5315 6.51602 15.5315 7C15.5315 7.48398 15.0358 7.875 14.4221 7.875H1.1094C0.495761 7.875 0 7.48398 0 7ZM15.5315 11.375C15.5315 11.859 15.0358 12.25 14.4221 12.25H1.1094C0.495761 12.25 0 11.859 0 11.375C0 10.891 0.495761 10.5 1.1094 10.5H14.4221C15.0358 10.5 15.5315 10.891 15.5315 11.375Z" fill="white"/>
</g>
<defs>
<clipPath id="clip0_2169_121075">
<rect width="15.5315" height="14" fill="white"/>
</clipPath>
</defs>
</svg>
