<svg width="21" height="20" viewBox="0 0 21 20" fill="none" xmlns="http://www.w3.org/2000/svg">
<g clip-path="url(#clip0_3459_43620)">
<path d="M8.03125 16.0509C8.03125 16.447 7.71255 16.7657 7.31641 16.7657C6.92026 16.7657 6.60156 16.447 6.60156 16.0509V13.6681C6.60156 13.2719 6.92026 12.9532 7.31641 12.9532C7.71255 12.9532 8.03125 13.2719 8.03125 13.6681V16.0509ZM9.9375 12.9532C10.3336 12.9532 10.6523 13.2719 10.6523 13.6681V16.0509C10.6523 16.447 10.3336 16.7657 9.9375 16.7657C9.54136 16.7657 9.22266 16.447 9.22266 16.0509V13.6681C9.22266 13.2719 9.54136 12.9532 9.9375 12.9532ZM13.2734 16.0509C13.2734 16.447 12.9547 16.7657 12.5586 16.7657C12.1625 16.7657 11.8438 16.447 11.8438 16.0509V13.6681C11.8438 13.2719 12.1625 12.9532 12.5586 12.9532C12.9547 12.9532 13.2734 13.2719 13.2734 13.6681V16.0509ZM8.60015 4.45577C8.94863 4.6379 9.08564 5.0694 8.90395 5.41967L6.47349 10.0939H13.4015L10.971 5.41967C10.7894 5.0694 10.9264 4.6379 11.2749 4.45577C11.6263 4.27363 12.0582 4.40993 12.2399 4.76023L15.0129 10.0939H17.8008C18.1969 10.0939 18.5156 10.4126 18.5156 10.8087C18.5156 11.2048 18.1969 11.5235 17.8008 11.5235H17.2051L15.5401 18.1805C15.3018 19.0294 14.5661 19.6251 13.6904 19.6251H6.15776C5.30889 19.6251 4.54639 19.0294 4.33432 18.1805L2.66992 11.5235H2.07422C1.67957 11.5235 1.35938 11.2048 1.35938 10.8087C1.35938 10.4126 1.67957 10.0939 2.07422 10.0939H4.86211L7.63511 4.76023C7.8168 4.40993 8.24868 4.27363 8.60015 4.45577ZM5.71992 17.835C5.77353 18.0465 5.96416 18.1954 6.15776 18.1954H13.6904C13.9108 18.1954 14.1015 18.0465 14.1551 17.835L15.7307 11.5235H4.14369L5.71992 17.835Z" fill="white"/>
<path d="M20.4106 4.41218L17.5533 7.32866C17.4426 7.44349 17.2962 7.5 17.1497 7.5C17.0033 7.5 16.8572 7.44304 16.7458 7.32911C16.5226 7.10126 16.5226 6.73215 16.7458 6.5043L18.6284 4.58352H13.1496C12.834 4.58352 12.5781 4.32286 12.5781 4.00023C12.5781 3.67759 12.834 3.41693 13.1496 3.41693H18.6284L16.7461 1.4957C16.5229 1.26785 16.5229 0.898737 16.7461 0.670887C16.9694 0.443038 17.331 0.443038 17.5542 0.670887L20.4115 3.58736C20.6338 3.81613 20.6338 4.18433 20.4106 4.41218Z" fill="white"/>
</g>
<defs>
<clipPath id="clip0_3459_43620">
<rect width="20" height="19" fill="white" transform="translate(0.75 0.5)"/>
</clipPath>
</defs>
</svg>
