<svg width="20" height="20" viewBox="0 0 20 20" fill="none" xmlns="http://www.w3.org/2000/svg">
<g clip-path="url(#clip0_2813_32052)">
<path d="M0 0.9375C0 0.419922 0.373264 0 0.833333 0H3.33333C3.73264 0 4.07639 0.319922 4.15278 0.762109L4.20486 1.25H18.8125C19.5174 1.25 20.0799 2.04102 19.8819 2.83828L18.0069 10.3398C17.8715 10.8789 17.434 11.25 16.9375 11.25H5.92708L6.24653 13.125H16.9444C17.4062 13.125 17.7778 13.543 17.7778 14.0625C17.7778 14.582 17.4062 15 16.9444 15H5.52431C5.15625 15 4.8125 14.6797 4.73611 14.2383L2.64375 1.875H0.833333C0.373264 1.875 0 1.45508 0 0.9375ZM9.72222 5.46875C9.30903 5.46875 9.02778 5.78516 9.02778 6.25C9.02778 6.67969 9.30903 7.03125 9.72222 7.03125H13.6111C13.9931 7.03125 14.3056 6.67969 14.3056 6.25C14.3056 5.78516 13.9931 5.46875 13.6111 5.46875H9.72222ZM7.77778 18.125C7.77778 19.1602 7.03125 20 6.11111 20C5.19097 20 4.44444 19.1602 4.44444 18.125C4.44444 17.0898 5.19097 16.25 6.11111 16.25C7.03125 16.25 7.77778 17.0898 7.77778 18.125ZM14.4444 18.125C14.4444 17.0898 15.191 16.25 16.1111 16.25C17.0312 16.25 17.7778 17.0898 17.7778 18.125C17.7778 19.1602 17.0312 20 16.1111 20C15.191 20 14.4444 19.1602 14.4444 18.125Z" fill="#4BA047"/>
</g>
<defs>
<clipPath id="clip0_2813_32052">
<rect width="20" height="20" fill="white"/>
</clipPath>
</defs>
</svg>
