<svg width="48" height="30" viewBox="0 0 48 30" fill="none" xmlns="http://www.w3.org/2000/svg">
<path d="M43 0H5C2.23858 0 0 2.23858 0 5V25C0 27.7614 2.23858 30 5 30H43C45.7614 30 48 27.7614 48 25V5C48 2.23858 45.7614 0 43 0Z" fill="#0079BE"/>
<path fill-rule="evenodd" clip-rule="evenodd" d="M37.6944 15.161C37.6787 13.7277 37.3786 12.3117 36.8116 10.9952C36.2446 9.67867 35.422 8.48776 34.3914 7.49149C33.3608 6.49521 32.1427 5.71337 30.8078 5.19129C29.4728 4.6692 28.0475 4.41724 26.6144 4.45001H21.6294C20.2156 4.41947 18.8102 4.67582 17.4982 5.2036C16.1862 5.73137 14.9948 6.51962 13.996 7.52071C12.9972 8.5218 12.2116 9.71496 11.6868 11.0281C11.1619 12.3413 10.9087 13.7472 10.9424 15.161C10.9694 17.9723 12.1091 20.6583 14.1121 22.6311C16.1151 24.6039 18.8181 25.7027 21.6294 25.687H26.6144C32.4064 25.715 37.6944 20.953 37.6944 15.161Z" fill="white"/>
<path fill-rule="evenodd" clip-rule="evenodd" d="M21.6619 5.348C19.7385 5.34384 17.857 5.91041 16.2556 6.976C14.6543 8.04158 13.405 9.55828 12.666 11.3341C11.927 13.11 11.7315 15.0652 12.1041 16.9522C12.4767 18.8392 13.4008 20.5733 14.7594 21.935C16.1179 23.2966 17.8499 24.2246 19.7361 24.6015C21.6223 24.9784 23.5779 24.7873 25.3554 24.0523C27.133 23.3173 28.6525 22.0715 29.7217 20.4726C30.7909 18.8737 31.3617 16.9935 31.3619 15.07C31.3646 12.4946 30.3442 10.0235 28.5251 8.20036C26.7061 6.37718 24.2374 5.35118 21.6619 5.348Z" fill="#0079BE"/>
<path fill-rule="evenodd" clip-rule="evenodd" d="M15.5293 15.046C15.5306 13.8013 15.9082 12.5861 16.6126 11.5599C17.317 10.5338 18.3153 9.74458 19.4763 9.29601V20.796C18.3151 20.3477 17.3167 19.5585 16.6123 18.5323C15.9078 17.5061 15.5303 16.2907 15.5293 15.046ZM23.8763 20.798V9.298C25.038 9.74558 26.0369 10.5345 26.7414 11.5609C27.4459 12.5873 27.823 13.8031 27.823 15.048C27.823 16.2929 27.4459 17.5087 26.7414 18.5351C26.0369 19.5615 25.038 20.3504 23.8763 20.798Z" fill="white"/>
</svg>
