<svg width="48" height="30" viewBox="0 0 48 30" fill="none" xmlns="http://www.w3.org/2000/svg">
<path d="M45.8182 30H2.18182C1.6047 29.998 1.05167 29.7551 0.64306 29.324C0.234451 28.893 0.00333299 28.3087 0 27.6983L0 2.30769C0.00185344 1.69626 0.232318 1.11043 0.641087 0.678075C1.04986 0.245723 1.60373 0.00196037 2.18182 0H45.8182C46.3963 0.00196037 46.9501 0.245723 47.3589 0.678075C47.7677 1.11043 47.9981 1.69626 48 2.30769V27.6983C47.9967 28.3087 47.7655 28.893 47.3569 29.324C46.9483 29.7551 46.3953 29.998 45.8182 30Z" fill="#0E9347"/>
<path d="M41.4544 26.8461H6.54527C6.54046 25.7066 6.07977 24.6151 5.26352 23.8093C4.44727 23.0035 3.34159 22.5487 2.18726 22.544V7.46151C3.34159 7.45676 4.44727 7.00197 5.26352 6.19619C6.07977 5.39041 6.54046 4.2989 6.54527 3.15936H41.4544C41.4592 4.2989 41.9199 5.39041 42.7361 6.19619C43.5524 7.00197 44.658 7.45676 45.8124 7.46151V22.5384C44.6571 22.5432 43.5505 22.9987 42.7341 23.8057C41.9177 24.6127 41.4577 25.7056 41.4544 26.8461Z" fill="#3BB54A"/>
<path d="M23.9988 24.6923C28.8187 24.6923 32.726 20.3529 32.726 15C32.726 9.64707 28.8187 5.30768 23.9988 5.30768C19.1788 5.30768 15.2715 9.64707 15.2715 15C15.2715 20.3529 19.1788 24.6923 23.9988 24.6923Z" fill="#0E9347"/>
<path d="M10.9084 17.1539C12.1134 17.1539 13.0902 16.1895 13.0902 15C13.0902 13.8105 12.1134 12.8462 10.9084 12.8462C9.7034 12.8462 8.72656 13.8105 8.72656 15C8.72656 16.1895 9.7034 17.1539 10.9084 17.1539Z" fill="#0E9347"/>
<path d="M37.09 17.1538C38.295 17.1538 39.2718 16.1895 39.2718 15C39.2718 13.8104 38.295 12.8461 37.09 12.8461C35.885 12.8461 34.9082 13.8104 34.9082 15C34.9082 16.1895 35.885 17.1538 37.09 17.1538Z" fill="#0E9347"/>
<path d="M25.0913 13.9231H22.9094C22.6201 13.9231 22.3426 13.8097 22.1381 13.6077C21.9335 13.4057 21.8185 13.1318 21.8185 12.8462C21.8185 12.5606 21.9335 12.2867 22.1381 12.0847C22.3426 11.8828 22.6201 11.7693 22.9094 11.7693H26.1822C26.4715 11.7693 26.749 11.6558 26.9536 11.4539C27.1581 11.2519 27.2731 10.978 27.2731 10.6924C27.2731 10.4067 27.1581 10.1328 26.9536 9.93086C26.749 9.7289 26.4715 9.61544 26.1822 9.61544H25.0913C25.0913 9.47401 25.063 9.33398 25.0082 9.20332C24.9534 9.07266 24.873 8.95394 24.7717 8.85394C24.6704 8.75394 24.5502 8.67462 24.4178 8.6205C24.2855 8.56638 24.1436 8.53851 24.0004 8.53851C23.8571 8.53851 23.7152 8.56638 23.5829 8.6205C23.4505 8.67462 23.3303 8.75394 23.229 8.85394C23.1277 8.95394 23.0473 9.07266 22.9925 9.20332C22.9377 9.33398 22.9094 9.47401 22.9094 9.61544C22.0415 9.61544 21.209 9.95583 20.5953 10.5617C19.9815 11.1676 19.6367 11.9894 19.6367 12.8462C19.6367 13.7031 19.9815 14.5248 20.5953 15.1307C21.209 15.7366 22.0415 16.077 22.9094 16.077H25.0913C25.3806 16.077 25.6581 16.1904 25.8626 16.3924C26.0672 16.5944 26.1822 16.8683 26.1822 17.1539C26.1822 17.4395 26.0672 17.7134 25.8626 17.9154C25.6581 18.1174 25.3806 18.2308 25.0913 18.2308H21.8185C21.5292 18.2308 21.2517 18.3443 21.0471 18.5462C20.8426 18.7482 20.7276 19.0221 20.7276 19.3077C20.7276 19.5934 20.8426 19.8673 21.0471 20.0692C21.2517 20.2712 21.5292 20.3847 21.8185 20.3847H22.9094C22.9094 20.5261 22.9377 20.6661 22.9925 20.7968C23.0473 20.9275 23.1277 21.0462 23.229 21.1462C23.3303 21.2462 23.4505 21.3255 23.5829 21.3796C23.7152 21.4337 23.8571 21.4616 24.0004 21.4616C24.1436 21.4616 24.2855 21.4337 24.4178 21.3796C24.5502 21.3255 24.6704 21.2462 24.7717 21.1462C24.873 21.0462 24.9534 20.9275 25.0082 20.7968C25.063 20.6661 25.0913 20.5261 25.0913 20.3847C25.9593 20.3847 26.7917 20.0443 27.4054 19.4384C28.0192 18.8325 28.364 18.0107 28.364 17.1539C28.364 16.297 28.0192 15.4753 27.4054 14.8694C26.7917 14.2635 25.9593 13.9231 25.0913 13.9231Z" fill="#89C763"/>
</svg>
