<svg width="14" height="14" viewBox="0 0 14 14" fill="none" xmlns="http://www.w3.org/2000/svg">
<g id="ellipsis-vertical-solid">
<path id="Vector" d="M6.53101 9.84375C7.37593 9.84375 8.06226 10.5301 8.06226 11.375C8.06226 12.2199 7.37593 12.9062 6.53101 12.9062C5.68608 12.9062 4.99976 12.2199 4.99976 11.375C4.99976 10.5301 5.68608 9.84375 6.53101 9.84375ZM6.53101 5.46875C7.37593 5.46875 8.06226 6.15508 8.06226 7C8.06226 7.84492 7.37593 8.53125 6.53101 8.53125C5.68608 8.53125 4.99976 7.84492 4.99976 7C4.99976 6.15508 5.68608 5.46875 6.53101 5.46875ZM8.06226 2.625C8.06226 3.46992 7.37593 4.15625 6.53101 4.15625C5.68608 4.15625 4.99976 3.46992 4.99976 2.625C4.99976 1.78008 5.68608 1.09375 6.53101 1.09375C7.37593 1.09375 8.06226 1.78008 8.06226 2.625Z" fill="#707070"/>
</g>
</svg>
