<svg width="48" height="30" viewBox="0 0 48 30" fill="none" xmlns="http://www.w3.org/2000/svg">
<path d="M43 0H5C2.23858 0 0 2.23858 0 5V25C0 27.7614 2.23858 30 5 30H43C45.7614 30 48 27.7614 48 25V5C48 2.23858 45.7614 0 43 0Z" fill="black"/>
<path d="M10.2617 10.895C10.6807 10.7547 11.1198 10.6838 11.5617 10.685C12.5119 10.685 13.4328 11.0136 14.1684 11.615C14.904 12.2165 15.409 13.0538 15.5977 13.985L18.4207 13.408C18.223 12.4373 17.8215 11.5195 17.2427 10.7155C16.6639 9.9115 15.9211 9.23947 15.0633 8.74389C14.2055 8.2483 13.2523 7.94044 12.2666 7.84064C11.281 7.74085 10.2854 7.85141 9.3457 8.165L10.2617 10.895Z" fill="#FFF100"/>
<path d="M6.92646 20.048L8.83646 17.886C8.40035 17.4992 8.05122 17.0244 7.81212 16.4928C7.57302 15.9612 7.44939 15.3849 7.44939 14.802C7.44939 14.2191 7.57302 13.6428 7.81212 13.1112C8.05122 12.5796 8.40035 12.1047 8.83646 11.718L6.92646 9.561C6.18394 10.2178 5.58941 11.0249 5.18221 11.9287C4.77502 12.8326 4.56445 13.8126 4.56445 14.804C4.56445 15.7953 4.77502 16.7754 5.18221 17.6793C5.58941 18.5831 6.18394 19.3902 6.92646 20.047V20.048Z" fill="#00A3DF"/>
<path d="M15.6 15.628C15.4816 16.1985 15.2438 16.7374 14.9022 17.2095C14.5607 17.6815 14.1232 18.076 13.6184 18.367C13.1136 18.6579 12.553 18.8388 11.9733 18.8978C11.3936 18.9567 10.8081 18.8924 10.2551 18.709L9.34204 21.442C10.2817 21.7556 11.2773 21.8664 12.2629 21.7671C13.2486 21.6677 14.202 21.3604 15.0602 20.8655C15.9183 20.3706 16.6618 19.6993 17.2415 18.8959C17.8212 18.0926 18.2239 17.1754 18.423 16.205L15.6 15.628Z" fill="#EE4023"/>
<path d="M27.8281 17.562C27.5912 17.796 27.31 17.9803 27.0009 18.1041C26.6918 18.2279 26.361 18.2888 26.0281 18.283C25.5666 18.2785 25.1159 18.1432 24.7281 17.893L23.7911 19.383C24.6038 19.893 25.5642 20.1151 26.5183 20.0137C27.4724 19.9124 28.3647 19.4934 29.0521 18.824L27.8281 17.562ZM26.1341 11.49C25.3595 11.478 24.5963 11.6768 23.9261 12.0653C23.2559 12.4538 22.704 13.0172 22.3294 13.6953C21.9548 14.3733 21.7717 15.1405 21.7997 15.9146C21.8276 16.6888 22.0656 17.4407 22.4881 18.09L30.2241 14.781C30.0051 13.8559 29.4841 13.0301 28.7434 12.4342C28.0027 11.8382 27.0846 11.506 26.1341 11.49ZM23.5691 16.03C23.557 15.9305 23.551 15.8303 23.5511 15.73C23.5619 15.0635 23.8368 14.4285 24.3156 13.9646C24.7943 13.5007 25.4376 13.2458 26.1041 13.256C26.4635 13.2604 26.8177 13.3427 27.1423 13.4972C27.4669 13.6517 27.7541 13.8748 27.9841 14.151L23.5691 16.03ZM32.6541 9.569V17.815L34.0831 18.41L33.4041 20.038L31.9871 19.449C31.7008 19.3259 31.4573 19.121 31.2871 18.86C31.0974 18.5539 31.0014 18.199 31.0111 17.839V9.569H32.6541ZM37.8131 13.383C38.1512 13.2716 38.5089 13.2329 38.863 13.2694C39.217 13.3059 39.5593 13.4169 39.8675 13.5949C40.1757 13.773 40.4428 14.0142 40.6512 14.3027C40.8597 14.5912 41.0048 14.9205 41.0771 15.269L42.8011 14.915C42.604 13.9503 42.0798 13.0832 41.317 12.4606C40.5542 11.8379 39.5998 11.4979 38.6151 11.498C38.1562 11.498 37.7002 11.5709 37.2641 11.714L37.8131 13.383ZM35.7771 18.963L36.9421 17.648C36.6757 17.4119 36.4624 17.122 36.3164 16.7974C36.1703 16.4728 36.0948 16.1209 36.0948 15.765C36.0948 15.4091 36.1703 15.0572 36.3164 14.7326C36.4624 14.408 36.6757 14.1181 36.9421 13.882L35.7771 12.567C35.3234 12.9676 34.9601 13.4601 34.7113 14.0118C34.4625 14.5635 34.3338 15.1618 34.3338 15.767C34.3338 16.3722 34.4625 16.9705 34.7113 17.5222C34.9601 18.0739 35.3234 18.5664 35.7771 18.967V18.963ZM41.0771 16.272C41.0067 16.6211 40.8627 16.9511 40.6548 17.2402C40.4469 17.5293 40.1798 17.7708 39.8713 17.9487C39.5628 18.1265 39.22 18.2366 38.8656 18.2717C38.5112 18.3067 38.1535 18.2659 37.8161 18.152L37.2571 19.822C37.831 20.0147 38.4392 20.0831 39.0415 20.0228C39.6439 19.9625 40.2265 19.7748 40.7507 19.4722C41.275 19.1696 41.7289 18.759 42.0824 18.2676C42.4359 17.7762 42.6809 17.2153 42.8011 16.622L41.0771 16.272Z" fill="white"/>
</svg>
