<svg width="6" height="21" viewBox="0 0 6 21" fill="none" xmlns="http://www.w3.org/2000/svg">
<g id="Icon feather-more-vertical">
<path id="Caminho 1313" d="M2.21395 10.5383C2.22079 10.7364 2.27893 10.9277 2.38116 11.0887C2.48338 11.2496 2.62517 11.373 2.78889 11.4435C2.95262 11.514 3.13105 11.5284 3.30198 11.4851C3.47292 11.4418 3.62883 11.3425 3.75031 11.1998C3.87178 11.057 3.95347 10.8769 3.98521 10.682C4.01695 10.4871 3.99734 10.286 3.92882 10.1036C3.8603 9.92122 3.74589 9.76565 3.59983 9.65625C3.45377 9.54684 3.28249 9.48843 3.10732 9.48828C2.86579 9.49359 2.636 9.60718 2.46848 9.80409C2.30096 10.001 2.20941 10.2651 2.21395 10.5383Z" fill="#9B4DEE" stroke="#9B4DEE" stroke-width="3" stroke-linecap="round" stroke-linejoin="round"/>
<path id="Caminho 1314" d="M2.21397 3.50342C2.2208 3.70145 2.27895 3.89283 2.38117 4.05376C2.48339 4.21469 2.62519 4.33808 2.78891 4.40856C2.95263 4.47905 3.13106 4.49352 3.302 4.45019C3.47294 4.40685 3.62884 4.30762 3.75032 4.16484C3.8718 4.02206 3.95349 3.84202 3.98523 3.64712C4.01697 3.45223 3.99736 3.25108 3.92884 3.0687C3.86032 2.88631 3.74591 2.73074 3.59985 2.62134C3.45378 2.51193 3.28251 2.45352 3.10733 2.45337C2.8658 2.45868 2.63602 2.57227 2.4685 2.76918C2.30098 2.96608 2.20942 3.23018 2.21397 3.50342Z" fill="#9B4DEE" stroke="#9B4DEE" stroke-width="3" stroke-linecap="round" stroke-linejoin="round"/>
<path id="Caminho 1315" d="M2.21395 17.5754C2.22079 17.7735 2.27893 17.9648 2.38116 18.1258C2.48338 18.2867 2.62517 18.4101 2.78889 18.4806C2.95262 18.5511 3.13105 18.5655 3.30198 18.5222C3.47292 18.4789 3.62883 18.3796 3.75031 18.2369C3.87178 18.0941 3.95347 17.914 3.98521 17.7191C4.01695 17.5243 3.99734 17.3231 3.92882 17.1407C3.8603 16.9583 3.74589 16.8028 3.59983 16.6934C3.45377 16.584 3.28249 16.5255 3.10732 16.5254C2.86579 16.5307 2.636 16.6443 2.46848 16.8412C2.30096 17.0381 2.20941 17.3022 2.21395 17.5754Z" fill="#9B4DEE" stroke="#9B4DEE" stroke-width="3" stroke-linecap="round" stroke-linejoin="round"/>
</g>
</svg>
