<svg width="40" height="40" viewBox="0 0 40 40" fill="none" xmlns="http://www.w3.org/2000/svg">
<path d="M20 2.58065C29.5662 2.58065 37.4194 10.3286 37.4194 20C37.4194 29.6202 29.6282 37.4194 20 37.4194C10.3835 37.4194 2.58065 29.6321 2.58065 20C2.58065 10.3869 10.3711 2.58065 20 2.58065ZM20 0C8.95508 0 0 8.95831 0 20C0 31.0481 8.95508 40 20 40C31.0449 40 40 31.0481 40 20C40 8.95831 31.0449 0 20 0ZM19.0734 9.67742H20.9265C21.4768 9.67742 21.9164 10.1356 21.8935 10.6855L21.329 24.2339C21.3073 24.7523 20.8809 25.1613 20.362 25.1613H19.6379C19.1191 25.1613 18.6926 24.7522 18.671 24.2339L18.1065 10.6855C18.0836 10.1356 18.5231 9.67742 19.0734 9.67742ZM20 26.7742C18.7529 26.7742 17.7419 27.7852 17.7419 29.0323C17.7419 30.2794 18.7529 31.2903 20 31.2903C21.2471 31.2903 22.2581 30.2794 22.2581 29.0323C22.2581 27.7852 21.2471 26.7742 20 26.7742Z" fill="#7C1AE3"/>
</svg>
