<svg width="142" height="142" viewBox="0 0 142 142" fill="none" xmlns="http://www.w3.org/2000/svg">
<rect x="0.50423" y="1.68543" width="139" height="139" rx="69.5" transform="rotate(-0.486852 0.50423 1.68543)" fill="#EBEBEB" stroke="#707070" stroke-dasharray="4 4"/>
<path d="M27.68 100.66V89.4602H29.28V100.66H27.68ZM37.4371 92.1002C38.1305 92.1002 38.7385 92.2335 39.2611 92.5002C39.7945 92.7668 40.2105 93.1722 40.5091 93.7162C40.8078 94.2602 40.9571 94.9482 40.9571 95.7802V100.66H39.4211V95.9562C39.4211 95.1348 39.2185 94.5162 38.8131 94.1002C38.4185 93.6842 37.8585 93.4762 37.1331 93.4762C36.5891 93.4762 36.1145 93.5828 35.7091 93.7962C35.3038 94.0095 34.9891 94.3242 34.7651 94.7402C34.5518 95.1562 34.4451 95.6735 34.4451 96.2922V100.66H32.9091V92.1802H34.3811V94.4682L34.1411 93.8602C34.4185 93.3055 34.8451 92.8735 35.4211 92.5642C35.9971 92.2548 36.6691 92.1002 37.4371 92.1002ZM46.7318 100.756C46.0278 100.756 45.3558 100.66 44.7158 100.468C44.0864 100.276 43.5904 100.041 43.2278 99.7642L43.8678 98.5482C44.2304 98.7935 44.6784 99.0015 45.2118 99.1722C45.7451 99.3428 46.2891 99.4282 46.8438 99.4282C47.5584 99.4282 48.0704 99.3268 48.3798 99.1242C48.6998 98.9215 48.8598 98.6388 48.8598 98.2762C48.8598 98.0095 48.7638 97.8015 48.5718 97.6522C48.3798 97.5028 48.1238 97.3908 47.8038 97.3162C47.4944 97.2415 47.1478 97.1775 46.7638 97.1242C46.3798 97.0602 45.9958 96.9855 45.6118 96.9002C45.2278 96.8042 44.8758 96.6762 44.5558 96.5162C44.2358 96.3455 43.9798 96.1162 43.7878 95.8282C43.5958 95.5295 43.4998 95.1348 43.4998 94.6442C43.4998 94.1322 43.6438 93.6842 43.9318 93.3002C44.2198 92.9162 44.6251 92.6228 45.1478 92.4202C45.6811 92.2068 46.3104 92.1002 47.0358 92.1002C47.5904 92.1002 48.1504 92.1695 48.7158 92.3082C49.2918 92.4362 49.7611 92.6228 50.1238 92.8682L49.4678 94.0842C49.0838 93.8282 48.6838 93.6522 48.2678 93.5562C47.8518 93.4602 47.4358 93.4122 47.0198 93.4122C46.3478 93.4122 45.8464 93.5242 45.5158 93.7482C45.1851 93.9615 45.0198 94.2388 45.0198 94.5802C45.0198 94.8682 45.1158 95.0922 45.3078 95.2522C45.5104 95.4015 45.7664 95.5188 46.0758 95.6042C46.3958 95.6895 46.7478 95.7642 47.1318 95.8282C47.5158 95.8815 47.8998 95.9562 48.2838 96.0522C48.6678 96.1375 49.0144 96.2602 49.3238 96.4202C49.6438 96.5802 49.8998 96.8042 50.0918 97.0922C50.2944 97.3802 50.3958 97.7642 50.3958 98.2442C50.3958 98.7562 50.2464 99.1988 49.9478 99.5722C49.6491 99.9455 49.2278 100.239 48.6838 100.452C48.1398 100.655 47.4891 100.756 46.7318 100.756ZM56.5914 100.756C55.6847 100.756 54.8847 100.569 54.1914 100.196C53.5087 99.8228 52.9754 99.3108 52.5914 98.6602C52.218 98.0095 52.0314 97.2628 52.0314 96.4202C52.0314 95.5775 52.2127 94.8308 52.5754 94.1802C52.9487 93.5295 53.4554 93.0228 54.0954 92.6602C54.746 92.2868 55.4767 92.1002 56.2874 92.1002C57.1087 92.1002 57.834 92.2815 58.4634 92.6442C59.0927 93.0068 59.5834 93.5188 59.9354 94.1802C60.298 94.8308 60.4794 95.5935 60.4794 96.4682C60.4794 96.5322 60.474 96.6068 60.4634 96.6922C60.4634 96.7775 60.458 96.8575 60.4474 96.9322H53.2314V95.8282H59.6474L59.0234 96.2122C59.034 95.6682 58.922 95.1828 58.6874 94.7562C58.4527 94.3295 58.1274 93.9988 57.7114 93.7642C57.306 93.5188 56.8314 93.3962 56.2874 93.3962C55.754 93.3962 55.2794 93.5188 54.8634 93.7642C54.4474 93.9988 54.122 94.3348 53.8874 94.7722C53.6527 95.1988 53.5354 95.6895 53.5354 96.2442V96.5002C53.5354 97.0655 53.6634 97.5722 53.9194 98.0202C54.186 98.4575 54.554 98.7988 55.0234 99.0442C55.4927 99.2895 56.0314 99.4122 56.6394 99.4122C57.1407 99.4122 57.594 99.3268 57.9994 99.1562C58.4154 98.9855 58.778 98.7295 59.0874 98.3882L59.9354 99.3802C59.5514 99.8282 59.0714 100.169 58.4954 100.404C57.93 100.639 57.2954 100.756 56.5914 100.756ZM63.1123 100.66V92.1802H64.5843V94.4842L64.4403 93.9082C64.6749 93.3215 65.0696 92.8735 65.6243 92.5642C66.1789 92.2548 66.8616 92.1002 67.6723 92.1002V93.5882C67.6083 93.5775 67.5443 93.5722 67.4803 93.5722C67.4269 93.5722 67.3736 93.5722 67.3203 93.5722C66.4989 93.5722 65.8483 93.8175 65.3683 94.3082C64.8883 94.7988 64.6483 95.5082 64.6483 96.4362V100.66H63.1123ZM70.0654 100.66V92.1802H71.6014V100.66H70.0654ZM70.8334 90.5482C70.5347 90.5482 70.284 90.4522 70.0814 90.2602C69.8894 90.0682 69.7934 89.8335 69.7934 89.5562C69.7934 89.2682 69.8894 89.0282 70.0814 88.8362C70.284 88.6442 70.5347 88.5482 70.8334 88.5482C71.132 88.5482 71.3774 88.6442 71.5694 88.8362C71.772 89.0175 71.8734 89.2468 71.8734 89.5242C71.8734 89.8122 71.7774 90.0575 71.5854 90.2602C71.3934 90.4522 71.1427 90.5482 70.8334 90.5482ZM75.0341 100.66V92.1802H76.5061V94.4842L76.3621 93.9082C76.5968 93.3215 76.9915 92.8735 77.5461 92.5642C78.1008 92.2548 78.7835 92.1002 79.5941 92.1002V93.5882C79.5301 93.5775 79.4661 93.5722 79.4021 93.5722C79.3488 93.5722 79.2955 93.5722 79.2421 93.5722C78.4208 93.5722 77.7701 93.8175 77.2901 94.3082C76.8101 94.7988 76.5701 95.5082 76.5701 96.4362V100.66H75.0341ZM86.8935 100.66V88.7882H88.4295V100.66H86.8935ZM95.4943 100.756C94.6409 100.756 93.8836 100.569 93.2223 100.196C92.5609 99.8228 92.0383 99.3108 91.6543 98.6602C91.2703 97.9988 91.0783 97.2522 91.0783 96.4202C91.0783 95.5775 91.2703 94.8308 91.6543 94.1802C92.0383 93.5295 92.5609 93.0228 93.2223 92.6602C93.8836 92.2868 94.6409 92.1002 95.4943 92.1002C96.3369 92.1002 97.0889 92.2868 97.7503 92.6602C98.4223 93.0228 98.9449 93.5295 99.3183 94.1802C99.7023 94.8202 99.8943 95.5668 99.8943 96.4202C99.8943 97.2628 99.7023 98.0095 99.3183 98.6602C98.9449 99.3108 98.4223 99.8228 97.7503 100.196C97.0889 100.569 96.3369 100.756 95.4943 100.756ZM95.4943 99.4122C96.0383 99.4122 96.5236 99.2895 96.9503 99.0442C97.3876 98.7988 97.7289 98.4522 97.9743 98.0042C98.2196 97.5455 98.3423 97.0175 98.3423 96.4202C98.3423 95.8122 98.2196 95.2895 97.9743 94.8522C97.7289 94.4042 97.3876 94.0575 96.9503 93.8122C96.5236 93.5668 96.0383 93.4442 95.4943 93.4442C94.9503 93.4442 94.4649 93.5668 94.0383 93.8122C93.6116 94.0575 93.2703 94.4042 93.0143 94.8522C92.7583 95.2895 92.6303 95.8122 92.6303 96.4202C92.6303 97.0175 92.7583 97.5455 93.0143 98.0042C93.2703 98.4522 93.6116 98.7988 94.0383 99.0442C94.4649 99.2895 94.9503 99.4122 95.4943 99.4122ZM106.231 103.86C105.452 103.86 104.695 103.748 103.959 103.524C103.233 103.311 102.641 103.001 102.183 102.596L102.919 101.412C103.313 101.753 103.799 102.02 104.375 102.212C104.951 102.415 105.553 102.516 106.183 102.516C107.185 102.516 107.921 102.281 108.391 101.812C108.86 101.343 109.095 100.628 109.095 99.6682V97.8762L109.255 96.1962L109.175 94.5002V92.1802H110.631V99.5082C110.631 101.001 110.257 102.1 109.51 102.804C108.764 103.508 107.671 103.86 106.231 103.86ZM106.039 100.308C105.217 100.308 104.481 100.137 103.831 99.7962C103.191 99.4442 102.679 98.9588 102.295 98.3402C101.921 97.7215 101.735 97.0068 101.735 96.1962C101.735 95.3748 101.921 94.6602 102.295 94.0522C102.679 93.4335 103.191 92.9535 103.831 92.6122C104.481 92.2708 105.217 92.1002 106.039 92.1002C106.764 92.1002 107.425 92.2495 108.023 92.5482C108.62 92.8362 109.095 93.2842 109.447 93.8922C109.809 94.5002 109.991 95.2682 109.991 96.1962C109.991 97.1135 109.809 97.8762 109.447 98.4842C109.095 99.0922 108.62 99.5508 108.023 99.8602C107.425 100.159 106.764 100.308 106.039 100.308ZM106.215 98.9642C106.78 98.9642 107.281 98.8468 107.719 98.6122C108.156 98.3775 108.497 98.0522 108.743 97.6362C108.999 97.2202 109.127 96.7402 109.127 96.1962C109.127 95.6522 108.999 95.1722 108.743 94.7562C108.497 94.3402 108.156 94.0202 107.719 93.7962C107.281 93.5615 106.78 93.4442 106.215 93.4442C105.649 93.4442 105.143 93.5615 104.695 93.7962C104.257 94.0202 103.911 94.3402 103.655 94.7562C103.409 95.1722 103.287 95.6522 103.287 96.1962C103.287 96.7402 103.409 97.2202 103.655 97.6362C103.911 98.0522 104.257 98.3775 104.695 98.6122C105.143 98.8468 105.649 98.9642 106.215 98.9642ZM117.697 100.756C116.844 100.756 116.087 100.569 115.425 100.196C114.764 99.8228 114.241 99.3108 113.857 98.6602C113.473 97.9988 113.281 97.2522 113.281 96.4202C113.281 95.5775 113.473 94.8308 113.857 94.1802C114.241 93.5295 114.764 93.0228 115.425 92.6602C116.087 92.2868 116.844 92.1002 117.697 92.1002C118.54 92.1002 119.292 92.2868 119.953 92.6602C120.625 93.0228 121.148 93.5295 121.521 94.1802C121.905 94.8202 122.097 95.5668 122.097 96.4202C122.097 97.2628 121.905 98.0095 121.521 98.6602C121.148 99.3108 120.625 99.8228 119.953 100.196C119.292 100.569 118.54 100.756 117.697 100.756ZM117.697 99.4122C118.241 99.4122 118.727 99.2895 119.153 99.0442C119.591 98.7988 119.932 98.4522 120.177 98.0042C120.423 97.5455 120.545 97.0175 120.545 96.4202C120.545 95.8122 120.423 95.2895 120.177 94.8522C119.932 94.4042 119.591 94.0575 119.153 93.8122C118.727 93.5668 118.241 93.4442 117.697 93.4442C117.153 93.4442 116.668 93.5668 116.241 93.8122C115.815 94.0575 115.473 94.4042 115.217 94.8522C114.961 95.2895 114.833 95.8122 114.833 96.4202C114.833 97.0175 114.961 97.5455 115.217 98.0042C115.473 98.4522 115.815 98.7988 116.241 99.0442C116.668 99.2895 117.153 99.4122 117.697 99.4122Z" fill="#707070"/>
<path d="M63.1148 54.5579L62.479 56.4652H57.9124C55.7545 56.4652 54 58.2197 54 60.3776V76.0274C54 78.1853 55.7545 79.9398 57.9124 79.9398H81.3871C83.545 79.9398 85.2995 78.1853 85.2995 76.0274V60.3776C85.2995 58.2197 83.545 56.4652 81.3871 56.4652H76.8205L76.1847 54.5579C75.7874 53.3597 74.6687 52.5527 73.4032 52.5527H65.8963C64.6308 52.5527 63.5121 53.3597 63.1148 54.5579ZM69.6497 74.0711C66.4098 74.0711 63.7811 71.4425 63.7811 68.2025C63.7811 64.9625 66.4098 62.3338 69.6497 62.3338C72.8897 62.3338 75.5184 64.9625 75.5184 68.2025C75.5184 71.4425 72.8897 74.0711 69.6497 74.0711Z" fill="#ACACAC"/>
<rect x="80.0977" y="51.7366" width="16.6411" height="16.6411" rx="8.32054" fill="#ACACAC"/>
<path d="M93.137 60.1398C93.137 60.5249 92.825 60.8367 92.4403 60.8367H89.305V63.972C89.305 64.3572 88.993 64.6685 88.6083 64.6685C88.2236 64.6685 87.9116 64.3572 87.9116 63.972V60.8367H84.7763C84.3916 60.8367 84.0796 60.5249 84.0796 60.1398C84.0796 59.7546 84.3916 59.4433 84.7763 59.4433H87.9116V56.308C87.9116 55.9229 88.2236 55.6111 88.6083 55.6111C88.993 55.6111 89.305 55.9229 89.305 56.308V59.4433H92.4403C92.8257 59.4431 93.137 59.7544 93.137 60.1398Z" fill="#EBEBEB"/>
<rect x="80.0977" y="51.7366" width="16.6411" height="16.6411" rx="8.32054" stroke="#EBEBEB" stroke-width="1.47375"/>
</svg>
