<svg width="97" height="56" viewBox="0 0 97 56" fill="none" xmlns="http://www.w3.org/2000/svg">
<path d="M1.68 49.6602V38.4602H3.28V49.6602H1.68ZM11.4371 41.1002C12.1305 41.1002 12.7385 41.2335 13.2611 41.5002C13.7945 41.7668 14.2105 42.1722 14.5091 42.7162C14.8078 43.2602 14.9571 43.9482 14.9571 44.7802V49.6602H13.4211V44.9562C13.4211 44.1348 13.2185 43.5162 12.8131 43.1002C12.4185 42.6842 11.8585 42.4762 11.1331 42.4762C10.5891 42.4762 10.1145 42.5828 9.70913 42.7962C9.30379 43.0095 8.98913 43.3242 8.76513 43.7402C8.55179 44.1562 8.44513 44.6735 8.44513 45.2922V49.6602H6.90913V41.1802H8.38113V43.4682L8.14113 42.8602C8.41846 42.3055 8.84513 41.8735 9.42113 41.5642C9.99713 41.2548 10.6691 41.1002 11.4371 41.1002ZM20.7318 49.7562C20.0278 49.7562 19.3558 49.6602 18.7158 49.4682C18.0864 49.2762 17.5904 49.0415 17.2278 48.7642L17.8678 47.5482C18.2304 47.7935 18.6784 48.0015 19.2118 48.1722C19.7451 48.3428 20.2891 48.4282 20.8438 48.4282C21.5584 48.4282 22.0704 48.3268 22.3798 48.1242C22.6998 47.9215 22.8598 47.6388 22.8598 47.2762C22.8598 47.0095 22.7638 46.8015 22.5718 46.6522C22.3798 46.5028 22.1238 46.3908 21.8038 46.3162C21.4944 46.2415 21.1478 46.1775 20.7638 46.1242C20.3798 46.0602 19.9958 45.9855 19.6118 45.9002C19.2278 45.8042 18.8758 45.6762 18.5558 45.5162C18.2358 45.3455 17.9798 45.1162 17.7878 44.8282C17.5958 44.5295 17.4998 44.1348 17.4998 43.6442C17.4998 43.1322 17.6438 42.6842 17.9318 42.3002C18.2198 41.9162 18.6251 41.6228 19.1478 41.4202C19.6811 41.2068 20.3104 41.1002 21.0358 41.1002C21.5904 41.1002 22.1504 41.1695 22.7158 41.3082C23.2918 41.4362 23.7611 41.6228 24.1238 41.8682L23.4678 43.0842C23.0838 42.8282 22.6838 42.6522 22.2678 42.5562C21.8518 42.4602 21.4358 42.4122 21.0198 42.4122C20.3478 42.4122 19.8464 42.5242 19.5158 42.7482C19.1851 42.9615 19.0198 43.2388 19.0198 43.5802C19.0198 43.8682 19.1158 44.0922 19.3078 44.2522C19.5104 44.4015 19.7664 44.5188 20.0758 44.6042C20.3958 44.6895 20.7478 44.7642 21.1318 44.8282C21.5158 44.8815 21.8998 44.9562 22.2838 45.0522C22.6678 45.1375 23.0144 45.2602 23.3238 45.4202C23.6438 45.5802 23.8998 45.8042 24.0918 46.0922C24.2944 46.3802 24.3958 46.7642 24.3958 47.2442C24.3958 47.7562 24.2464 48.1988 23.9478 48.5722C23.6491 48.9455 23.2278 49.2388 22.6838 49.4522C22.1398 49.6548 21.4891 49.7562 20.7318 49.7562ZM30.5914 49.7562C29.6847 49.7562 28.8847 49.5695 28.1914 49.1962C27.5087 48.8228 26.9754 48.3108 26.5914 47.6602C26.218 47.0095 26.0314 46.2628 26.0314 45.4202C26.0314 44.5775 26.2127 43.8308 26.5754 43.1802C26.9487 42.5295 27.4554 42.0228 28.0954 41.6602C28.746 41.2868 29.4767 41.1002 30.2874 41.1002C31.1087 41.1002 31.834 41.2815 32.4634 41.6442C33.0927 42.0068 33.5834 42.5188 33.9354 43.1802C34.298 43.8308 34.4794 44.5935 34.4794 45.4682C34.4794 45.5322 34.474 45.6068 34.4634 45.6922C34.4634 45.7775 34.458 45.8575 34.4474 45.9322H27.2314V44.8282H33.6474L33.0234 45.2122C33.034 44.6682 32.922 44.1828 32.6874 43.7562C32.4527 43.3295 32.1274 42.9988 31.7114 42.7642C31.306 42.5188 30.8314 42.3962 30.2874 42.3962C29.754 42.3962 29.2794 42.5188 28.8634 42.7642C28.4474 42.9988 28.122 43.3348 27.8874 43.7722C27.6527 44.1988 27.5354 44.6895 27.5354 45.2442V45.5002C27.5354 46.0655 27.6634 46.5722 27.9194 47.0202C28.186 47.4575 28.554 47.7988 29.0234 48.0442C29.4927 48.2895 30.0314 48.4122 30.6394 48.4122C31.1407 48.4122 31.594 48.3268 31.9994 48.1562C32.4154 47.9855 32.778 47.7295 33.0874 47.3882L33.9354 48.3802C33.5514 48.8282 33.0714 49.1695 32.4954 49.4042C31.93 49.6388 31.2954 49.7562 30.5914 49.7562ZM37.1123 49.6602V41.1802H38.5843V43.4842L38.4403 42.9082C38.6749 42.3215 39.0696 41.8735 39.6243 41.5642C40.1789 41.2548 40.8616 41.1002 41.6723 41.1002V42.5882C41.6083 42.5775 41.5443 42.5722 41.4803 42.5722C41.4269 42.5722 41.3736 42.5722 41.3203 42.5722C40.4989 42.5722 39.8483 42.8175 39.3683 43.3082C38.8883 43.7988 38.6483 44.5082 38.6483 45.4362V49.6602H37.1123ZM44.0654 49.6602V41.1802H45.6014V49.6602H44.0654ZM44.8334 39.5482C44.5347 39.5482 44.284 39.4522 44.0814 39.2602C43.8894 39.0682 43.7934 38.8335 43.7934 38.5562C43.7934 38.2682 43.8894 38.0282 44.0814 37.8362C44.284 37.6442 44.5347 37.5482 44.8334 37.5482C45.132 37.5482 45.3774 37.6442 45.5694 37.8362C45.772 38.0175 45.8734 38.2468 45.8734 38.5242C45.8734 38.8122 45.7774 39.0575 45.5854 39.2602C45.3934 39.4522 45.1427 39.5482 44.8334 39.5482ZM49.0341 49.6602V41.1802H50.5061V43.4842L50.3621 42.9082C50.5968 42.3215 50.9915 41.8735 51.5461 41.5642C52.1008 41.2548 52.7835 41.1002 53.5941 41.1002V42.5882C53.5301 42.5775 53.4661 42.5722 53.4021 42.5722C53.3488 42.5722 53.2955 42.5722 53.2421 42.5722C52.4208 42.5722 51.7701 42.8175 51.2901 43.3082C50.8101 43.7988 50.5701 44.5082 50.5701 45.4362V49.6602H49.0341ZM60.8935 49.6602V37.7882H62.4295V49.6602H60.8935ZM69.4943 49.7562C68.6409 49.7562 67.8836 49.5695 67.2223 49.1962C66.5609 48.8228 66.0383 48.3108 65.6543 47.6602C65.2703 46.9988 65.0783 46.2522 65.0783 45.4202C65.0783 44.5775 65.2703 43.8308 65.6543 43.1802C66.0383 42.5295 66.5609 42.0228 67.2223 41.6602C67.8836 41.2868 68.6409 41.1002 69.4943 41.1002C70.3369 41.1002 71.0889 41.2868 71.7503 41.6602C72.4223 42.0228 72.9449 42.5295 73.3183 43.1802C73.7023 43.8202 73.8943 44.5668 73.8943 45.4202C73.8943 46.2628 73.7023 47.0095 73.3183 47.6602C72.9449 48.3108 72.4223 48.8228 71.7503 49.1962C71.0889 49.5695 70.3369 49.7562 69.4943 49.7562ZM69.4943 48.4122C70.0383 48.4122 70.5236 48.2895 70.9503 48.0442C71.3876 47.7988 71.7289 47.4522 71.9743 47.0042C72.2196 46.5455 72.3423 46.0175 72.3423 45.4202C72.3423 44.8122 72.2196 44.2895 71.9743 43.8522C71.7289 43.4042 71.3876 43.0575 70.9503 42.8122C70.5236 42.5668 70.0383 42.4442 69.4943 42.4442C68.9503 42.4442 68.4649 42.5668 68.0383 42.8122C67.6116 43.0575 67.2703 43.4042 67.0143 43.8522C66.7583 44.2895 66.6303 44.8122 66.6303 45.4202C66.6303 46.0175 66.7583 46.5455 67.0143 47.0042C67.2703 47.4522 67.6116 47.7988 68.0383 48.0442C68.4649 48.2895 68.9503 48.4122 69.4943 48.4122ZM80.2305 52.8602C79.4518 52.8602 78.6945 52.7482 77.9585 52.5242C77.2332 52.3108 76.6412 52.0015 76.1825 51.5962L76.9185 50.4122C77.3132 50.7535 77.7985 51.0202 78.3745 51.2122C78.9505 51.4148 79.5532 51.5162 80.1825 51.5162C81.1852 51.5162 81.9212 51.2815 82.3905 50.8122C82.8598 50.3428 83.0945 49.6282 83.0945 48.6682V46.8762L83.2545 45.1962L83.1745 43.5002V41.1802H84.6305V48.5082C84.6305 50.0015 84.2572 51.1002 83.5105 51.8042C82.7638 52.5082 81.6705 52.8602 80.2305 52.8602ZM80.0385 49.3082C79.2172 49.3082 78.4812 49.1375 77.8305 48.7962C77.1905 48.4442 76.6785 47.9588 76.2945 47.3402C75.9212 46.7215 75.7345 46.0068 75.7345 45.1962C75.7345 44.3748 75.9212 43.6602 76.2945 43.0522C76.6785 42.4335 77.1905 41.9535 77.8305 41.6122C78.4812 41.2708 79.2172 41.1002 80.0385 41.1002C80.7638 41.1002 81.4252 41.2495 82.0225 41.5482C82.6198 41.8362 83.0945 42.2842 83.4465 42.8922C83.8092 43.5002 83.9905 44.2682 83.9905 45.1962C83.9905 46.1135 83.8092 46.8762 83.4465 47.4842C83.0945 48.0922 82.6198 48.5508 82.0225 48.8602C81.4252 49.1588 80.7638 49.3082 80.0385 49.3082ZM80.2145 47.9642C80.7798 47.9642 81.2812 47.8468 81.7185 47.6122C82.1558 47.3775 82.4972 47.0522 82.7425 46.6362C82.9985 46.2202 83.1265 45.7402 83.1265 45.1962C83.1265 44.6522 82.9985 44.1722 82.7425 43.7562C82.4972 43.3402 82.1558 43.0202 81.7185 42.7962C81.2812 42.5615 80.7798 42.4442 80.2145 42.4442C79.6492 42.4442 79.1425 42.5615 78.6945 42.7962C78.2572 43.0202 77.9105 43.3402 77.6545 43.7562C77.4092 44.1722 77.2865 44.6522 77.2865 45.1962C77.2865 45.7402 77.4092 46.2202 77.6545 46.6362C77.9105 47.0522 78.2572 47.3775 78.6945 47.6122C79.1425 47.8468 79.6492 47.9642 80.2145 47.9642ZM91.6974 49.7562C90.844 49.7562 90.0867 49.5695 89.4254 49.1962C88.764 48.8228 88.2414 48.3108 87.8574 47.6602C87.4734 46.9988 87.2814 46.2522 87.2814 45.4202C87.2814 44.5775 87.4734 43.8308 87.8574 43.1802C88.2414 42.5295 88.764 42.0228 89.4254 41.6602C90.0867 41.2868 90.844 41.1002 91.6974 41.1002C92.54 41.1002 93.292 41.2868 93.9534 41.6602C94.6254 42.0228 95.148 42.5295 95.5214 43.1802C95.9054 43.8202 96.0974 44.5668 96.0974 45.4202C96.0974 46.2628 95.9054 47.0095 95.5214 47.6602C95.148 48.3108 94.6254 48.8228 93.9534 49.1962C93.292 49.5695 92.54 49.7562 91.6974 49.7562ZM91.6974 48.4122C92.2414 48.4122 92.7267 48.2895 93.1534 48.0442C93.5907 47.7988 93.932 47.4522 94.1774 47.0042C94.4227 46.5455 94.5454 46.0175 94.5454 45.4202C94.5454 44.8122 94.4227 44.2895 94.1774 43.8522C93.932 43.4042 93.5907 43.0575 93.1534 42.8122C92.7267 42.5668 92.2414 42.4442 91.6974 42.4442C91.1534 42.4442 90.668 42.5668 90.2414 42.8122C89.8147 43.0575 89.4734 43.4042 89.2174 43.8522C88.9614 44.2895 88.8334 44.8122 88.8334 45.4202C88.8334 46.0175 88.9614 46.5455 89.2174 47.0042C89.4734 47.4522 89.8147 47.7988 90.2414 48.0442C90.668 48.2895 91.1534 48.4122 91.6974 48.4122Z" fill="#707070"/>
<path d="M37.1148 3.55786L36.479 5.46517H31.9124C29.7545 5.46517 28 7.21965 28 9.37761V25.0274C28 27.1853 29.7545 28.9398 31.9124 28.9398H55.3871C57.545 28.9398 59.2995 27.1853 59.2995 25.0274V9.37761C59.2995 7.21965 57.545 5.46517 55.3871 5.46517H50.8205L50.1847 3.55786C49.7874 2.35967 48.6687 1.55273 47.4032 1.55273H39.8963C38.6308 1.55273 37.5121 2.35967 37.1148 3.55786ZM43.6497 23.0711C40.4098 23.0711 37.7811 20.4425 37.7811 17.2025C37.7811 13.9625 40.4098 11.3338 43.6497 11.3338C46.8897 11.3338 49.5184 13.9625 49.5184 17.2025C49.5184 20.4425 46.8897 23.0711 43.6497 23.0711Z" fill="#ACACAC"/>
<rect x="54.0977" y="0.73663" width="16.6411" height="16.6411" rx="8.32054" fill="#ACACAC"/>
<path d="M67.137 9.13979C67.137 9.52495 66.825 9.83673 66.4403 9.83673H63.305V12.972C63.305 13.3572 62.993 13.6685 62.6083 13.6685C62.2236 13.6685 61.9116 13.3572 61.9116 12.972V9.83673H58.7763C58.3916 9.83673 58.0796 9.52495 58.0796 9.13979C58.0796 8.75463 58.3916 8.44328 58.7763 8.44328H61.9116V5.30803C61.9116 4.92287 62.2236 4.61108 62.6083 4.61108C62.993 4.61108 63.305 4.92287 63.305 5.30803V8.44328H66.4403C66.8257 8.44307 67.137 8.75442 67.137 9.13979Z" fill="#EBEBEB"/>
<rect x="54.0977" y="0.73663" width="16.6411" height="16.6411" rx="8.32054" stroke="#EBEBEB" stroke-width="1.47375"/>
</svg>
