<svg width="16" height="8" viewBox="0 0 16 8" fill="none" xmlns="http://www.w3.org/2000/svg">
<path d="M0 4C0 1.79 1.79 0 4 0H6.4C6.8425 0 7.2 0.3575 7.2 0.8C7.2 1.2425 6.8425 1.6 6.4 1.6H4C2.675 1.6 1.6 2.675 1.6 4C1.6 5.325 2.675 6.4 4 6.4H6.4C6.8425 6.4 7.2 6.7575 7.2 7.2C7.2 7.6425 6.8425 8 6.4 8H4C1.79 8 0 6.21 0 4ZM16 4C16 6.21 14.21 8 12 8H9.6C9.1575 8 8.8 7.6425 8.8 7.2C8.8 6.7575 9.1575 6.4 9.6 6.4H12C13.325 6.4 14.4 5.325 14.4 4C14.4 2.675 13.325 1.6 12 1.6H9.6C9.1575 1.6 8.8 1.2425 8.8 0.8C8.8 0.3575 9.1575 0 9.6 0H12C14.21 0 16 1.79 16 4ZM5.6 3.2H10.4C10.8425 3.2 11.2 3.5575 11.2 4C11.2 4.4425 10.8425 4.8 10.4 4.8H5.6C5.1575 4.8 4.8 4.4425 4.8 4C4.8 3.5575 5.1575 3.2 5.6 3.2Z" fill="#707070"/>
</svg>
