<svg width="11" height="14" viewBox="0 0 11 14" fill="none" xmlns="http://www.w3.org/2000/svg">
<path id="Vector" d="M0.652707 0.0597012C0.884163 -0.0469464 1.15646 -0.00866263 1.3498 0.158145L2.4499 1.1043L3.55 0.158145C3.79507 -0.0524155 4.15723 -0.0524155 4.39958 0.158145L5.49968 1.1043L6.59977 0.158145C6.84484 -0.0524155 7.20428 -0.0524155 7.44935 0.158145L8.54945 1.1043L9.64955 0.158145C9.84289 -0.00866263 10.1152 -0.0469464 10.3466 0.0597012C10.5781 0.166349 10.7279 0.398786 10.7279 0.655834V13.3442C10.7279 13.6012 10.5781 13.8337 10.3466 13.9403C10.1152 14.0469 9.84289 14.0087 9.64955 13.8419L8.54945 12.8957L7.44935 13.8419C7.20428 14.0524 6.84484 14.0524 6.59977 13.8419L5.49968 12.8957L4.39958 13.8419C4.15451 14.0524 3.79234 14.0524 3.55 13.8419L2.4499 12.8957L1.3498 13.8419C1.15646 14.0087 0.884163 14.0469 0.652707 13.9403C0.42125 13.8337 0.271484 13.6012 0.271484 13.3442V0.655834C0.271484 0.398786 0.42125 0.166349 0.652707 0.0597012ZM2.88558 3.9373C2.64595 3.9373 2.4499 4.13419 2.4499 4.37483C2.4499 4.61547 2.64595 4.81236 2.88558 4.81236H8.11377C8.3534 4.81236 8.54945 4.61547 8.54945 4.37483C8.54945 4.13419 8.3534 3.9373 8.11377 3.9373H2.88558ZM2.4499 9.62517C2.4499 9.86581 2.64595 10.0627 2.88558 10.0627H8.11377C8.3534 10.0627 8.54945 9.86581 8.54945 9.62517C8.54945 9.38453 8.3534 9.18764 8.11377 9.18764H2.88558C2.64595 9.18764 2.4499 9.38453 2.4499 9.62517ZM2.88558 6.56247C2.64595 6.56247 2.4499 6.75936 2.4499 7C2.4499 7.24064 2.64595 7.43753 2.88558 7.43753H8.11377C8.3534 7.43753 8.54945 7.24064 8.54945 7C8.54945 6.75936 8.3534 6.56247 8.11377 6.56247H2.88558Z" fill="#707070"/>
</svg>
