<svg width="20" height="20" viewBox="0 0 20 20" fill="none" xmlns="http://www.w3.org/2000/svg">
<rect width="20" height="20" rx="10" fill="#6D0BDA"/>
<path d="M15.8367 14.3742L13.5005 12.0369C13.4479 11.9845 13.3855 11.943 13.3168 11.9148C13.2481 11.8867 13.1745 11.8724 13.1003 11.8728H12.7181C13.4817 10.8945 13.8434 9.66185 13.7293 8.42615C13.6152 7.19044 13.034 6.04477 12.1042 5.22274C11.1744 4.40071 9.96601 3.96423 8.72542 4.0023C7.48484 4.04036 6.30549 4.55011 5.42785 5.4276C4.5502 6.30509 4.04037 7.48424 4.0023 8.72461C3.96422 9.96498 4.40078 11.1732 5.22295 12.1028C6.04512 13.0325 7.19099 13.6136 8.42691 13.7276C9.66283 13.8417 10.8957 13.4801 11.8742 12.7166V13.0987C11.8738 13.173 11.8881 13.2465 11.9162 13.3152C11.9444 13.3839 11.9859 13.4463 12.0383 13.4989L14.376 15.8347C14.428 15.8871 14.49 15.9286 14.5582 15.957C14.6264 15.9854 14.6995 16 14.7734 16C14.8473 16 14.9204 15.9854 14.9886 15.957C15.0569 15.9286 15.1188 15.8871 15.1709 15.8347L15.8342 15.1714C15.9399 15.0659 15.9995 14.9227 16 14.7733C16.0005 14.6239 15.9418 14.4804 15.8367 14.3742ZM8.87268 11.8733C8.27903 11.8733 7.69872 11.6973 7.20513 11.3676C6.71153 11.0378 6.32682 10.5691 6.09964 10.0208C5.87246 9.47241 5.81302 8.86901 5.92884 8.28687C6.04465 7.70474 6.33052 7.17001 6.75029 6.75031C7.17006 6.33062 7.70487 6.0448 8.28711 5.929C8.86935 5.81321 9.47285 5.87264 10.0213 6.09978C10.5698 6.32692 11.0385 6.71156 11.3683 7.20507C11.6982 7.69858 11.8742 8.2788 11.8742 8.87234C11.8739 9.66808 11.5576 10.4311 10.9947 10.9937C10.4319 11.5563 9.66856 11.8723 8.87268 11.8723V11.8733Z" fill="white"/>
</svg>
