<svg width="11" height="14" viewBox="0 0 11 14" fill="none" xmlns="http://www.w3.org/2000/svg">
<path d="M5.95118 13.65C7.36655 11.8945 10.5946 7.63984 10.5946 5.25C10.5946 2.35156 8.22185 0 5.2973 0C2.37275 0 0 2.35156 0 5.25C0 7.63984 3.22804 11.8945 4.64341 13.65C4.98277 14.0684 5.61182 14.0684 5.95118 13.65ZM5.2973 7C4.32337 7 3.53153 6.21523 3.53153 5.25C3.53153 4.28477 4.32337 3.5 5.2973 3.5C6.27123 3.5 7.06306 4.28477 7.06306 5.25C7.06306 6.21523 6.27123 7 5.2973 7Z" fill="#9B4DEE"/>
</svg>
