<svg width="14" height="14" viewBox="0 0 14 14" fill="none" xmlns="http://www.w3.org/2000/svg">
<path id="Vector" d="M7 14C10.8664 14 14 10.8664 14 7C14 3.13359 10.8664 0 7 0C3.13359 0 0 3.13359 0 7C0 10.8664 3.13359 14 7 14ZM7.56875 3.65313V4.04141C7.83398 4.07422 8.09922 4.14805 8.36172 4.22188C8.41367 4.23555 8.46289 4.24922 8.51484 4.26562C8.8293 4.35313 9.01523 4.67852 8.92773 4.99297C8.84023 5.30742 8.51484 5.49062 8.20039 5.40586C8.15938 5.39492 8.11563 5.38125 8.07188 5.37031C7.88047 5.31563 7.68906 5.26367 7.49492 5.22539C7.13399 5.15703 6.71563 5.18984 6.3793 5.33477C6.07852 5.46602 5.82969 5.7832 6.17148 6.00195C6.43945 6.17422 6.76758 6.26172 7.0793 6.34648C7.14492 6.36289 7.20781 6.38203 7.2707 6.39844C7.69727 6.51875 8.24141 6.67461 8.64883 6.95352C9.1793 7.31719 9.42813 7.90781 9.31055 8.54219C9.19844 9.15469 8.77188 9.55664 8.26055 9.76445C8.04727 9.85195 7.81484 9.90664 7.57148 9.93398V10.3496C7.57148 10.675 7.30625 10.9402 6.98086 10.9402C6.65547 10.9402 6.39023 10.675 6.39023 10.3496V9.87383C5.99375 9.78359 5.60547 9.65781 5.21992 9.53203C4.91094 9.43086 4.74141 9.09453 4.84531 8.78555C4.94922 8.47656 5.28281 8.30703 5.5918 8.41094C5.66016 8.43281 5.72852 8.45742 5.79688 8.4793C6.10586 8.5832 6.42305 8.68984 6.74023 8.7418C7.20508 8.81016 7.57695 8.76914 7.82031 8.6707C8.14844 8.53945 8.3043 8.14844 7.98164 7.92969C7.70547 7.74102 7.36367 7.64805 7.03828 7.56055C6.97539 7.54414 6.91524 7.52773 6.85234 7.50859C6.43945 7.39102 5.92266 7.24609 5.53438 6.99727C5.00117 6.65547 4.73047 6.08672 4.84531 5.45508C4.95469 4.85898 5.41953 4.4625 5.91172 4.24922C6.06211 4.18359 6.22344 4.13164 6.39023 4.09336V3.65313C6.39023 3.32773 6.65547 3.0625 6.98086 3.0625C7.30625 3.0625 7.57148 3.32773 7.57148 3.65313H7.56875Z" fill="#707070"/>
</svg>
