<svg width="20" height="20" viewBox="0 0 20 20" fill="none" xmlns="http://www.w3.org/2000/svg">
<rect width="20" height="20" rx="10" fill="#6D0BDA"/>
<g clip-path="url(#clip0_2231_9314)">
<path d="M16 10C16 10.5103 15.5866 10.9234 15.0769 10.9234H10.9231V15.0772C10.9231 15.5875 10.5097 16 10 16C9.49029 16 9.07692 15.5875 9.07692 15.0772V10.9234H4.92308C4.41337 10.9234 4 10.5103 4 10C4 9.48971 4.41337 9.07721 4.92308 9.07721H9.07692V4.92337C9.07692 4.41308 9.49029 4 10 4C10.5097 4 10.9231 4.41308 10.9231 4.92337V9.07721H15.0769C15.5875 9.07692 16 9.48942 16 10Z" fill="white"/>
</g>
<defs>
<clipPath id="clip0_2231_9314">
<rect width="12" height="12" fill="white" transform="translate(4 4)"/>
</clipPath>
</defs>
</svg>
