<svg width="20" height="20" viewBox="0 0 20 20" fill="none" xmlns="http://www.w3.org/2000/svg">
<path id="Vector" d="M16.5 17.4375C16.8781 17.4375 17.1875 17.1281 17.1875 16.75V3C17.1875 2.62188 16.8781 2.3125 16.5 2.3125H2.75C2.37188 2.3125 2.0625 2.62188 2.0625 3V16.75C2.0625 17.1281 2.37188 17.4375 2.75 17.4375H16.5ZM19.25 16.75C19.25 18.2668 18.0168 19.5 16.5 19.5H2.75C1.2332 19.5 0 18.2668 0 16.75V3C0 1.4832 1.2332 0.25 2.75 0.25H16.5C18.0168 0.25 19.25 1.4832 19.25 3V16.75ZM9.625 14C9.33711 14 9.06641 13.8797 8.86875 13.6691L4.4 8.85664C4.1207 8.55586 4.04766 8.11758 4.21094 7.74375C4.37422 7.36992 4.74805 7.125 5.15625 7.125H14.0938C14.502 7.125 14.8758 7.36992 15.0391 7.74375C15.2023 8.11758 15.1293 8.55586 14.85 8.85664L10.3813 13.6691C10.1879 13.8797 9.91289 14 9.625 14Z" fill="#707070"/>
</svg>
