<svg width="20" height="20" viewBox="0 0 20 20" fill="none" xmlns="http://www.w3.org/2000/svg">
<path id="Vector" d="M2.75 2.0625C2.37188 2.0625 2.0625 2.37188 2.0625 2.75V16.5C2.0625 16.8781 2.37188 17.1875 2.75 17.1875H16.5C16.8781 17.1875 17.1875 16.8781 17.1875 16.5V2.75C17.1875 2.37188 16.8781 2.0625 16.5 2.0625H2.75ZM0 2.75C0 1.2332 1.2332 0 2.75 0H16.5C18.0168 0 19.25 1.2332 19.25 2.75V16.5C19.25 18.0168 18.0168 19.25 16.5 19.25H2.75C1.2332 19.25 0 18.0168 0 16.5V2.75ZM9.625 5.5C9.91289 5.5 10.1836 5.62031 10.3813 5.83086L14.85 10.6434C15.1293 10.9441 15.2023 11.3824 15.0391 11.7563C14.8758 12.1301 14.502 12.375 14.0938 12.375H5.15625C4.74805 12.375 4.37422 12.1301 4.21094 11.7563C4.04766 11.3824 4.1207 10.9441 4.4 10.6434L8.86875 5.83086C9.06211 5.62031 9.33711 5.5 9.625 5.5Z" fill="#707070"/>
</svg>
