<svg width="349" height="478" viewBox="0 0 349 478" fill="none" xmlns="http://www.w3.org/2000/svg">
<path d="M313.283 433.583C313.243 442.109 309.452 450.275 302.735 456.304C296.017 462.332 286.918 465.735 277.419 465.77H69.9677C60.4682 465.735 51.3691 462.332 44.6518 456.304C37.9346 450.275 34.1433 442.109 34.1035 433.583V33.7653C34.1433 25.2397 37.9346 17.0735 44.6518 11.0449C51.3691 5.01639 60.4682 1.6138 69.9677 1.57812H277.422C286.921 1.61448 296.019 5.01736 302.736 11.0458C309.452 17.0743 313.243 25.2401 313.283 33.7653V433.583Z" fill="#EBDBFC"/>
<path d="M277.415 467.348H69.9681C59.9935 467.338 50.4307 463.777 43.3775 457.447C36.3244 451.117 32.357 442.535 32.3457 433.583V33.7651C32.357 24.8131 36.3244 16.2308 43.3775 9.90078C50.4307 3.5708 59.9935 0.0101534 69.9681 0H277.415C287.39 0.0101534 296.952 3.5708 304.006 9.90078C311.059 16.2308 315.026 24.8131 315.037 33.7651V433.583C315.026 442.535 311.059 451.117 304.006 457.447C296.952 463.777 287.39 467.338 277.415 467.348ZM69.9681 3.47177C60.9253 3.47956 52.2554 6.70695 45.8611 12.4456C39.4669 18.1842 35.8708 25.9653 35.8622 34.0809V433.898C35.8708 442.013 39.4669 449.794 45.8611 455.533C52.2554 461.272 60.9253 464.499 69.9681 464.507H277.415C286.458 464.499 295.128 461.272 301.522 455.533C307.916 449.794 311.512 442.013 311.521 433.898V33.7651C311.512 25.6494 307.916 17.8684 301.522 12.1297C295.128 6.3911 286.458 3.16371 277.415 3.15593L69.961 3.47177H69.9681Z" fill="#C394F5"/>
<path d="M313.286 433.583C313.246 442.109 309.455 450.275 302.738 456.304C296.02 462.332 286.921 465.735 277.422 465.77H69.9705C60.471 465.735 51.3719 462.332 44.6546 456.304C37.9374 450.275 34.1461 442.109 34.1063 433.583V33.7653C34.1461 25.2397 37.9374 17.0735 44.6546 11.0449C51.3719 5.01639 60.471 1.6138 69.9705 1.57812H277.425C286.924 1.61448 296.022 5.01736 302.739 11.0458C309.455 17.0743 313.246 25.2401 313.286 33.7653V433.583Z" fill="#EBDBFC"/>
<path d="M293.949 33.7651V433.582C293.929 437.845 292.034 441.928 288.675 444.942C285.316 447.957 280.766 449.658 276.016 449.676H68.5666C63.8166 449.658 59.2669 447.957 55.9081 444.942C52.5494 441.928 50.6537 437.845 50.6338 433.582V33.7651C50.6537 29.5022 52.5494 25.4189 55.9081 22.4045C59.2669 19.3901 63.8166 17.6888 68.5666 17.6709H127.637C128.586 18.1348 129.38 18.8181 129.937 19.6499C130.493 20.4818 130.792 21.432 130.801 22.4022V23.6644V27.1336C130.801 31.5516 133.966 35.0221 138.185 35.0221H206.046C210.265 35.0221 213.43 31.5503 213.43 27.1336V21.1427C213.629 20.3863 214.017 19.6805 214.565 19.0789C215.114 18.4773 215.807 17.9958 216.594 17.6709H275.664C278.043 17.6473 280.404 18.0452 282.611 18.8417C284.819 19.6383 286.829 20.8178 288.528 22.3129C290.226 23.808 291.58 25.5891 292.51 27.5543C293.44 29.5194 293.929 31.63 293.949 33.7651Z" fill="#D7B8F8"/>
<path d="M184.596 22.4055C184.594 23.242 184.223 24.0438 183.564 24.6353C182.905 25.2267 182.012 25.5598 181.08 25.5615H149.084C148.152 25.5598 147.258 25.2267 146.599 24.6353C145.94 24.0438 145.569 23.242 145.567 22.4055C145.569 21.5691 145.94 20.7673 146.599 20.1758C147.258 19.5844 148.152 19.2513 149.084 19.2496H181.08C181.549 19.2241 182.019 19.2882 182.458 19.4377C182.898 19.5873 183.297 19.8189 183.629 20.1172C183.962 20.4155 184.22 20.7737 184.387 21.1682C184.553 21.5627 184.625 21.9844 184.596 22.4055Z" fill="#7C3EBE"/>
<path d="M202.172 22.4013C202.172 23.6561 201.617 24.8595 200.628 25.7468C199.639 26.6341 198.298 27.1326 196.9 27.1326C195.502 27.1326 194.161 26.6341 193.173 25.7468C192.184 24.8595 191.628 23.6561 191.628 22.4013C191.628 21.7799 191.765 21.1647 192.03 20.5907C192.295 20.0166 192.683 19.495 193.173 19.0557C193.662 18.6164 194.243 18.2678 194.883 18.0301C195.522 17.7923 196.208 17.6699 196.9 17.6699C197.593 17.6699 198.278 17.7923 198.918 18.0301C199.557 18.2678 200.138 18.6164 200.628 19.0557C201.118 19.495 201.506 20.0166 201.771 20.5907C202.036 21.1647 202.172 21.7799 202.172 22.4013Z" fill="#7C3EBE"/>
<path d="M293.95 268.229H50.6346V276.749H293.95V268.229Z" fill="#AF71F1"/>
<path d="M293.95 196.596H50.6346V205.116H293.95V196.596Z" fill="#AF71F1"/>
<path d="M293.95 124.965H50.6346V133.485H293.95V124.965Z" fill="#AF71F1"/>
<path d="M102.322 231.623H68.5668V267.912H102.322V231.623Z" fill="#C394F5"/>
<path d="M158.93 218.686H125.175V267.913H158.93V218.686Z" fill="#C394F5"/>
<path d="M272.153 218.686H238.397V267.913H272.153V218.686Z" fill="#C394F5"/>
<path d="M272.153 160.307H238.397V196.596H272.153V160.307Z" fill="#C394F5"/>
<path d="M215.544 147.053H181.789V196.28H215.544V147.053Z" fill="#C394F5"/>
<path d="M102.673 147.053H68.9172V196.28H102.673V147.053Z" fill="#C394F5"/>
<path d="M214.485 255.293H180.729V268.231H214.485V255.293Z" fill="#C394F5"/>
<path d="M102.322 88.3574H68.5668V124.647H102.322V88.3574Z" fill="#C394F5"/>
<path d="M158.93 75.7363H125.175V124.964H158.93V75.7363Z" fill="#C394F5"/>
<path d="M272.153 75.7363H238.397V124.964H272.153V75.7363Z" fill="#C394F5"/>
<path d="M214.485 112.025H180.729V124.964H214.485V112.025Z" fill="#C394F5"/>
<path d="M321.021 168.193C321.021 168.193 341.063 166.615 343.525 171.665C345.985 177.035 340.36 179.553 322.077 180.501C311.177 180.817 309.419 179.869 309.419 179.869L252.808 196.909L213.427 198.487L217.646 181.763L249.989 182.709L308.005 172.927C308.005 172.927 317.505 161.566 324.536 161.566C331.568 161.566 321.021 168.193 321.021 168.193Z" fill="#FFCE8D"/>
<path d="M136.073 178.92C140.29 179.125 144.515 179.125 148.731 178.92C163.5 178.289 188.464 177.658 209.56 178.92C209.56 178.92 201.121 249.922 202.879 275.483H144.161C144.161 275.483 135.026 203.849 136.073 178.92Z" fill="#EF5264"/>
<path d="M194.439 124.961C196.9 124.33 198.308 120.859 195.846 119.913C198.107 119.733 200.206 118.783 201.71 117.256C203.215 115.73 204.01 113.745 203.933 111.709C203.933 110.446 202.527 109.184 201.472 109.815C201.891 107.398 201.771 104.931 201.12 102.557C200.702 101.351 199.923 100.272 198.867 99.438C197.812 98.6036 196.521 98.0457 195.136 97.8253C194.442 97.7734 193.743 97.8475 193.081 98.0431C192.419 98.2387 191.808 98.5518 191.284 98.9638C190.76 99.3758 190.333 99.8782 190.03 100.441C189.726 101.004 189.552 101.616 189.518 102.241C190.289 100.787 190.534 99.1541 190.218 97.5696C189.903 95.9852 189.043 94.5289 187.76 93.4047C185.299 91.1963 181.431 90.2488 177.914 89.9329C176.384 89.7229 174.82 89.831 173.344 90.2488C172.671 90.5781 172.136 91.0947 171.819 91.7206C171.502 92.3465 171.42 93.0479 171.585 93.7193C168.421 90.2475 164.904 87.0929 159.982 86.1453C155.059 85.1978 149.438 88.3537 149.438 92.7717C143.813 90.2475 136.428 93.4034 134.67 98.7677C133.966 101.292 135.373 104.764 138.186 104.448C136.595 104.425 135.041 104.878 133.768 105.734C132.495 106.591 131.575 107.803 131.153 109.179C130.449 112.019 132.559 115.175 135.724 115.175C134.433 115.452 133.31 116.164 132.59 117.164C131.869 118.165 131.606 119.376 131.856 120.546C132.125 121.681 132.843 122.689 133.877 123.386C134.911 124.082 136.192 124.418 137.481 124.332C135.212 125.059 133.283 126.452 132.007 128.286C130.731 130.119 130.181 132.286 130.448 134.434C131.152 138.537 136.777 141.692 140.992 139.805C137.827 140.121 137.475 144.853 139.585 146.747C142.046 148.641 145.569 148.956 148.727 148.956C148.326 149.001 147.94 149.122 147.594 149.309C147.248 149.497 146.95 149.747 146.718 150.045C146.486 150.342 146.326 150.679 146.249 151.035C146.171 151.391 146.177 151.758 146.266 152.112C146.596 152.832 147.204 153.42 147.98 153.768C148.756 154.116 149.646 154.201 150.485 154.005C152.199 153.842 153.805 153.176 155.056 152.112C160.345 148.652 164.478 143.959 167.01 138.543C169.12 134.441 170.175 129.707 173.339 125.92C174.495 124.616 176.014 123.608 177.743 122.998C179.471 122.389 181.348 122.199 183.185 122.449C187.758 122.437 190.572 125.908 194.439 124.961Z" fill="#362441"/>
<path d="M144.507 126.854C142.047 126.538 140.288 123.068 142.749 121.806C140.466 121.844 138.259 121.068 136.612 119.648C134.965 118.228 134.013 116.281 133.964 114.232C133.964 112.97 135.018 111.707 136.074 112.023C135.255 109.562 135.134 106.957 135.722 104.443C135.994 103.195 136.674 102.048 137.676 101.148C138.678 100.249 139.956 99.6384 141.347 99.3944C144.16 99.0786 147.331 100.972 147.331 103.497C145.221 100.972 145.925 97.1848 148.386 94.6605C150.855 92.261 154.249 90.7944 157.879 90.5583C159.382 90.2428 160.947 90.2428 162.45 90.5583C163.856 91.19 164.911 92.4521 164.208 93.7143C167.021 90.2425 170.537 86.4561 175.108 85.194C179.679 83.9319 186.008 86.4561 186.364 90.8742C191.636 88.0341 199.374 90.5583 201.835 95.6055C202.889 98.1297 201.835 101.602 199.022 101.602C200.567 101.556 202.091 101.921 203.405 102.651C204.719 103.381 205.763 104.443 206.406 105.704C206.634 106.367 206.705 107.067 206.612 107.756C206.519 108.446 206.265 109.11 205.867 109.705C205.469 110.301 204.936 110.815 204.301 111.213C203.667 111.611 202.947 111.884 202.187 112.016C203.483 112.251 204.648 112.883 205.482 113.804C206.316 114.725 206.767 115.877 206.758 117.064C206.406 119.272 203.945 121.482 201.486 121.166C206.057 122.428 209.573 126.537 209.221 130.629C208.869 134.721 203.596 138.517 199.024 136.941C202.188 137.257 203.243 141.672 201.134 143.883C199.025 146.094 195.509 146.407 192.344 146.723C192.775 146.696 193.206 146.77 193.596 146.937C193.986 147.105 194.321 147.359 194.568 147.677C194.816 147.995 194.968 148.364 195.009 148.75C195.051 149.136 194.98 149.525 194.805 149.879C194.453 151.457 192.344 152.087 190.586 152.087C188.8 152.044 187.076 151.492 185.663 150.509C180.103 147.373 175.506 143.038 172.291 137.899C169.831 133.796 168.423 129.062 164.908 125.906C162.447 123.698 158.227 122.12 154.712 123.066C150.841 124.008 148.732 127.484 144.507 126.854Z" fill="#362441"/>
<path d="M184.243 159.676C195.5 147.053 189.515 123.071 188.112 113.604C187.953 112.708 187.439 111.894 186.662 111.313C185.886 110.732 184.902 110.424 183.892 110.444H158.927C157.42 110.438 155.959 110.909 154.801 111.774C153.644 112.64 152.863 113.844 152.598 115.176C150.137 125.904 147.326 149.574 155.411 158.723C155.411 158.41 169.125 174.509 184.243 159.676Z" fill="#FFCE8D"/>
<path d="M152.952 141.054C152.952 141.054 148.733 131.591 143.106 134.742C137.122 137.898 146.975 151.151 153.304 147.364C159.281 143.894 152.952 141.054 152.952 141.054Z" fill="#FFCE8D"/>
<path d="M175.807 133.166L181.439 149.575L175.455 147.999" fill="#FFCE8D"/>
<path d="M169.479 133.164C171.842 138.52 173.84 144 175.464 149.573V150.205H174.76C172.649 149.573 170.891 149.258 168.775 148.627C170.886 148.942 172.994 149.258 174.76 149.573L174.408 149.889C172.994 144.209 171.236 138.535 169.479 133.164Z" fill="#EAA253"/>
<path d="M164.206 151.148C164.576 152.483 165.169 153.759 165.964 154.935C166.482 155.367 167.091 155.701 167.756 155.918C168.42 156.134 169.126 156.229 169.832 156.197C172.645 156.197 175.104 153.989 176.865 151.466C176.526 152.962 175.802 154.367 174.749 155.566C173.579 156.775 171.958 157.56 170.19 157.775C169.256 157.871 168.309 157.747 167.445 157.415C166.58 157.082 165.827 156.553 165.26 155.88C164.409 154.427 164.043 152.784 164.206 151.148Z" fill="#EAA253"/>
<path d="M144.514 137.268C145.572 137.595 146.534 138.135 147.326 138.845C148.118 139.556 148.72 140.419 149.084 141.37L149.436 142.316L148.382 141.999C147.267 141.712 146.202 141.287 145.217 140.737C146.401 140.685 147.586 140.792 148.734 141.053L148.03 141.999C147.064 140.306 145.885 138.718 144.514 137.268Z" fill="#EAA253"/>
<path d="M187.761 141.054C187.761 141.054 191.98 131.591 197.607 134.742C203.591 137.898 193.738 151.151 187.409 147.364C181.432 143.894 187.761 141.054 187.761 141.054Z" fill="#FFCE8D"/>
<path d="M195.843 137.896C194.562 139.186 193.387 140.557 192.327 141.999L191.623 141.367C192.69 141.418 193.759 141.312 194.788 141.051C193.838 141.658 192.762 142.087 191.623 142.313H190.572L190.924 141.367C191.301 140.514 191.905 139.756 192.682 139.159C193.665 138.608 194.729 138.183 195.843 137.896Z" fill="#EAA253"/>
<path d="M168.423 128.117C168.423 128.117 164.555 121.484 159.984 128.748L168.423 128.117Z" fill="url(#paint0_linear_861_46064)"/>
<path d="M172.993 129.061C172.993 129.061 178.618 122.435 180.026 129.693L172.993 129.061Z" fill="url(#paint1_linear_861_46064)"/>
<path d="M165.963 161.566C165.963 161.566 166.315 171.668 165.611 179.553C165.611 179.553 168.424 185.233 171.236 185.233C174.049 185.549 176.159 181.131 176.861 179.863C177.564 178.594 174.401 164.091 174.05 161.566H165.963Z" fill="#FFCE8D"/>
<path d="M209.561 178.922L236.632 180.184V203.857L196.902 207.007L209.561 178.922Z" fill="#EF5264"/>
<path d="M23.2061 168.193C23.2061 168.193 3.16457 166.615 0.702474 171.668C-1.75819 177.039 3.867 179.557 22.1503 180.505C33.0502 180.82 34.8084 179.873 34.8084 179.873L91.0675 195.964L130.448 198.489L126.228 181.763L93.8844 182.709L35.8685 172.927C35.8685 172.927 26.3706 161.566 19.3377 161.566C12.3048 161.566 23.2061 168.193 23.2061 168.193Z" fill="#FFCE8D"/>
<path d="M136.076 178.922L108.649 180.184V203.857L148.382 207.013L136.076 178.922Z" fill="#EF5264"/>
<path d="M157.873 107.286C157.873 107.286 165.608 113.282 174.401 112.657C183.543 112.025 181.434 107.286 181.434 107.286C181.434 107.286 174.75 103.5 174.401 103.5L157.873 107.286Z" fill="#362441"/>
<path d="M159.984 136.004C159.984 136.004 165.256 133.164 168.071 136.004H159.984Z" fill="url(#paint2_linear_861_46064)"/>
<path d="M173.697 136.004C173.697 136.004 178.969 133.164 181.784 136.004H173.697Z" fill="url(#paint3_linear_861_46064)"/>
<path d="M241.205 62.7981H196.199L183.189 44.1797H218.351L241.205 62.7981Z" fill="#9B4DEE"/>
<path d="M95.6358 44.1797L61.5298 62.7981H16.8745L54.4969 44.1797H95.6358Z" fill="#9B4DEE"/>
<path d="M165.96 44.1797L151.544 62.7981H106.538L130.448 44.1797H165.96Z" fill="#9B4DEE"/>
<path d="M130.799 44.1797L106.537 62.7981H61.5309L95.6368 44.1797H130.799Z" fill="#C394F5"/>
<path d="M285.859 62.7981H240.853L218.35 44.1797H253.16L285.859 62.7981Z" fill="#C394F5"/>
<path d="M330.864 62.7981H285.857L253.157 44.1797H293.944L330.864 62.7981Z" fill="#9B4DEE"/>
<path d="M183.187 44.1797L196.197 62.7981H151.542L165.958 44.1797H183.187Z" fill="#C394F5"/>
<path d="M61.5299 62.7988V75.1054C61.3618 80.3613 58.9173 85.3515 54.7155 89.0158C50.5138 92.6801 44.8858 94.73 39.027 94.73C33.1682 94.73 27.5402 92.6801 23.3384 89.0158C19.1366 85.3515 16.6921 80.3613 16.524 75.1054V62.7988H61.5299Z" fill="#7C3EBE"/>
<path d="M106.537 62.7988V75.1054C106.369 80.3613 103.924 85.3515 99.7224 89.0158C95.5206 92.6801 89.8926 94.73 84.0338 94.73C78.175 94.73 72.547 92.6801 68.3452 89.0158C64.1434 85.3515 61.6989 80.3613 61.5309 75.1054V62.7988H106.537Z" fill="#9B4DEE"/>
<path d="M151.544 62.7988V75.1054C151.376 80.3613 148.931 85.3515 144.729 89.0158C140.527 92.6801 134.899 94.73 129.041 94.73C123.182 94.73 117.554 92.6801 113.352 89.0158C109.15 85.3515 106.706 80.3613 106.538 75.1054V62.7988H151.544Z" fill="#7C3EBE"/>
<path d="M196.197 62.7988V75.1054C196.029 80.3613 193.585 85.3515 189.383 89.0158C185.181 92.6801 179.553 94.73 173.694 94.73C167.836 94.73 162.208 92.6801 158.006 89.0158C153.804 85.3515 151.359 80.3613 151.191 75.1054V62.7988H196.197Z" fill="#9B4DEE"/>
<path d="M241.204 62.7988V75.1054C241.036 80.3613 238.592 85.3515 234.39 89.0158C230.188 92.6801 224.56 94.73 218.701 94.73C212.842 94.73 207.214 92.6801 203.013 89.0158C198.811 85.3515 196.366 80.3613 196.198 75.1054V62.7988H241.204Z" fill="#7C3EBE"/>
<path d="M330.865 62.7988V75.1054C330.697 80.3613 328.252 85.3515 324.05 89.0158C319.848 92.6801 314.22 94.73 308.362 94.73C302.503 94.73 296.875 92.6801 292.673 89.0158C288.471 85.3515 286.027 80.3613 285.859 75.1054V62.7988H330.865Z" fill="#7C3EBE"/>
<path d="M285.858 62.7988V75.1054C285.69 80.3613 283.245 85.3515 279.043 89.0158C274.842 92.6801 269.214 94.73 263.355 94.73C257.496 94.73 251.868 92.6801 247.666 89.0158C243.464 85.3515 241.02 80.3613 240.852 75.1054V62.7988H285.858Z" fill="#9B4DEE"/>
<path d="M338.253 291.895H9.49585V477.13H338.253V291.895Z" fill="#7C3EBE"/>
<path d="M336.845 296.629H11.9547C10.381 296.641 8.82056 296.371 7.36419 295.836C5.90782 295.301 4.58472 294.511 3.47202 293.512C2.35933 292.514 1.47931 291.326 0.883281 290.019C0.287249 288.712 -0.0128701 287.311 0.000423027 285.899C-0.0126799 284.487 0.287579 283.086 0.883696 281.779C1.47981 280.472 2.35986 279.285 3.47254 278.286C4.58521 277.288 5.90825 276.498 7.36452 275.963C8.8208 275.428 10.3812 275.159 11.9547 275.17H336.845C338.419 275.159 339.979 275.428 341.435 275.963C342.892 276.498 344.215 277.288 345.327 278.286C346.44 279.285 347.32 280.472 347.916 281.779C348.512 283.086 348.813 284.487 348.8 285.899C348.813 287.311 348.513 288.712 347.917 290.019C347.321 291.326 346.441 292.514 345.328 293.512C344.215 294.511 342.892 295.301 341.436 295.836C339.979 296.371 338.419 296.641 336.845 296.629Z" fill="#C394F5"/>
<path d="M192.33 352.483C191.919 352.493 191.511 352.412 191.143 352.247C190.775 352.082 190.458 351.838 190.22 351.537C189.709 350.952 189.431 350.23 189.431 349.486C189.431 348.742 189.709 348.02 190.22 347.435L204.636 334.812C204.936 334.543 205.293 334.329 205.685 334.184C206.077 334.038 206.497 333.963 206.922 333.963C207.346 333.963 207.766 334.038 208.159 334.184C208.551 334.329 208.907 334.543 209.207 334.812C209.507 335.082 209.745 335.402 209.908 335.754C210.07 336.105 210.154 336.483 210.154 336.864C210.154 337.244 210.07 337.622 209.908 337.974C209.745 338.326 209.507 338.645 209.207 338.915L194.791 351.537C194.126 352.11 193.251 352.446 192.33 352.483Z" fill="#EBDBFC"/>
<path d="M174.394 347.431C173.978 347.433 173.565 347.36 173.181 347.218C172.796 347.076 172.447 346.867 172.152 346.603C171.858 346.339 171.625 346.025 171.467 345.68C171.308 345.334 171.228 344.964 171.229 344.591V328.813C171.229 328.059 171.563 327.337 172.156 326.805C172.75 326.272 173.555 325.973 174.394 325.973C175.233 325.973 176.038 326.272 176.631 326.805C177.225 327.337 177.558 328.059 177.558 328.813V344.591C177.56 344.964 177.479 345.334 177.321 345.68C177.162 346.025 176.929 346.339 176.635 346.603C176.341 346.867 175.992 347.076 175.607 347.218C175.222 347.36 174.81 347.433 174.394 347.431Z" fill="#EBDBFC"/>
<path d="M156.465 352.481C156.061 352.457 155.666 352.361 155.303 352.199C154.941 352.036 154.618 351.81 154.355 351.534L139.938 338.911C139.332 338.367 138.992 337.629 138.992 336.86C138.992 336.09 139.332 335.353 139.938 334.809C140.544 334.265 141.367 333.959 142.224 333.959C143.081 333.959 143.903 334.265 144.509 334.809L158.926 347.431C159.258 347.683 159.525 347.997 159.708 348.351C159.891 348.706 159.986 349.092 159.986 349.482C159.986 349.873 159.891 350.259 159.708 350.613C159.525 350.967 159.258 351.281 158.926 351.533C158.616 351.842 158.236 352.086 157.811 352.25C157.386 352.413 156.927 352.492 156.465 352.481Z" fill="#EBDBFC"/>
<path d="M212.021 364.795C211.97 364.42 211.758 364.078 211.429 363.842C211.1 363.606 210.682 363.495 210.263 363.533C208.857 363.533 208.153 362.901 207.098 361.955C206.406 361.208 205.549 360.598 204.581 360.164C203.612 359.729 202.554 359.48 201.473 359.431C200.385 359.449 199.316 359.685 198.342 360.122C197.369 360.559 196.517 361.185 195.848 361.955C194.794 362.901 194.09 363.533 192.683 363.533C191.277 363.533 190.573 362.901 189.519 361.955C188.827 361.208 187.969 360.598 187.001 360.164C186.033 359.729 184.975 359.48 183.894 359.431C182.806 359.449 181.736 359.685 180.763 360.122C179.79 360.559 178.938 361.185 178.268 361.955C177.214 362.901 176.51 363.533 175.104 363.533C173.698 363.533 172.994 362.901 171.939 361.955C171.247 361.208 170.39 360.598 169.422 360.164C168.453 359.729 167.395 359.48 166.314 359.431C165.219 359.411 164.135 359.631 163.155 360.07C162.175 360.51 161.329 361.157 160.689 361.955C159.635 362.901 158.931 363.533 157.525 363.533C156.118 363.533 155.414 362.901 154.36 361.955C153.668 361.208 152.81 360.598 151.842 360.164C150.874 359.729 149.816 359.48 148.735 359.431C147.639 359.411 146.555 359.631 145.575 360.07C144.595 360.51 143.749 361.157 143.11 361.955C142.055 362.901 141.351 363.533 139.945 363.533C139.557 363.594 139.193 363.741 138.885 363.962C138.578 364.182 138.338 364.469 138.187 364.795L132.557 420.328C132.469 421.088 132.583 421.856 132.888 422.569C133.194 423.281 133.683 423.919 134.316 424.43C134.863 425.041 135.561 425.529 136.354 425.858C137.147 426.186 138.013 426.346 138.886 426.324H210.615C211.488 426.346 212.354 426.186 213.147 425.858C213.94 425.529 214.638 425.041 215.186 424.43C216.219 423.253 216.832 421.824 216.944 420.328L212.021 364.795ZM183.542 368.887C184.376 368.887 185.192 369.109 185.886 369.525C186.579 369.941 187.12 370.533 187.439 371.225C187.759 371.916 187.842 372.678 187.68 373.412C187.517 374.147 187.115 374.821 186.525 375.351C185.935 375.88 185.183 376.241 184.365 376.387C183.546 376.533 182.698 376.458 181.927 376.172C181.156 375.885 180.497 375.4 180.034 374.777C179.57 374.154 179.323 373.422 179.323 372.674C179.337 371.673 179.786 370.718 180.574 370.01C181.363 369.303 182.427 368.9 183.542 368.887ZM165.258 368.887C166.093 368.887 166.909 369.109 167.602 369.525C168.296 369.941 168.837 370.533 169.156 371.225C169.476 371.916 169.559 372.678 169.396 373.412C169.233 374.147 168.832 374.821 168.242 375.351C167.652 375.88 166.9 376.241 166.081 376.387C165.263 376.533 164.415 376.458 163.644 376.172C162.873 375.885 162.214 375.4 161.751 374.777C161.287 374.154 161.04 373.422 161.04 372.674C161.114 371.692 161.582 370.767 162.358 370.071C163.133 369.375 164.163 368.954 165.257 368.887H165.258ZM174.4 403.599C170.89 403.6 167.415 402.98 164.172 401.776C160.929 400.571 157.983 398.804 155.501 396.577C153.019 394.35 151.051 391.705 149.709 388.795C148.366 385.885 147.676 382.766 147.678 379.616C147.678 378.863 148.011 378.14 148.604 377.608C149.198 377.075 150.003 376.776 150.842 376.776C151.681 376.776 152.486 377.075 153.08 377.608C153.673 378.14 154.007 378.863 154.007 379.616C154.01 384.469 156.16 389.122 159.984 392.554C163.808 395.986 168.993 397.915 174.4 397.918C179.808 397.915 184.993 395.986 188.816 392.554C192.64 389.122 194.79 384.469 194.794 379.616C194.794 378.863 195.127 378.14 195.72 377.608C196.314 377.075 197.119 376.776 197.958 376.776C198.797 376.776 199.602 377.075 200.196 377.608C200.789 378.14 201.123 378.863 201.123 379.616C201.125 382.766 200.435 385.886 199.093 388.797C197.751 391.708 195.783 394.353 193.301 396.581C190.819 398.809 187.872 400.576 184.628 401.781C181.385 402.986 177.909 403.605 174.399 403.604L174.4 403.599Z" fill="#EBDBFC"/>
<defs>
<linearGradient id="paint0_linear_861_46064" x1="3130.47" y1="900.671" x2="3138.82" y2="900.671" gradientUnits="userSpaceOnUse">
<stop stop-color="#1D0247"/>
<stop offset="1" stop-color="#090026"/>
</linearGradient>
<linearGradient id="paint1_linear_861_46064" x1="3118.77" y1="900.814" x2="3125.91" y2="900.814" gradientUnits="userSpaceOnUse">
<stop stop-color="#1D0247"/>
<stop offset="1" stop-color="#090026"/>
</linearGradient>
<linearGradient id="paint2_linear_861_46064" x1="168.096" y1="654.269" x2="167.409" y2="656.897" gradientUnits="userSpaceOnUse">
<stop stop-color="#1D0247"/>
<stop offset="1" stop-color="#090026"/>
</linearGradient>
<linearGradient id="paint3_linear_861_46064" x1="181.833" y1="654.266" x2="181.146" y2="656.893" gradientUnits="userSpaceOnUse">
<stop stop-color="#1D0247"/>
<stop offset="1" stop-color="#090026"/>
</linearGradient>
</defs>
</svg>
