<svg width="14" height="14" viewBox="0 0 14 14" fill="none" xmlns="http://www.w3.org/2000/svg">
<g id="party-horn-solid" clip-path="url(#clip0_1568_96014)">
<path id="Vector" d="M13.7674 1.15664C14.0436 0.921484 14.0791 0.508594 13.844 0.232422C13.6088 -0.04375 13.1959 -0.0792969 12.9197 0.155859L12.6463 0.388281C12.4877 0.522266 12.2854 0.593359 12.0803 0.587891C10.9182 0.557813 9.93927 1.45469 9.87091 2.6168L9.8217 3.43711C9.79435 3.89102 9.41154 4.24102 8.95763 4.23008C8.42716 4.21641 7.9131 4.39687 7.50841 4.73867L7.23498 4.97109C6.9588 5.20625 6.92326 5.61914 7.15841 5.89531C7.39357 6.17148 7.80646 6.20703 8.08263 5.97187L8.35607 5.73945C8.51466 5.60547 8.71701 5.53438 8.92208 5.53984C10.0842 5.56992 11.0631 4.67305 11.1315 3.51094L11.1807 2.69062C11.208 2.23672 11.5908 1.88672 12.0447 1.89766C12.5752 1.91133 13.0893 1.73086 13.494 1.38906L13.7674 1.15664ZM6.34357 0C5.9799 0 5.68732 0.292578 5.68732 0.65625C5.68732 1.49023 5.41115 2.13555 5.13224 2.57578C4.99279 2.79727 4.85334 2.96406 4.7549 3.07344C4.70568 3.12812 4.66466 3.16641 4.64005 3.19102C4.62638 3.20195 4.61818 3.21016 4.61271 3.21563L4.60998 3.21836C4.3338 3.45078 4.29826 3.86367 4.52795 4.13984C4.76037 4.41875 5.17326 4.45703 5.45216 4.22461L5.03107 3.71875C5.45216 4.22188 5.45216 4.22187 5.45216 4.22187L5.4549 4.21914L5.46037 4.21367L5.47951 4.19727C5.49318 4.18359 5.51232 4.16719 5.53693 4.14531C5.58341 4.10156 5.6463 4.04141 5.7174 3.96211C5.86232 3.80352 6.05373 3.57383 6.2424 3.27578C6.61974 2.67695 6.99982 1.79102 6.99982 0.65625C6.99982 0.292578 6.70724 0 6.34357 0ZM2.62482 0.875C2.62482 0.391016 2.2338 0 1.74982 0C1.26584 0 0.87482 0.391016 0.87482 0.875C0.87482 1.35898 1.26584 1.75 1.74982 1.75C2.2338 1.75 2.62482 1.35898 2.62482 0.875ZM13.9998 4.375C13.9998 3.89102 13.6088 3.5 13.1248 3.5C12.6408 3.5 12.2498 3.89102 12.2498 4.375C12.2498 4.85898 12.6408 5.25 13.1248 5.25C13.6088 5.25 13.9998 4.85898 13.9998 4.375ZM13.1248 13.125C13.6088 13.125 13.9998 12.734 13.9998 12.25C13.9998 11.766 13.6088 11.375 13.1248 11.375C12.6408 11.375 12.2498 11.766 12.2498 12.25C12.2498 12.734 12.6408 13.125 13.1248 13.125ZM10.8143 9.3543L10.817 9.35156C10.8225 9.34609 10.8307 9.33516 10.8416 9.32148C10.8662 9.29141 10.9045 9.24492 10.9592 9.19023C11.0686 9.07539 11.2326 8.925 11.4459 8.77734C11.8725 8.48477 12.4822 8.225 13.2725 8.3125C13.6334 8.35352 13.9561 8.09375 13.9971 7.73281C14.0381 7.37187 13.7783 7.04922 13.4174 7.0082C12.2389 6.87695 11.3174 7.27344 10.7049 7.6918C10.3986 7.89961 10.1662 8.11836 10.0076 8.28242C9.92834 8.36719 9.86544 8.43828 9.82443 8.49023C9.80255 8.51758 9.78615 8.53945 9.77248 8.55586L9.75607 8.57773L9.7506 8.58594L9.74787 8.58867C9.74787 8.58867 9.74787 8.58867 10.2811 8.97148L9.74787 8.59141C9.53732 8.88672 9.60568 9.29688 9.90099 9.50742C10.1936 9.71797 10.6037 9.64961 10.8143 9.35703V9.3543ZM3.31388 5.26914C3.02404 5.33203 2.78341 5.53984 2.67951 5.81602L2.27209 6.9043L7.09552 11.7277L8.18107 11.3203C8.45998 11.2164 8.66505 10.9758 8.72795 10.6859C8.79084 10.3961 8.7006 10.0926 8.49279 9.88203L4.11779 5.50703C3.90724 5.29648 3.60373 5.20625 3.31388 5.27187V5.26914ZM1.93576 7.80391L1.31779 9.45L4.54982 12.682L6.19591 12.0641L1.93576 7.80391ZM3.65021 13.0184L0.981461 10.3496L0.0545073 12.8187C-0.0658052 13.1414 0.0134917 13.5023 0.254117 13.7457C0.494742 13.9891 0.858414 14.0656 1.18107 13.9453L3.65021 13.0211V13.0184Z" fill="#707070"/>
</g>
<defs>
<clipPath id="clip0_1568_96014">
<rect width="14" height="14" fill="white"/>
</clipPath>
</defs>
</svg>
