<svg width="14" height="14" viewBox="0 0 14 14" fill="none" xmlns="http://www.w3.org/2000/svg">
<g id="pen-solid" clip-path="url(#clip0_1057_154246)">
<path id="Vector" d="M9.91757 0.528279C10.6012 -0.15526 11.7113 -0.15526 12.3949 0.528279L13.4723 1.60644C14.1559 2.28976 14.1559 3.39883 13.4723 4.08242L12.1488 5.40586L8.59413 1.85172L9.91757 0.528279ZM11.5309 6.02383L5.15429 12.3977C4.86992 12.682 4.51718 12.8926 4.13163 13.0047L0.841361 13.9727C0.611127 14.041 0.362025 13.9781 0.19222 13.784C0.0224102 13.6391 -0.0410765 13.3902 0.0266813 13.1578L0.994486 9.86836C1.10824 9.48281 1.31687 9.13008 1.60152 8.8457L7.97617 2.47023L11.5309 6.02383Z" fill="#9B4DEE"/>
</g>
<defs>
<clipPath id="clip0_1057_154246">
<rect width="14" height="14" fill="white"/>
</clipPath>
</defs>
</svg>
