<svg width="36" height="36" viewBox="0 0 36 36" fill="none" xmlns="http://www.w3.org/2000/svg">
<circle cx="18" cy="18" r="18" fill="#F19920"/>
<path d="M8 11.5C8 9.84297 9.34297 8.5 11 8.5H26C27.6547 8.5 29 9.84297 29 11.5V26.5C29 28.1547 27.6547 29.5 26 29.5H11C9.34297 29.5 8 28.1547 8 26.5V11.5ZM14 19C14 18.1703 13.3297 17.5 12.5 17.5C11.6717 17.5 11 18.1703 11 19C11 19.8297 11.6717 20.5 12.5 20.5C13.3297 20.5 14 19.8297 14 19ZM14 14.5C14 13.6703 13.3297 13 12.5 13C11.6717 13 11 13.6703 11 14.5C11 15.3297 11.6717 16 12.5 16C13.3297 16 14 15.3297 14 14.5ZM14 23.5C14 22.6703 13.3297 22 12.5 22C11.6717 22 11 22.6703 11 23.5C11 24.3297 11.6717 25 12.5 25C13.3297 25 14 24.3297 14 23.5ZM17 13.375C16.3766 13.375 15.875 13.8766 15.875 14.5C15.875 15.1234 16.3766 15.625 17 15.625H24.5C25.1234 15.625 25.625 15.1234 25.625 14.5C25.625 13.8766 25.1234 13.375 24.5 13.375H17ZM17 17.875C16.3766 17.875 15.875 18.3766 15.875 19C15.875 19.6234 16.3766 20.125 17 20.125H24.5C25.1234 20.125 25.625 19.6234 25.625 19C25.625 18.3766 25.1234 17.875 24.5 17.875H17ZM17 22.375C16.3766 22.375 15.875 22.8766 15.875 23.5C15.875 24.1234 16.3766 24.625 17 24.625H24.5C25.1234 24.625 25.625 24.1234 25.625 23.5C25.625 22.8766 25.1234 22.375 24.5 22.375H17Z" fill="white"/>
</svg>
