<svg width="15" height="14" viewBox="0 0 15 14" fill="none" xmlns="http://www.w3.org/2000/svg">
<g id="plus-solid" clip-path="url(#clip0_701_40941)">
<path id="Vector" d="M14.4297 7C14.4297 7.59534 13.9474 8.07726 13.3528 8.07726H8.50661V12.9234C8.50661 13.5188 8.02435 14 7.42969 14C6.83502 14 6.35276 13.5188 6.35276 12.9234V8.07726H1.50661C0.911947 8.07726 0.429688 7.59534 0.429688 7C0.429688 6.40466 0.911947 5.92341 1.50661 5.92341H6.35276V1.07726C6.35276 0.481923 6.83502 0 7.42969 0C8.02435 0 8.50661 0.481923 8.50661 1.07726V5.92341H13.3528C13.9484 5.92308 14.4297 6.40433 14.4297 7Z" fill="#5C5C5C"/>
</g>
<defs>
<clipPath id="clip0_701_40941">
<rect width="14" height="14" fill="white" transform="translate(0.429688)"/>
</clipPath>
</defs>
</svg>
