<svg width="14" height="14" viewBox="0 0 14 14" fill="none" xmlns="http://www.w3.org/2000/svg">
<g id="plus-solid" clip-path="url(#clip0_2393_9407)">
<path id="Vector" d="M14 7C14 7.59534 13.5177 8.07726 12.9231 8.07726H8.07692V12.9234C8.07692 13.5188 7.59466 14 7 14C6.40534 14 5.92308 13.5188 5.92308 12.9234V8.07726H1.07692C0.48226 8.07726 0 7.59534 0 7C0 6.40466 0.48226 5.92341 1.07692 5.92341H5.92308V1.07726C5.92308 0.481923 6.40534 0 7 0C7.59466 0 8.07692 0.481923 8.07692 1.07726V5.92341H12.9231C13.5188 5.92308 14 6.40433 14 7Z" fill="#9B4DEE"/>
</g>
<defs>
<clipPath id="clip0_2393_9407">
<rect width="14" height="14" fill="white"/>
</clipPath>
</defs>
</svg>
