<svg width="19" height="19" viewBox="0 0 19 19" fill="none" xmlns="http://www.w3.org/2000/svg">
<g id="plus-solid">
<rect x="1.0982" y="0.736874" width="16.6411" height="16.6411" rx="8.32054" fill="#ACACAC"/>
<path id="Vector" d="M14.1375 9.14004C14.1375 9.52519 13.8255 9.83698 13.4408 9.83698H10.3055V12.9722C10.3055 13.3574 9.99351 13.6687 9.60879 13.6687C9.22406 13.6687 8.91206 13.3574 8.91206 12.9722V9.83698H5.7768C5.39208 9.83698 5.08008 9.52519 5.08008 9.14004C5.08008 8.75488 5.39208 8.44353 5.7768 8.44353H8.91206V5.30827C8.91206 4.92311 9.22406 4.61133 9.60879 4.61133C9.99351 4.61133 10.3055 4.92311 10.3055 5.30827V8.44353H13.4408C13.8261 8.44331 14.1375 8.75466 14.1375 9.14004Z" fill="#EBEBEB"/>
<rect x="1.0982" y="0.736874" width="16.6411" height="16.6411" rx="8.32054" stroke="#EBEBEB" stroke-width="1.47375"/>
</g>
</svg>
