<svg width="36" height="36" viewBox="0 0 36 36" fill="none" xmlns="http://www.w3.org/2000/svg">
<circle cx="18" cy="18" r="18" fill="#E0457B"/>
<g clip-path="url(#clip0_957_64574)">
<g clip-path="url(#clip1_957_64574)">
<path d="M27.2266 16.4625C27.0438 16.4859 26.8563 16.5 26.6594 16.5C25.4406 16.5 24.3531 15.9656 23.6078 15.1406C22.8625 15.9656 21.775 16.5 20.5516 16.5C19.3281 16.5 18.2406 15.9656 17.4953 15.1406C16.75 15.9656 15.6672 16.5 14.4391 16.5C13.2203 16.5 12.1328 15.9656 11.3875 15.1406C10.6422 15.9656 9.55469 16.5 8.32938 16.5C8.13906 16.5 7.94734 16.4859 7.76125 16.4625C5.16813 16.1156 3.94117 13.0594 5.32797 10.8656L8.01531 6.61547C8.25438 6.23339 8.68141 6 9.1375 6H25.8625C26.3172 6 26.7437 6.23334 26.9828 6.61547L29.6688 10.8656C31.0609 13.0641 29.8281 16.1156 27.2266 16.4625ZM27.4234 17.9484C27.5828 17.925 27.8125 17.8875 28 17.8406V27C28 28.6547 26.6547 30 25 30H10C8.34344 30 7 28.6547 7 27V17.8406C7.18141 17.8875 7.36844 17.925 7.56109 17.9484H7.56672C7.81328 17.9812 8.07016 18 8.32938 18C8.9125 18 9.475 17.9109 10 17.7469V24H25V17.7516C25.525 17.9109 26.0828 18 26.6594 18C26.9219 18 27.175 17.9812 27.4234 17.9484Z" fill="white"/>
</g>
</g>
<defs>
<clipPath id="clip0_957_64574">
<rect width="27" height="24" fill="white" transform="translate(4 6)"/>
</clipPath>
<clipPath id="clip1_957_64574">
<rect width="27" height="24" fill="white" transform="translate(4 6)"/>
</clipPath>
</defs>
</svg>
