<svg width="15" height="14" viewBox="0 0 15 14" fill="none" xmlns="http://www.w3.org/2000/svg">
<g id="Property 1=circle-info-solid">
<path id="Vector" d="M7 14C10.8664 14 14 10.8664 14 7C14 3.13359 10.8664 0 7 0C3.13359 0 0 3.13359 0 7C0 10.8664 3.13359 14 7 14ZM5.90625 9.1875H6.5625V7.4375H5.90625C5.54258 7.4375 5.25 7.14492 5.25 6.78125C5.25 6.41758 5.54258 6.125 5.90625 6.125H7.21875C7.58242 6.125 7.875 6.41758 7.875 6.78125V9.1875H8.09375C8.45742 9.1875 8.75 9.48008 8.75 9.84375C8.75 10.2074 8.45742 10.5 8.09375 10.5H5.90625C5.54258 10.5 5.25 10.2074 5.25 9.84375C5.25 9.48008 5.54258 9.1875 5.90625 9.1875ZM7 5.25C6.51602 5.25 6.125 4.85898 6.125 4.375C6.125 3.89102 6.51602 3.5 7 3.5C7.48398 3.5 7.875 3.89102 7.875 4.375C7.875 4.85898 7.48398 5.25 7 5.25Z" fill="#9B4DEE"/>
</g>
</svg>
