<svg width="15" height="14" viewBox="0 0 15 14" fill="none" xmlns="http://www.w3.org/2000/svg">
<g id="Property 1=circle-x-mark-solid">
<path id="Vector" d="M7 14C10.8664 14 14 10.8664 14 7C14 3.13359 10.8664 0 7 0C3.13359 0 0 3.13359 0 7C0 10.8664 3.13359 14 7 14ZM4.78516 4.78516C5.04219 4.52812 5.45781 4.52812 5.71211 4.78516L6.99727 6.07031L8.28242 4.78516C8.53945 4.52812 8.95508 4.52812 9.20937 4.78516C9.46367 5.04219 9.46641 5.45781 9.20937 5.71211L7.92422 6.99727L9.20937 8.28242C9.46641 8.53945 9.46641 8.95508 9.20937 9.20937C8.95234 9.46367 8.53672 9.46641 8.28242 9.20937L6.99727 7.92422L5.71211 9.20937C5.45508 9.46641 5.03945 9.46641 4.78516 9.20937C4.53086 8.95234 4.52812 8.53672 4.78516 8.28242L6.07031 6.99727L4.78516 5.71211C4.52812 5.45508 4.52812 5.03945 4.78516 4.78516Z" fill="#9B4DEE"/>
</g>
</svg>
