<svg width="15" height="14" viewBox="0 0 15 14" fill="none" xmlns="http://www.w3.org/2000/svg">
<g id="Property 1=copy-regular">
<path id="Vector" d="M14.172 1.93129L12.4971 0.256484C12.3345 0.0921758 12.1102 0 11.8778 0H7.40438C6.43777 0 5.65438 0.783672 5.65438 1.75L5.65491 8.75C5.67898 9.71797 6.46375 10.5 7.42898 10.5H12.679C13.6415 10.5 14.429 9.7125 14.429 8.75V2.5498C14.429 2.31793 14.336 2.09535 14.172 1.93129ZM13.1165 8.75C13.1165 8.99161 12.9206 9.1875 12.679 9.1875H7.40438C7.16271 9.1875 6.96688 8.99161 6.96688 8.75V1.75355C6.96688 1.51195 7.16277 1.31605 7.40438 1.31605H10.9044L10.929 2.625C10.929 3.10816 11.3208 3.5 11.804 3.5H13.0919V8.75H13.1165ZM7.86648 12.25C7.86648 12.4916 7.67059 12.6875 7.42898 12.6875H2.15437C1.91271 12.6875 1.71687 12.4916 1.71687 12.25L1.74094 5.25273C1.74094 5.01113 1.93683 4.81523 2.17844 4.81523H4.80398V3.5H2.17871C1.21211 3.5 0.428711 4.2834 0.428711 5.25L0.428979 12.25C0.429039 13.2152 1.21266 14 2.17898 14H7.42898C8.39148 14 9.17898 13.2125 9.17898 12.25V11.375H7.89109L7.86648 12.25Z" fill="#707070"/>
</g>
</svg>
