<svg width="12" height="14" viewBox="0 0 12 14" fill="none" xmlns="http://www.w3.org/2000/svg">
<g id="Property 1=location-dot-solid" clip-path="url(#clip0_744_35777)">
<path id="Vector" d="M6.38087 13.65C7.79624 11.8945 11.0243 7.63984 11.0243 5.25C11.0243 2.35156 8.65153 0 5.72698 0C2.80244 0 0.429688 2.35156 0.429688 5.25C0.429688 7.63984 3.65773 11.8945 5.0731 13.65C5.41246 14.0684 6.04151 14.0684 6.38087 13.65ZM5.72698 7C4.75305 7 3.96122 6.21523 3.96122 5.25C3.96122 4.28477 4.75305 3.5 5.72698 3.5C6.70091 3.5 7.49275 4.28477 7.49275 5.25C7.49275 6.21523 6.70091 7 5.72698 7Z" fill="#9B4DEE"/>
</g>
<defs>
<clipPath id="clip0_744_35777">
<rect width="10.5946" height="14" fill="white" transform="translate(0.429688)"/>
</clipPath>
</defs>
</svg>
