<svg width="40" height="39" viewBox="0 0 40 39" fill="none" xmlns="http://www.w3.org/2000/svg">
<g id="Property 1=circle-user-2-solid">
<path id="Vector" d="M30.8223 29.2652C29.1389 26.3402 25.9777 24.375 22.3672 24.375H17.4922C13.8816 24.375 10.7205 26.3402 9.03711 29.2652C11.7184 32.2512 15.6031 34.125 19.9297 34.125C24.2563 34.125 28.141 32.2436 30.8223 29.2652ZM39.4297 19.5C39.4297 30.2707 30.7004 39 19.9297 39C9.15899 39 0.429688 30.2707 0.429688 19.5C0.429688 8.7293 9.15899 0 19.9297 0C30.7004 0 39.4297 8.7293 39.4297 19.5ZM19.9297 20.7188C22.9613 20.7188 25.4141 18.266 25.4141 15.2344C25.4141 12.2027 22.9613 9.75 19.9297 9.75C16.898 9.75 14.4453 12.2027 14.4453 15.2344C14.4453 18.266 16.898 20.7188 19.9297 20.7188Z" fill="#707070"/>
</g>
</svg>
