<svg width="15" height="14" viewBox="0 0 15 14" fill="none" xmlns="http://www.w3.org/2000/svg">
<g id="Property 1=calendar-regular">
<path id="Vector" d="M3.52344 8.3125H10.5234C10.7984 8.3125 11.0234 8.11563 11.0234 7.875V6.125C11.0234 5.88438 10.7984 5.6875 10.5234 5.6875H3.52344C3.24844 5.6875 3.02344 5.88438 3.02344 6.125V7.875C3.02344 8.11563 3.24844 8.3125 3.52344 8.3125ZM12.5234 1.75H11.0234V0.4375C11.0234 0.196875 10.7984 0 10.5234 0H9.52344C9.24844 0 9.02344 0.196875 9.02344 0.4375V1.75H5.02344V0.4375C5.02344 0.196875 4.79844 0 4.52344 0H3.52344C3.24844 0 3.02344 0.196875 3.02344 0.4375V1.75H1.52344C0.695312 1.75 0.0234375 2.33789 0.0234375 3.0625V12.6875C0.0234375 13.4121 0.695312 14 1.52344 14H12.5234C13.3516 14 14.0234 13.4121 14.0234 12.6875V3.0625C14.0234 2.33789 13.3516 1.75 12.5234 1.75ZM12.5234 12.5234C12.5234 12.6137 12.4391 12.6875 12.3359 12.6875H1.71094C1.60781 12.6875 1.52344 12.6137 1.52344 12.5234V4.375H12.5234V12.5234Z" fill="#9B4DEE"/>
</g>
</svg>
