<svg width="14" height="14" viewBox="0 0 14 14" fill="none" xmlns="http://www.w3.org/2000/svg">
<g id="Property 1=tag-solid">
<path id="tag-solid" d="M7.95139e-08 6.89447V1.3124C7.95139e-08 0.964327 0.13827 0.630514 0.384392 0.384392C0.630514 0.13827 0.964327 7.95139e-08 1.3124 7.95139e-08H6.89447C7.06683 -5.99193e-05 7.23753 0.0338357 7.3968 0.099751C7.55606 0.165666 7.70079 0.26231 7.8227 0.384164L13.6173 6.17879C13.8624 6.42477 14 6.75785 14 7.10507C14 7.4523 13.8624 7.78538 13.6173 8.03136L8.03526 13.6173C7.78928 13.8624 7.4562 14 7.10897 14C6.76175 14 6.42867 13.8624 6.18269 13.6173L0.384164 7.8227C0.26231 7.70079 0.165666 7.55606 0.099751 7.3968C0.0338357 7.23753 -5.99193e-05 7.06683 7.95139e-08 6.89447ZM3.06258 1.75506C2.80285 1.75526 2.54901 1.83252 2.33322 1.97706C2.11742 2.1216 1.94936 2.32692 1.85032 2.56703C1.75129 2.80714 1.72572 3.07124 1.77687 3.32589C1.82801 3.58054 1.95357 3.81428 2.13764 3.99753C2.3217 4.18078 2.55601 4.30529 2.81088 4.3553C3.06575 4.40531 3.32974 4.37856 3.5694 4.27845C3.80907 4.17835 4.01364 4.00937 4.15722 3.79293C4.30079 3.57649 4.37692 3.32231 4.37595 3.06258C4.37466 2.71519 4.23569 2.38248 3.9895 2.13738C3.7433 1.89229 3.40998 1.7548 3.06258 1.75506Z" fill="#707070"/>
</g>
</svg>
