<svg width="14" height="14" viewBox="0 0 14 14" fill="none" xmlns="http://www.w3.org/2000/svg">
<g id="Property 1=moped-solid">
<path id="Vector" d="M7.27387 2.53571C7.27387 2.23996 7.51116 2 7.8061 2H8.72199C9.24979 2 9.71993 2.33683 9.89291 2.83929L10.0725 3.35893L11.2035 2.78973C11.3033 2.74018 11.412 2.71429 11.5229 2.71429H11.7092C11.9043 2.71429 12.064 2.87411 12.064 3.07143V4.5C12.064 4.69643 11.9043 4.85714 11.7092 4.85714H11.5229C11.412 4.85714 11.3033 4.83036 11.2035 4.78125L10.4296 4.39286L11.0882 6.29464C11.157 6.28795 11.2457 6.28571 11.3543 6.28571C12.3234 6.28571 13.2016 6.67634 13.8403 7.30804C14.051 7.51562 14.0532 7.85491 13.847 8.06696C13.6407 8.27679 13.3036 8.28125 13.0952 8.07366C12.645 7.62946 12.0329 7.35714 11.3543 7.35714C10.1856 7.35714 9.18326 8.17188 8.93932 9.26786C8.89497 9.45759 8.87057 9.65402 8.87057 9.85714H5.67717C5.67717 11.0402 4.72358 12 3.54823 12C2.35292 12 1.41929 11.0402 1.41929 9.85714H0.709646C0.317788 9.85714 0 9.53795 0 9.14286V8.42857C0 6.85045 1.27093 5.57143 2.83858 5.57143H4.96752C5.36004 5.57143 5.67717 5.89062 5.67717 6.28571V7.71429C5.67717 8.10938 5.99429 8.42857 6.38681 8.42857H8.10105C8.47583 7.5692 9.17439 6.88393 10.0437 6.53795L8.88831 3.19129C8.86392 3.11964 8.79739 3.07143 8.72199 3.07143H7.8061C7.51116 3.07143 7.27387 2.8317 7.27387 2.53571ZM4.6127 9.85714H2.48376C2.48376 10.4487 2.96055 10.9286 3.54823 10.9286C4.1359 10.9286 4.6127 10.4487 4.6127 9.85714ZM4.96752 3.42857C5.36004 3.42857 5.67717 3.74777 5.67717 4.14286C5.67717 4.53795 5.36004 4.85714 4.96752 4.85714H2.83858C2.44606 4.85714 2.12894 4.53795 2.12894 4.14286C2.12894 3.74777 2.44606 3.42857 2.83858 3.42857H4.96752ZM9.2254 9.85714C9.2254 8.65402 10.159 7.71429 11.3543 7.71429C12.5297 7.71429 13.4833 8.65402 13.4833 9.85714C13.4833 11.0402 12.5297 12 11.3543 12C10.159 12 9.2254 11.0402 9.2254 9.85714ZM11.3543 10.9286C11.942 10.9286 12.4188 10.4487 12.4188 9.85714C12.4188 9.26562 11.942 8.78571 11.3543 8.78571C10.7667 8.78571 10.2899 9.26562 10.2899 9.85714C10.2899 10.4487 10.7667 10.9286 11.3543 10.9286Z" fill="#707070"/>
</g>
</svg>
