<svg width="19" height="16" viewBox="0 0 19 16" fill="none" xmlns="http://www.w3.org/2000/svg">
<g id="Property 1=arrow-right-from-bracket-solid">
<path id="Vector" d="M18.0992 8.66953C18.5387 8.23008 18.5387 7.51641 18.0992 7.07695L13.5992 2.57695C13.1598 2.1375 12.4461 2.1375 12.0066 2.57695C11.5672 3.01641 11.5672 3.73008 12.0066 4.16953L14.5871 6.75H7.17969C6.55742 6.75 6.05469 7.25273 6.05469 7.875C6.05469 8.49727 6.55742 9 7.17969 9H14.5871L12.0066 11.5805C11.5672 12.0199 11.5672 12.7336 12.0066 13.173C12.4461 13.6125 13.1598 13.6125 13.5992 13.173L18.0992 8.67305V8.66953ZM6.05469 2.25C6.67695 2.25 7.17969 1.74727 7.17969 1.125C7.17969 0.502734 6.67695 0 6.05469 0H3.80469C1.94141 0 0.429688 1.51172 0.429688 3.375V12.375C0.429688 14.2383 1.94141 15.75 3.80469 15.75H6.05469C6.67695 15.75 7.17969 15.2473 7.17969 14.625C7.17969 14.0027 6.67695 13.5 6.05469 13.5H3.80469C3.18242 13.5 2.67969 12.9973 2.67969 12.375V3.375C2.67969 2.75273 3.18242 2.25 3.80469 2.25H6.05469Z" fill="#707070"/>
</g>
</svg>
