<svg width="17" height="8" viewBox="0 0 17 8" fill="none" xmlns="http://www.w3.org/2000/svg">
<g id="Property 1=Link-simple-solid">
<path id="Vector" d="M0.428711 4C0.428711 1.79 2.21871 0 4.42871 0H6.82871C7.27121 0 7.62871 0.3575 7.62871 0.8C7.62871 1.2425 7.27121 1.6 6.82871 1.6H4.42871C3.10371 1.6 2.02871 2.675 2.02871 4C2.02871 5.325 3.10371 6.4 4.42871 6.4H6.82871C7.27121 6.4 7.62871 6.7575 7.62871 7.2C7.62871 7.6425 7.27121 8 6.82871 8H4.42871C2.21871 8 0.428711 6.21 0.428711 4ZM16.4287 4C16.4287 6.21 14.6387 8 12.4287 8H10.0287C9.58621 8 9.22871 7.6425 9.22871 7.2C9.22871 6.7575 9.58621 6.4 10.0287 6.4H12.4287C13.7537 6.4 14.8287 5.325 14.8287 4C14.8287 2.675 13.7537 1.6 12.4287 1.6H10.0287C9.58621 1.6 9.22871 1.2425 9.22871 0.8C9.22871 0.3575 9.58621 0 10.0287 0H12.4287C14.6387 0 16.4287 1.79 16.4287 4ZM6.02871 3.2H10.8287C11.2712 3.2 11.6287 3.5575 11.6287 4C11.6287 4.4425 11.2712 4.8 10.8287 4.8H6.02871C5.58621 4.8 5.22871 4.4425 5.22871 4C5.22871 3.5575 5.58621 3.2 6.02871 3.2Z" fill="#707070"/>
</g>
</svg>
