<svg width="24" height="19" viewBox="0 0 24 19" fill="none" xmlns="http://www.w3.org/2000/svg">
<g id="Property 1=comments-solid">
<path id="Vector" d="M15.6 6.48214C15.6 2.90223 12.1088 0 7.80005 0C3.49131 0 6.95232e-05 2.90223 6.95232e-05 6.48214C6.95232e-05 7.93952 0.585818 9.27978 1.56269 10.3641C0.948067 11.5706 0.0915693 12.4752 0.0780693 12.4884C-0.000680475 12.5696 -0.0220554 12.6901 0.024032 12.7961C0.0713193 12.9017 0.172644 12.9643 0.287319 12.9643C1.72544 12.9643 2.94081 12.5547 3.87756 12.0789C5.03256 12.6365 6.36755 12.9643 7.80005 12.9643C12.1088 12.9643 15.6 10.0621 15.6 6.48214ZM22.485 16.3416C23.43 15.2441 24 13.8703 24 12.375C24 8.79509 20.775 5.89286 16.8 5.89286C16.7882 5.89286 16.7768 5.89437 16.765 5.89444C16.7813 6.08806 16.8 6.28326 16.8 6.48214C16.8 10.1144 13.812 13.1558 9.82129 13.9403C10.6013 16.7615 13.3913 18.8571 16.8 18.8571C18.0634 18.8571 19.2495 18.5622 20.2819 18.0476C21.195 18.4888 22.3538 18.8571 23.7113 18.8571C23.826 18.8571 23.9273 18.7936 23.9745 18.6875C24.0206 18.5815 23.9992 18.4611 23.9205 18.3799C23.91 18.3673 23.0963 17.5055 22.485 16.3416Z" fill="#707070"/>
</g>
</svg>
