<svg width="15" height="14" viewBox="0 0 15 14" fill="none" xmlns="http://www.w3.org/2000/svg">
<g id="Property 1=circle-arrown-down-solid">
<path id="Vector" d="M7 0C3.13359 0 0 3.13359 0 7C0 10.8664 3.13359 14 7 14C10.8664 14 14 10.8664 14 7C14 3.13359 10.8664 0 7 0ZM3.47266 8.12109C3.21563 7.86406 3.21563 7.44844 3.47266 7.19414C3.72969 6.93984 4.14531 6.93711 4.39961 7.19414L6.34102 9.13555L6.34375 3.28125C6.34375 2.91758 6.63633 2.625 7 2.625C7.36367 2.625 7.65625 2.91758 7.65625 3.28125V9.13555L9.59766 7.19414C9.85469 6.93711 10.2703 6.93711 10.5246 7.19414C10.7789 7.45117 10.7816 7.8668 10.5246 8.12109L7.46484 11.1836C7.20781 11.4406 6.79219 11.4406 6.53789 11.1836L3.47266 8.12109Z" fill="#707070"/>
</g>
</svg>
