<svg width="85" height="102" viewBox="0 0 85 102" fill="white" xmlns="http://www.w3.org/2000/svg">
<g id="Grupo 3155">
<g id="Grupo 3154">
<g id="Grupo 3151">
<path id="Caminho 1544" d="M60.33 27.4834C59.9188 27.4932 59.5112 27.412 59.1432 27.247C58.7752 27.0819 58.4581 26.8381 58.2199 26.5371C57.7087 25.9518 57.4309 25.2297 57.4309 24.486C57.4309 23.7424 57.7087 23.0202 58.2199 22.4349L72.6362 9.81248C72.9363 9.54313 73.2927 9.32946 73.6848 9.18369C74.0769 9.03792 74.4972 8.96289 74.9216 8.96289C75.3461 8.96289 75.7664 9.03792 76.1585 9.18369C76.5506 9.32946 76.9069 9.54313 77.2071 9.81248C77.5072 10.0818 77.7453 10.4016 77.9077 10.7535C78.0701 11.1055 78.1537 11.4826 78.1537 11.8636C78.1537 12.2445 78.0701 12.6217 77.9077 12.9736C77.7453 13.3255 77.5072 13.6453 77.2071 13.9147L62.7907 26.5371C62.1256 27.1101 61.251 27.4464 60.33 27.4834Z" fill="white"/>
</g>
<g id="Grupo 3152">
<path id="Caminho 1545" d="M42.3938 22.4312C41.9778 22.4327 41.5655 22.3603 41.1808 22.2181C40.7961 22.0759 40.4466 21.8668 40.1524 21.6027C39.8582 21.3387 39.6251 21.025 39.4667 20.6797C39.3083 20.3345 39.2276 19.9645 39.2293 19.5911V3.81274C39.2293 3.0595 39.5627 2.33712 40.1561 1.8045C40.7496 1.27188 41.5545 0.972656 42.3938 0.972656C43.2331 0.972656 44.038 1.27188 44.6315 1.8045C45.2249 2.33712 45.5583 3.0595 45.5583 3.81274V19.5911C45.56 19.9645 45.4793 20.3345 45.3209 20.6797C45.1625 21.025 44.9294 21.3387 44.6352 21.6027C44.341 21.8668 43.9915 22.0759 43.6068 22.2181C43.2221 22.3603 42.8099 22.4327 42.3938 22.4312Z" fill="white"/>
</g>
<g id="Grupo 3153">
<path id="Caminho 1546" d="M24.4649 27.4807C24.0606 27.4572 23.6657 27.3614 23.3033 27.1989C22.9409 27.0363 22.6184 26.8105 22.3547 26.5345L7.93835 13.9108C7.33222 13.3668 6.9917 12.629 6.9917 11.8597C6.9917 11.0904 7.33222 10.3526 7.93835 9.80858C8.54448 9.26459 9.36657 8.95898 10.2238 8.95898C11.081 8.95898 11.9031 9.26459 12.5092 9.80858L26.9255 22.431C27.2579 22.6831 27.525 22.9972 27.7083 23.3514C27.8915 23.7057 27.9864 24.0916 27.9864 24.4821C27.9864 24.8727 27.8915 25.2585 27.7083 25.6128C27.525 25.967 27.2579 26.2811 26.9255 26.5332C26.6163 26.8417 26.2361 27.0862 25.8113 27.2498C25.3864 27.4134 24.927 27.4922 24.4649 27.4807Z" fill="white"/>
</g>
</g>
<path id="Caminho 1547" d="M80.0211 39.7952C79.9703 39.4202 79.7577 39.078 79.429 38.8421C79.1003 38.6061 78.6816 38.4952 78.2628 38.5331C76.8565 38.5331 76.1527 37.9014 75.0983 36.9551C74.4061 36.2082 73.5488 35.5982 72.5806 35.1637C71.6124 34.7292 70.5543 34.4797 69.4731 34.4309C68.3852 34.4492 67.3156 34.6853 66.3424 35.122C65.3692 35.5587 64.517 36.185 63.8479 36.9551C62.7936 37.9014 62.0897 38.5331 60.6834 38.5331C59.2771 38.5331 58.5732 37.9014 57.5189 36.9551C56.8267 36.2082 55.9694 35.5982 55.0012 35.1637C54.0329 34.7292 52.9748 34.4797 51.8937 34.4309C50.8058 34.4492 49.7362 34.6853 48.763 35.122C47.7898 35.5587 46.9375 36.185 46.2685 36.9551C45.2141 37.9014 44.5102 38.5331 43.1039 38.5331C41.6976 38.5331 40.9938 37.9014 39.9394 36.9551C39.2472 36.2082 38.3899 35.5982 37.4217 35.1637C36.4535 34.7292 35.3954 34.4797 34.3142 34.4309C33.2189 34.4112 32.1346 34.6307 31.1548 35.0704C30.1749 35.5101 29.3287 36.1569 28.689 36.9551C27.6347 37.9014 26.9308 38.5331 25.5245 38.5331C24.1182 38.5331 23.4143 37.9014 22.36 36.9551C21.6678 36.2082 20.8105 35.5982 19.8423 35.1637C18.874 34.7292 17.8159 34.4797 16.7348 34.4309C15.6395 34.4112 14.5552 34.6307 13.5753 35.0704C12.5954 35.5101 11.7492 36.1569 11.1096 36.9551C10.0552 37.9014 9.35136 38.5331 7.94506 38.5331C7.55727 38.5935 7.19278 38.7409 6.8854 38.9616C6.57803 39.1822 6.33774 39.469 6.18683 39.7952L0.557362 95.3283C0.469387 96.088 0.582809 96.8556 0.888369 97.5686C1.19393 98.2815 1.68297 98.9195 2.31559 99.4304C2.86349 100.041 3.56108 100.529 4.35393 100.858C5.14679 101.186 6.01348 101.346 6.88642 101.324H78.6148C79.4877 101.346 80.3544 101.186 81.1473 100.858C81.9401 100.529 82.6377 100.041 83.1856 99.4304C84.2193 98.2535 84.8322 96.8235 84.9438 95.3283L80.0211 39.7952ZM51.5417 43.8872C52.3762 43.8872 53.1918 44.1092 53.8856 44.5253C54.5794 44.9413 55.1202 45.5327 55.4395 46.2245C55.7588 46.9164 55.8424 47.6777 55.6796 48.4122C55.5168 49.1467 55.115 49.8213 54.525 50.3509C53.9349 50.8804 53.1832 51.241 52.3648 51.3871C51.5464 51.5332 50.6982 51.4582 49.9272 51.1716C49.1563 50.8851 48.4974 50.3998 48.0339 49.7771C47.5703 49.1544 47.3229 48.4224 47.3229 47.6735C47.3372 46.6733 47.7864 45.7178 48.5745 45.0105C49.3626 44.3032 50.4273 43.9001 51.5417 43.8872ZM33.2584 43.8872C34.0929 43.8872 34.9085 44.1092 35.6023 44.5253C36.2961 44.9413 36.8369 45.5327 37.1562 46.2245C37.4755 46.9164 37.5591 47.6777 37.3963 48.4122C37.2335 49.1467 36.8317 49.8213 36.2416 50.3509C35.6516 50.8804 34.8999 51.241 34.0815 51.3871C33.2631 51.5332 32.4148 51.4582 31.6439 51.1716C30.873 50.8851 30.2141 50.3998 29.7506 49.7771C29.287 49.1544 29.0395 48.4224 29.0395 47.6735C29.1141 46.6916 29.5823 45.7671 30.3577 45.071C31.133 44.375 32.1629 43.9544 33.257 43.8872H33.2584ZM42.4001 78.5985C38.8904 78.5999 35.4148 77.9805 32.172 76.7757C28.9292 75.5709 25.9828 73.8044 23.5011 71.5771C21.0194 69.3499 19.051 66.7055 17.7086 63.7952C16.3662 60.8848 15.6761 57.7656 15.6776 54.6158C15.6776 53.8626 16.011 53.1402 16.6044 52.6075C17.1979 52.0749 18.0028 51.7757 18.8421 51.7757C19.6814 51.7757 20.4863 52.0749 21.0798 52.6075C21.6732 53.1402 22.0066 53.8626 22.0066 54.6158C22.0104 59.4689 24.1602 64.1223 27.9839 67.5539C31.8076 70.9856 36.9926 72.915 42.4001 72.9184C47.8076 72.915 52.9926 70.9856 56.8163 67.5539C60.64 64.1223 62.7898 59.4689 62.7936 54.6158C62.7936 53.8626 63.127 53.1402 63.7204 52.6075C64.3139 52.0749 65.1188 51.7757 65.9581 51.7757C66.7974 51.7757 67.6023 52.0749 68.1957 52.6075C68.7892 53.1402 69.1226 53.8626 69.1226 54.6158C69.1249 57.7662 68.4352 60.886 67.093 63.797C65.7509 66.708 63.7826 69.3531 61.3006 71.5809C58.8187 73.8087 55.8718 75.5757 52.6285 76.7807C49.3851 77.9857 45.9089 78.6051 42.3987 78.6036L42.4001 78.5985Z" fill="white"/>
</g>
</svg>
