<svg width="15" height="14" viewBox="0 0 15 14" fill="none" xmlns="http://www.w3.org/2000/svg">
<g id="search-solid">
<path id="search-solid_2" d="M14.2392 12.1032L11.5136 9.37637C11.4523 9.31523 11.3794 9.26684 11.2993 9.23399C11.2192 9.20114 11.1333 9.18448 11.0467 9.18497H10.6008C11.4917 8.04362 11.9136 6.60549 11.7805 5.16384C11.6474 3.72218 10.9694 2.38557 9.8846 1.42653C8.79983 0.467497 7.39003 -0.0417318 5.94268 0.00267853C4.49533 0.0470889 3.11942 0.641794 2.09551 1.66553C1.07159 2.68927 0.476785 4.06494 0.432366 5.51204C0.387948 6.95915 0.897266 8.3687 1.85647 9.45329C2.81567 10.5379 4.15251 11.2158 5.59442 11.3489C7.03632 11.4819 8.47469 11.0601 9.61625 10.1694V10.6152C9.61575 10.7018 9.63241 10.7876 9.66527 10.8678C9.69812 10.9479 9.74652 11.0207 9.80767 11.082L12.535 13.8071C12.5957 13.8682 12.668 13.9167 12.7475 13.9498C12.8271 13.983 12.9125 14 12.9987 14C13.0849 14 13.1702 13.983 13.2498 13.9498C13.3294 13.9167 13.4016 13.8682 13.4624 13.8071L14.2362 13.0333C14.3596 12.9102 14.4291 12.7432 14.4297 12.5689C14.4302 12.3946 14.3617 12.2271 14.2392 12.1032ZM6.11448 9.18556C5.42189 9.18556 4.74486 8.98022 4.169 8.5955C3.59314 8.21079 3.14431 7.66399 2.87927 7.02423C2.61423 6.38448 2.54488 5.68051 2.68 5.00135C2.81511 4.32219 3.14862 3.69834 3.63836 3.2087C4.12809 2.71905 4.75204 2.3856 5.43132 2.2505C6.11059 2.11541 6.81468 2.18475 7.45455 2.44974C8.09441 2.71474 8.64131 3.16349 9.02609 3.73925C9.41087 4.31502 9.61625 4.99193 9.61625 5.68439C9.61594 6.61276 9.24686 7.50299 8.59019 8.15934C7.93351 8.81568 7.043 9.18439 6.11448 9.18439V9.18556Z" fill="#9B4DEE"/>
</g>
</svg>
