<svg width="36" height="36" viewBox="0 0 36 36" fill="none" xmlns="http://www.w3.org/2000/svg">
<circle cx="18" cy="18" r="18" fill="#105BFB"/>
<rect x="8.15152" y="10.8333" width="7.87879" height="2.875" rx="1.4375" fill="white"/>
<rect x="14.4546" y="9.875" width="13.3939" height="3.83333" fill="white"/>
<rect x="18.394" y="11.7917" width="10.2424" height="3.83333" fill="white"/>
<rect x="18.394" y="17.5417" width="7.87879" height="5.75" fill="white"/>
<rect x="18.394" y="15.625" width="9.45455" height="3.83333" fill="white"/>
<rect x="19.9697" y="19.4583" width="7.09091" height="4.79167" fill="white"/>
<path fill-rule="evenodd" clip-rule="evenodd" d="M14.4546 9.39583C14.4546 7.80785 15.5127 7 16.8182 7H28.9057C30.2094 7 30.6059 7.32868 30.6059 8.91667L27.8485 25.2083C27.8485 26.7941 26.664 27.6042 25.3603 27.6042H13.2726C11.9671 27.6042 11.303 27.2732 11.303 25.6875L11.7665 23.2917H15.3807C15.4793 23.2917 15.5757 23.2817 15.6687 23.2628C15.7453 23.2817 15.8246 23.2917 15.9057 23.2917C16.5594 23.2917 17.0875 22.6493 17.0875 21.8542C17.0875 21.059 16.5594 20.4167 15.9057 20.4167C15.8246 20.4167 15.7453 20.4266 15.6687 20.4455C15.5757 20.4266 15.4793 20.4167 15.3807 20.4167H12.3226L13.0642 16.5833H15.0245C14.8376 16.8375 14.7239 17.1732 14.7239 17.5417C14.7239 18.3368 15.2531 18.9792 15.9057 18.9792C16.5594 18.9792 17.0875 18.3368 17.0875 17.5417C17.0875 17.1732 16.9741 16.8375 16.7873 16.5833H16.9564C17.7504 16.5833 18.3939 15.9397 18.3939 15.1458C18.3939 14.3733 17.7845 13.743 17.0201 13.7097C17.0638 13.5595 17.0875 13.3978 17.0875 13.2292C17.0875 12.434 16.5594 11.7917 15.9057 11.7917C15.2531 11.7917 14.7239 12.434 14.7239 13.2292C14.7239 13.3973 14.7476 13.5585 14.791 13.7083H13.6203L14.4546 9.39583ZM19.4512 12.151C18.96 12.151 18.5648 12.6317 18.5648 13.2292C18.5648 13.8266 18.96 14.3073 19.4512 14.3073H25.3603C25.8515 14.3073 26.2466 13.8266 26.2466 13.2292C26.2466 12.6317 25.8515 12.151 25.3603 12.151H19.4512ZM19.4512 16.4635C18.96 16.4635 18.5648 16.9442 18.5648 17.5417C18.5648 18.1391 18.96 18.6198 19.4512 18.6198H25.3603C25.8515 18.6198 26.2466 18.1391 26.2466 17.5417C26.2466 16.9442 25.8515 16.4635 25.3603 16.4635H19.4512ZM19.4512 20.776C18.96 20.776 18.5648 21.2567 18.5648 21.8542C18.5648 22.4516 18.96 22.9323 19.4512 22.9323H25.3603C25.8515 22.9323 26.2466 22.4516 26.2466 21.8542C26.2466 21.2567 25.8515 20.776 25.3603 20.776H19.4512Z" fill="white"/>
<rect x="5.78787" y="14.6667" width="3.93939" height="2.875" rx="1.4375" fill="white"/>
<rect x="8.15152" y="23.2917" width="10.2424" height="2.875" rx="1.4375" fill="white"/>
<rect x="10.5151" y="16.5833" width="8.66667" height="3.83333" rx="1.91667" fill="white"/>
</svg>
