<svg width="27" height="22" viewBox="0 0 27 22" fill="none" xmlns="http://www.w3.org/2000/svg">
<path d="M15.636 8.54583C15.551 8.50105 15.4572 8.47328 15.3604 8.46423C15.2637 8.45518 15.166 8.46504 15.0734 8.4932C14.9808 8.52137 14.8952 8.56724 14.822 8.62798C14.7488 8.68873 14.6896 8.76306 14.6478 8.84639C14.6061 8.92972 14.5829 9.02027 14.5795 9.11246C14.5761 9.20465 14.5927 9.29652 14.6282 9.3824C14.6637 9.46828 14.7173 9.54635 14.7859 9.61178C14.8544 9.67721 14.9364 9.72862 15.0267 9.76283C15.3211 9.88293 15.5733 10.0801 15.7538 10.3312C15.9343 10.5823 16.0357 10.877 16.0461 11.1808C16.0357 11.4846 15.9343 11.7793 15.7538 12.0305C15.5733 12.2816 15.3211 12.4787 15.0267 12.5988C14.8564 12.6761 14.7255 12.8144 14.6628 12.9833C14.6 13.1522 14.6105 13.3378 14.692 13.4993C14.7735 13.6608 14.9193 13.785 15.0973 13.8446C15.2754 13.9041 15.471 13.8941 15.6413 13.8168C16.184 13.5949 16.6463 13.227 16.9711 12.7587C17.2959 12.2903 17.469 11.742 17.469 11.1813C17.469 10.6207 17.2959 10.0724 16.9711 9.60401C16.6463 9.13565 16.184 8.76778 15.6413 8.54583H15.636ZM10.6919 3.07283C10.5527 3.07309 10.415 3.09976 10.2868 3.15128C10.1586 3.20281 10.0426 3.27813 9.94558 3.37283L5.98504 7.12783H1.44154C1.30121 7.12783 1.16226 7.15407 1.03263 7.20504C0.903004 7.25601 0.785235 7.33071 0.68606 7.42489C0.586884 7.51906 0.508247 7.63085 0.454643 7.75387C0.401039 7.87688 0.373519 8.00872 0.373658 8.14183V14.2218C0.373658 14.4905 0.486166 14.7482 0.686433 14.9381C0.886699 15.1281 1.15832 15.2348 1.44154 15.2348H5.98504L9.94558 18.9908C10.0426 19.0855 10.1587 19.1608 10.2868 19.2123C10.415 19.2638 10.5527 19.2905 10.6919 19.2908C10.8334 19.2922 10.9737 19.2668 11.1047 19.2161C11.2358 19.1655 11.3548 19.0906 11.455 18.9958C11.5552 18.9011 11.6345 18.7883 11.6883 18.6642C11.742 18.5401 11.7692 18.407 11.7682 18.2728V4.08883C11.769 3.9548 11.7416 3.82197 11.6877 3.69807C11.6337 3.57418 11.5544 3.46169 11.4543 3.36714C11.3541 3.2726 11.2351 3.19789 11.1042 3.14737C10.9734 3.09684 10.8332 3.0715 10.6919 3.07283ZM10.3441 17.4568L6.57432 13.8838H1.79785V8.48383H6.57432L10.3441 4.90383V17.4588V17.4568ZM19.138 0.449831C19.0549 0.408333 18.9641 0.382761 18.8706 0.374575C18.7771 0.366389 18.6828 0.375749 18.5932 0.402121C18.5035 0.428493 18.4202 0.47136 18.348 0.528275C18.2758 0.58519 18.2161 0.655038 18.1724 0.733831C18.1286 0.812624 18.1017 0.898819 18.093 0.987495C18.0844 1.07617 18.0943 1.16559 18.1221 1.25065C18.1499 1.33571 18.1951 1.41474 18.2551 1.48323C18.3151 1.55172 18.3887 1.60833 18.4718 1.64983C20.3147 2.55483 21.8599 3.923 22.9385 5.60478C24.0171 7.28657 24.5875 9.21726 24.5875 11.1858C24.5875 13.1544 24.0171 15.0851 22.9385 16.7669C21.8599 18.4487 20.3147 19.8168 18.4718 20.7218C18.3887 20.7633 18.3151 20.8199 18.2551 20.8884C18.1951 20.9569 18.1499 21.036 18.1221 21.121C18.0943 21.2061 18.0844 21.2955 18.093 21.3842C18.1017 21.4728 18.1286 21.559 18.1724 21.6378C18.2161 21.7166 18.2758 21.7865 18.348 21.8434C18.4202 21.9003 18.5035 21.9432 18.5932 21.9695C18.6828 21.9959 18.7771 22.0053 18.8706 21.9971C18.9641 21.9889 19.0549 21.9633 19.138 21.9218C21.2129 20.903 22.9526 19.3627 24.167 17.4693C25.3814 15.5758 26.0237 13.4022 26.0237 11.1858C26.0237 8.9695 25.3814 6.79582 24.167 4.90239C22.9526 3.00896 21.2129 1.46865 19.138 0.449831ZM21.7418 11.1808C21.7593 9.83805 21.403 8.51466 20.7089 7.34425C20.0148 6.17385 19.0075 5.19787 17.7886 4.51483C17.6234 4.42561 17.4278 4.40171 17.2441 4.44831C17.0604 4.49492 16.9034 4.60827 16.8072 4.76383C16.7603 4.84086 16.7299 4.92596 16.7178 5.0142C16.7058 5.10244 16.7123 5.19208 16.737 5.27791C16.7617 5.36375 16.8041 5.44409 16.8618 5.51428C16.9194 5.58447 16.9912 5.64312 17.0729 5.68683C18.0719 6.25307 18.8959 7.05903 19.462 8.02354C20.0282 8.98804 20.3164 10.077 20.2976 11.1808C20.3157 12.2846 20.0268 13.3734 19.4601 14.3375C18.8935 15.3017 18.069 16.1071 17.0697 16.6728C16.9881 16.7166 16.9165 16.7753 16.8589 16.8455C16.8013 16.9157 16.759 16.9961 16.7343 17.0819C16.7096 17.1677 16.703 17.2572 16.715 17.3455C16.727 17.4337 16.7572 17.5188 16.804 17.5958C16.9003 17.7514 17.0572 17.8647 17.2409 17.9114C17.4246 17.958 17.6202 17.9341 17.7855 17.8448C19.0041 17.162 20.0112 16.1864 20.7053 15.0164C21.3994 13.8463 21.7558 12.5233 21.7386 11.1808H21.7418Z" fill="#9B4DEE"/>
</svg>
