<svg width="16" height="16" viewBox="0 0 16 16" fill="none" xmlns="http://www.w3.org/2000/svg">
<g id="Icons/Status">
<path id="Ellipse 45" d="M7.99976 16C12.418 16 15.9998 12.4183 15.9998 8C15.9998 3.58172 12.418 0 7.99976 0C3.58148 0 -0.000244141 3.58172 -0.000244141 8C-0.000244141 12.4183 3.58148 16 7.99976 16Z" fill="#4BA047"/>
<path id="Path 396" d="M7.55395 11.1136C7.38799 11.1139 7.22644 11.0527 7.09366 10.9391L7.08542 10.9321L5.35174 9.41925C5.27144 9.34904 5.20406 9.26146 5.15343 9.16154C5.10281 9.06161 5.06993 8.95129 5.05668 8.83688C5.04343 8.72246 5.05007 8.60618 5.07621 8.49469C5.10236 8.3832 5.1475 8.27867 5.20905 8.18708C5.27061 8.09549 5.34738 8.01862 5.43498 7.96087C5.52258 7.90313 5.61929 7.86562 5.7196 7.85051C5.8199 7.8354 5.92183 7.84297 6.01957 7.87279C6.11731 7.90261 6.20894 7.9541 6.28924 8.02432L7.41218 9.00662L10.0658 5.05762C10.1273 4.96606 10.204 4.88923 10.2916 4.8315C10.3792 4.77378 10.4758 4.73629 10.5761 4.72119C10.6763 4.70608 10.7782 4.71365 10.8759 4.74346C10.9736 4.77327 11.0652 4.82474 11.1455 4.89493C11.3074 5.03689 11.414 5.24652 11.4407 5.47747C11.4674 5.70843 11.4127 5.94204 11.2886 6.12703L8.16743 10.7699C8.09522 10.8768 8.00238 10.9634 7.8961 11.0228C7.78983 11.0823 7.67298 11.113 7.55463 11.1126L7.55395 11.1136Z" fill="white"/>
</g>
</svg>
