<svg width="14" height="14" viewBox="0 0 14 14" fill="none" xmlns="http://www.w3.org/2000/svg">
<g id="trash-solid">
<path id="Vector" d="M4.62143 0.483711C4.76607 0.18725 5.06339 0 5.3875 0H8.6125C8.93661 0 9.23393 0.18725 9.37857 0.483711L9.57143 0.875H12.1429C12.617 0.875 13 1.26684 13 1.75C13 2.23316 12.617 2.625 12.1429 2.625H1.85714C1.38384 2.625 1 2.23316 1 1.75C1 1.26684 1.38384 0.875 1.85714 0.875H4.42857L4.62143 0.483711ZM11.575 12.7449C11.5321 13.4613 10.9723 14 10.292 14H3.70804C3.02902 14 2.46705 13.4613 2.42473 12.7449L1.83304 3.5H12.1429L11.575 12.7449Z" fill="#E0457B"/>
</g>
</svg>
