<svg width="14" height="14" viewBox="0 0 14 14" fill="none" xmlns="http://www.w3.org/2000/svg">
<path id="Vector" d="M10.9102 10.5055C10.3059 9.45547 9.17109 8.75 7.875 8.75H6.125C4.82891 8.75 3.69414 9.45547 3.08984 10.5055C4.05234 11.5773 5.44688 12.25 7 12.25C8.55313 12.25 9.94766 11.5746 10.9102 10.5055ZM14 7C14 10.8664 10.8664 14 7 14C3.13359 14 0 10.8664 0 7C0 3.13359 3.13359 0 7 0C10.8664 0 14 3.13359 14 7ZM7 7.4375C8.08828 7.4375 8.96875 6.55703 8.96875 5.46875C8.96875 4.38047 8.08828 3.5 7 3.5C5.91172 3.5 5.03125 4.38047 5.03125 5.46875C5.03125 6.55703 5.91172 7.4375 7 7.4375Z" fill="#707070"/>
</svg>
