<svg width="14" height="14" viewBox="0 0 14 14" fill="none" xmlns="http://www.w3.org/2000/svg">
<path id="Vector" d="M13.3715 10.7564C14.1171 11.4986 14.1171 12.7007 13.3715 13.4433C12.6254 14.1859 11.4182 14.1853 10.6722 13.4433L7.00112 9.71933L3.26083 13.4425C2.51476 14.1851 1.30757 14.1845 0.56158 13.4425C-0.184013 12.7003 -0.184013 11.4982 0.56158 10.7556L4.30187 7.03247L0.559195 3.24364C-0.186398 2.50146 -0.186398 1.29934 0.559195 0.556777C1.30479 -0.18579 2.51245 -0.185394 3.25844 0.556777L7.00112 4.35195L10.7414 0.628818C11.487 -0.113354 12.6947 -0.113354 13.4407 0.628818C14.1866 1.37099 14.1862 2.57311 13.4407 3.31568L9.70036 7.03881L13.3715 10.7564Z" fill="#9B4DEE"/>
</svg>
