<svg width="15" height="14" viewBox="0 0 15 14" fill="none" xmlns="http://www.w3.org/2000/svg">
<g id="xmark-solid" clip-path="url(#clip0_701_37495)">
<path id="Vector" d="M14.0174 11.6114C14.5642 12.1583 14.5642 13.0441 14.0174 13.591C13.7461 13.8644 13.3874 14 13.0287 14C12.67 14 12.3121 13.8633 12.0392 13.5899L7.42914 8.98227L2.81956 13.5888C2.54615 13.8644 2.18786 14 1.82958 14C1.47129 14 1.11345 13.8644 0.839812 13.5888C0.292979 13.042 0.292979 12.1561 0.839812 11.6092L5.4507 6.99836L0.839812 2.38966C0.292979 1.84283 0.292979 0.956957 0.839812 0.410124C1.38664 -0.136708 2.27251 -0.136708 2.81934 0.410124L7.42914 5.0232L12.04 0.412312C12.5869 -0.134521 13.4727 -0.134521 14.0196 0.412312C14.5664 0.959144 14.5664 1.84501 14.0196 2.39184L9.40867 7.00273L14.0174 11.6114Z" fill="#707070"/>
</g>
<defs>
<clipPath id="clip0_701_37495">
<rect width="14" height="14" fill="white" transform="translate(0.429688)"/>
</clipPath>
</defs>
</svg>
